<svg width="86" height="25" viewBox="0 0 86 25" fill="none" xmlns="http://www.w3.org/2000/svg">
<path d="M9.6243 4.76025C12.4569 4.76025 15.2573 4.76025 18.0792 4.76025C17.8163 5.7217 17.5588 6.6673 17.3013 7.61289C17.0921 8.38945 16.8775 9.166 16.679 9.94783C16.6307 10.1327 16.5556 10.212 16.341 10.212C15.0105 10.2014 13.6747 10.212 12.3443 10.2014C12.135 10.2014 12.0599 10.2701 12.0116 10.4708C11.1104 14.1159 10.1983 17.7609 9.29705 21.4007C9.02345 22.5047 8.74985 23.6088 8.48697 24.7182C8.44942 24.8661 8.3904 24.9242 8.23483 24.9242C6.95801 24.9189 5.67582 24.9242 4.39901 24.9242C4.36682 24.9242 4.32926 24.9136 4.25952 24.8978C6.04599 18.1782 7.83247 11.4745 9.6243 4.76025Z" fill="#006923"/>
<path d="M9.36155 0.0264133C9.27571 0.401483 9.19524 0.744856 9.1094 1.09351C8.21885 4.64875 7.32293 8.1987 6.42701 11.7539C5.71349 14.5802 5.00534 17.4064 4.2811 20.2273C4.265 20.296 4.15771 20.3858 4.09333 20.3858C3.00428 20.3964 1.90986 20.3911 0.820812 20.3858C0.804718 20.3858 0.788623 20.37 0.745705 20.3541C2.04935 15.3092 3.34762 10.2537 4.65127 5.17173C3.07939 5.17173 1.55579 5.17173 0 5.17173C0.241415 4.35292 0.477466 3.55524 0.718881 2.76284C0.965661 1.93874 1.21781 1.11993 1.45386 0.295829C1.51287 0.0898054 1.58798 0 1.82939 0C4.24354 0.0105653 6.6577 0.00528267 9.07185 0.00528267C9.15769 0.0105653 9.24352 0.0211307 9.36155 0.0264133Z" fill="#2E2273"/>
<path d="M25.4826 19.7576C25.6382 19.7576 25.7026 19.7576 25.7723 19.7576C27.3013 19.7576 28.8303 19.7576 30.3539 19.7576C30.9923 19.7576 31.3195 20.1591 31.1747 20.7719C31.0459 21.3371 30.9064 21.8971 30.783 22.4623C30.6704 22.9747 30.3109 23.2441 29.8603 23.4396C29.7798 23.4766 29.694 23.4977 29.5921 23.5294C29.7745 23.9943 29.9569 24.4486 30.1446 24.9293C30.0373 24.9452 29.973 24.961 29.9086 24.961C29.3614 24.9663 28.8195 24.9557 28.2723 24.9663C28.0685 24.9716 27.9612 24.8976 27.9075 24.7022C27.8163 24.3799 27.7197 24.063 27.6017 23.7513C27.5695 23.6668 27.4569 23.6139 27.3818 23.5453C27.3174 23.6192 27.2262 23.6826 27.1994 23.7671C27.1135 24.0788 27.0438 24.3958 26.974 24.7127C26.9365 24.8818 26.8506 24.9663 26.6575 24.961C26.1318 24.9504 25.6007 24.961 25.0749 24.9557C24.7637 24.9557 24.7423 24.9188 24.8174 24.6124C25.1446 23.2706 25.4612 21.9235 25.8099 20.587C25.9172 20.2489 25.7616 20.0323 25.4826 19.7576ZM28.5888 20.2277C28.4923 20.2277 28.3903 20.2383 28.2938 20.2277C28.1275 20.2066 28.047 20.2859 28.0094 20.4338C27.8163 21.2367 27.6178 22.045 27.4247 22.8479C27.3871 23.0011 27.4408 23.0804 27.6124 23.0804C27.8109 23.0751 28.0041 23.0751 28.2026 23.0804C28.3957 23.0857 28.4869 23.017 28.5298 22.8215C28.6854 22.1295 28.8624 21.448 29.0287 20.7613C29.1521 20.2277 29.1468 20.2225 28.5888 20.2277ZM31.8721 19.9636C32.0652 20.1379 32.0974 20.3281 32.033 20.5764C31.7541 21.6858 31.5073 22.8057 31.2122 23.915C31.0244 24.6229 31.5073 24.9769 32.0491 24.9769C33.1221 24.9769 34.195 24.9821 35.268 24.9769C35.9386 24.9769 36.4858 24.5437 36.6414 23.9045C36.9525 22.6049 37.2637 21.3001 37.5856 20.0006C37.6339 19.7998 37.5749 19.747 37.3817 19.7523C36.8291 19.7576 36.2712 19.7576 35.7186 19.7523C35.547 19.7523 35.4558 19.8157 35.4182 19.9795C35.1017 21.2948 34.7798 22.6155 34.4525 23.9309C34.2862 24.6124 34.3935 24.4961 33.7444 24.5067C33.6639 24.5067 33.5835 24.5014 33.503 24.5067C33.2991 24.5173 33.2347 24.4592 33.2938 24.2426C33.503 23.4396 33.6854 22.6314 33.8839 21.8231C34.0287 21.2367 34.1736 20.6504 34.3184 20.064C34.3828 19.7946 34.356 19.7523 34.077 19.7523C33.7283 19.7523 33.3796 19.7523 33.0309 19.7523C32.6178 19.7523 32.1993 19.7523 31.7326 19.7523C31.797 19.858 31.8292 19.9213 31.8721 19.9636ZM40.1875 12.2562C40.7401 12.2562 41.2926 12.2562 41.8506 12.2562C42.4675 12.2562 42.8002 12.6682 42.6607 13.2599C42.4032 14.3323 42.1457 15.4047 41.8881 16.4718C41.7487 17.0423 41.2014 17.4649 40.5684 17.4649C39.4794 17.4702 38.3903 17.4755 37.3012 17.4649C36.6038 17.4596 36.3463 16.9419 36.4804 16.4401C36.7701 15.3783 36.9955 14.3006 37.253 13.2282C37.3764 12.6999 37.9504 12.2615 38.5083 12.2562C39.0609 12.2562 39.6242 12.2562 40.1875 12.2562ZM39.0555 17.0106C39.1092 17.0106 39.1628 17.0053 39.2165 17.0106C39.5008 17.0529 39.6242 16.9314 39.6778 16.6461C39.7637 16.1918 39.8924 15.748 39.9997 15.299C40.1875 14.5277 40.3753 13.7512 40.5684 12.9852C40.6167 12.7897 40.5791 12.7052 40.3592 12.7211C40.1714 12.7369 39.9836 12.7316 39.7959 12.7211C39.6135 12.7105 39.5223 12.7792 39.4794 12.9588C39.2004 14.1315 38.9053 15.3043 38.6264 16.4718C38.4815 17.0846 38.4654 17.0053 39.0555 17.0106ZM51.4053 12.2562C51.9578 12.2562 52.5158 12.2562 53.0684 12.2562C53.696 12.2562 54.0447 12.6788 53.8999 13.281C53.6478 14.3376 53.3849 15.3888 53.1166 16.4401C52.9664 17.0423 52.4514 17.4596 51.8291 17.4649C50.7186 17.4755 49.6134 17.4755 48.5029 17.4649C47.9021 17.4596 47.5695 17.0423 47.7089 16.4665C47.9611 15.3941 48.2186 14.3217 48.4868 13.2546C48.637 12.6577 49.1682 12.2615 49.8012 12.2615C50.0694 12.2615 50.3377 12.2615 50.6059 12.2615C50.8688 12.2562 51.137 12.2562 51.4053 12.2562ZM51.3248 12.7264C51.2604 12.7264 51.196 12.7369 51.137 12.7264C50.842 12.6788 50.74 12.8109 50.681 13.0856C50.5684 13.6403 50.4128 14.1896 50.2787 14.739C50.1177 15.3941 49.9621 16.0439 49.8012 16.6989C49.7368 16.9683 49.769 17.0106 50.0426 17.0106C50.2036 17.0106 50.3645 17.0053 50.5254 17.0106C50.7239 17.0212 50.8259 16.9631 50.8742 16.7465C51.1478 15.5737 51.4375 14.4062 51.7218 13.2335C51.8505 12.7263 51.8452 12.7264 51.3248 12.7264ZM57.3816 15.6635C57.4031 15.8643 57.2958 16.0861 57.2368 16.2974C57.049 17.037 57.049 17.0317 56.255 17.0159C56.0351 17.0106 55.9814 16.9472 56.0351 16.7253C56.3141 15.6213 56.5823 14.5172 56.8505 13.4131C57.0544 12.5837 56.8773 12.7475 57.7089 12.7316C58.1113 12.7263 58.122 12.7422 58.0362 13.1278C58.0308 13.1542 58.0147 13.1754 58.0093 13.2018C57.902 13.5821 57.8001 13.9625 57.6928 14.3428C57.6392 14.5277 57.666 14.644 57.9128 14.6387C58.4653 14.6281 59.0233 14.6334 59.5758 14.6387C59.7529 14.6387 59.8334 14.57 59.8709 14.4062C59.9567 14.0153 60.0587 13.6244 60.1445 13.2282C60.2625 12.663 59.9245 12.2668 59.3398 12.2668C58.24 12.2668 57.1402 12.2668 56.0404 12.2668C55.4235 12.2668 54.8763 12.6682 54.7314 13.2652C54.4686 14.327 54.2218 15.3941 53.9589 16.4559C53.8194 17.037 54.1252 17.4702 54.7261 17.4755C56.1102 17.486 57.4943 17.4755 58.8784 17.4808C59.0447 17.4808 59.1359 17.4226 59.1735 17.2483C59.3183 16.6091 59.4846 15.9752 59.6349 15.336C59.6509 15.2726 59.6349 15.2039 59.6349 15.1352C58.7658 15.1352 57.9235 15.1352 57.0705 15.1352C57.1939 15.3096 57.3602 15.4786 57.3816 15.6635ZM29.5599 14.6175C29.6296 14.6175 29.7315 14.4908 29.753 14.4115C29.8603 14.0312 29.9569 13.6508 30.032 13.2652C30.15 12.6418 29.8174 12.2615 29.1736 12.2615C28.0738 12.2615 26.974 12.2615 25.8743 12.2615C25.3056 12.2615 24.7584 12.6841 24.6243 13.2282C24.3614 14.29 24.1092 15.3518 23.8517 16.4189C23.6962 17.0581 24.018 17.4755 24.6886 17.4755C25.7616 17.4808 26.8346 17.4808 27.9075 17.4755C28.5727 17.4755 29.0824 17.0846 29.2594 16.4559C29.3667 16.0703 29.4579 15.6741 29.5491 15.2832C29.5599 15.2356 29.5438 15.1881 29.5384 15.1194C28.8785 15.1194 28.2348 15.1141 27.5964 15.13C27.5212 15.13 27.4032 15.2462 27.3818 15.3307C27.2745 15.7005 27.2047 16.0808 27.1028 16.4506C26.9204 17.0951 27.076 17.0159 26.3839 17.0212C26.2927 17.0212 26.2069 17.0159 26.1157 17.0212C25.9386 17.0317 25.885 16.9419 25.9225 16.794C26.2391 15.505 26.5556 14.2108 26.8828 12.9218C26.8989 12.8531 26.9848 12.7475 27.0384 12.7475C27.3388 12.7316 27.6393 12.7369 28.0041 12.7369C27.8431 13.3867 27.6929 13.9889 27.532 14.6334C28.2616 14.6228 28.9107 14.6334 29.5599 14.6175ZM83.1273 20.5606C83.0253 20.9568 82.9073 21.353 82.8054 21.7544C82.7195 22.082 82.7625 22.1295 83.0951 22.1295C83.6155 22.1295 84.1305 22.1242 84.6509 22.1348C84.8386 22.1401 84.9298 22.0661 84.9727 21.8971C85.0639 21.522 85.1605 21.1522 85.241 20.7719C85.3697 20.1538 85.0371 19.7629 84.3933 19.7629C83.2828 19.7629 82.1777 19.7629 81.0672 19.7629C80.5092 19.7629 79.9674 20.1855 79.8333 20.719C79.5758 21.7703 79.3397 22.8321 79.0607 23.8781C78.8783 24.549 79.2485 24.961 79.9137 24.9716C80.9974 24.9821 82.0758 24.9769 83.1594 24.9716C83.7657 24.9663 84.286 24.5595 84.447 23.9784C84.5543 23.5822 84.6509 23.1808 84.7528 22.7793C84.7635 22.7317 84.7528 22.6842 84.7474 22.6155C84.0768 22.6155 83.4277 22.6102 82.7732 22.6261C82.7034 22.6261 82.6015 22.737 82.5747 22.811C82.4781 23.1385 82.4084 23.4713 82.3279 23.8041C82.1401 24.5595 82.1348 24.5595 81.3461 24.5173C81.3354 24.5173 81.3301 24.5173 81.3193 24.5173C81.1316 24.5226 81.0833 24.4275 81.1262 24.2637C81.1745 24.0682 81.2281 23.8728 81.2764 23.6773C81.5393 22.5997 81.8022 21.5167 82.0758 20.439C82.0972 20.3598 82.1884 20.2436 82.2582 20.2383C82.5479 20.2172 82.8429 20.2277 83.1648 20.2277C83.1541 20.3598 83.1541 20.4655 83.1273 20.5606ZM45.8313 21.5167C45.8634 21.596 45.8956 21.6752 45.9278 21.7544C46.298 22.7476 46.6735 23.7407 47.0383 24.7339C47.1027 24.9135 47.2046 24.9716 47.3924 24.9716C47.9182 24.961 48.4493 24.961 48.975 24.9769C49.2003 24.9821 49.313 24.9082 49.3613 24.681C49.5222 23.9732 49.7046 23.2706 49.8709 22.5627C50.0909 21.6488 50.3109 20.7296 50.5415 19.7629C50.1982 19.7629 49.8817 19.7523 49.5652 19.7734C49.5115 19.7787 49.4364 19.8844 49.4203 19.9583C49.2701 20.5764 49.1306 21.1998 48.9804 21.8231C48.8731 22.2827 48.7551 22.7423 48.6263 23.2706C48.5619 23.1491 48.5297 23.0962 48.5083 23.0434C48.1381 22.0397 47.7733 21.036 47.4085 20.0323C47.3388 19.8421 47.2529 19.7523 47.0276 19.7576C46.3463 19.7734 45.6703 19.7629 44.989 19.7629C44.8871 19.7629 44.7851 19.7629 44.6349 19.7629C44.7047 19.8632 44.7261 19.9213 44.769 19.9583C44.9675 20.1327 44.9836 20.3334 44.9192 20.5817C44.5759 21.9657 44.2486 23.3498 43.9053 24.7339C43.8624 24.9029 43.9053 24.9663 44.0662 24.9716C44.2916 24.9769 44.5169 24.998 44.7368 24.9663C44.828 24.9557 44.9622 24.8448 44.9836 24.755C45.1124 24.2901 45.2089 23.82 45.3162 23.3551C45.4611 22.7423 45.6059 22.1295 45.7454 21.522C45.7883 21.5167 45.8098 21.5167 45.8313 21.5167ZM31.9043 14.01C31.9311 14.0629 31.9579 14.121 31.9794 14.1738C32.3549 15.1828 32.7412 16.1918 33.106 17.2061C33.1811 17.4121 33.2884 17.4755 33.4923 17.4702C34.0126 17.4596 34.5277 17.4543 35.048 17.4755C35.3163 17.486 35.4021 17.3698 35.4558 17.1427C35.7884 15.748 36.1317 14.3534 36.4643 12.9588C36.518 12.7369 36.5555 12.5098 36.6038 12.2562C36.3249 12.2562 36.0995 12.2773 35.8796 12.2509C35.6167 12.2192 35.5148 12.3302 35.4665 12.5679C35.3109 13.2757 35.1446 13.9836 34.9783 14.6915C34.8978 15.0349 34.8066 15.3835 34.7047 15.785C34.651 15.6582 34.6189 15.6001 34.5974 15.5314C34.2219 14.5225 33.8463 13.5135 33.4815 12.4992C33.4225 12.3301 33.342 12.2456 33.1382 12.2509C32.4139 12.2668 31.6897 12.2562 30.9654 12.2562C30.8957 12.2562 30.8206 12.2668 30.724 12.2773C30.8957 12.5256 31.1264 12.6788 31.0352 13.0222C30.724 14.1791 30.4558 15.3466 30.1768 16.514C30.1017 16.8151 30.0427 17.1215 29.9622 17.4702C30.2734 17.4702 30.5309 17.4649 30.783 17.4702C30.9654 17.4755 31.0566 17.3962 31.0942 17.2272C31.2015 16.7306 31.3195 16.234 31.4322 15.7428C31.5663 15.1669 31.7058 14.5911 31.8399 14.0153C31.8667 14.0153 31.8882 14.01 31.9043 14.01ZM13.6104 19.7576C14.3078 19.7576 14.9516 19.7576 15.5953 19.7576C16.5503 19.7576 17.5052 19.7576 18.4601 19.7576C19.0878 19.7576 19.4311 20.1908 19.2863 20.7824C19.1522 21.3265 18.9912 21.8654 18.8947 22.4148C18.7713 23.1121 18.149 23.5453 17.4676 23.5505C16.8507 23.5558 16.2337 23.5611 15.6168 23.5453C15.4076 23.54 15.3325 23.6192 15.2949 23.7988C15.2305 24.0999 15.1393 24.3905 15.0857 24.6916C15.0535 24.8871 14.9623 24.9663 14.7638 24.9663C14.2112 24.961 13.6586 24.9663 13.1007 24.9663C12.9129 24.9663 12.8539 24.9029 12.9022 24.7074C13.2402 23.334 13.5621 21.9499 13.9108 20.5764C13.9805 20.307 13.9644 20.0957 13.7337 19.9213C13.7016 19.8949 13.6801 19.8474 13.6104 19.7576ZM17.2423 20.2277C16.9419 20.2277 16.6736 20.2383 16.4108 20.2225C16.2123 20.2119 16.1425 20.3017 16.105 20.4655C15.9172 21.2579 15.7348 22.0503 15.5363 22.8374C15.488 23.0328 15.5631 23.0751 15.7241 23.0751C15.9118 23.0751 16.0996 23.0645 16.2874 23.0751C16.4966 23.091 16.5932 22.9906 16.6361 22.8004C16.7756 22.214 16.9204 21.6276 17.0599 21.0466C17.1243 20.7824 17.1779 20.5183 17.2423 20.2277ZM62.6499 17.4121C63.1702 16.6144 63.6745 15.8431 64.1842 15.0666C64.5973 14.4379 65.005 13.8093 65.4235 13.1912C65.5522 13.001 65.5951 12.8214 65.5308 12.5996C65.4449 12.3037 65.4932 12.2562 65.799 12.2562C66.5125 12.2562 67.226 12.2615 67.9449 12.2509C68.1434 12.2456 68.2239 12.3037 68.2614 12.5045C68.578 14.0893 68.9052 15.6741 69.2378 17.2589C69.2754 17.4279 69.2003 17.4649 69.0608 17.4649C68.2936 17.4649 67.5265 17.4702 66.7539 17.4543C66.6788 17.4543 66.5983 17.3487 66.534 17.2853C66.5071 17.2589 66.5018 17.2061 66.4911 17.1638C66.3301 16.514 66.3301 16.514 65.6702 16.514C65.3108 16.514 64.9567 16.5193 64.5973 16.5087C64.3988 16.5035 64.2486 16.5563 64.1574 16.7412C64.1252 16.8099 64.0662 16.8732 64.0233 16.9366C63.6638 17.4966 63.3687 17.6023 62.6499 17.4121ZM66.2443 16.0439C66.1155 15.3994 65.9975 14.7919 65.8795 14.1896C65.8526 14.1844 65.8258 14.1791 65.799 14.1738C65.4235 14.7813 65.0426 15.3888 64.6348 16.0439C65.2035 16.0439 65.6863 16.0439 66.2443 16.0439ZM71.9417 24.9135C72.5586 23.9732 73.1648 23.0487 73.7657 22.1295C74.0822 21.6488 74.388 21.1681 74.7099 20.6926C74.844 20.4919 74.8816 20.3017 74.8118 20.0745C74.7367 19.8157 74.785 19.7629 75.0586 19.7576C75.7936 19.7576 76.5232 19.7681 77.2582 19.7523C77.462 19.747 77.521 19.8315 77.5532 20.0006C77.7893 21.1733 78.0307 22.3514 78.2721 23.5241C78.3526 23.9203 78.417 24.3165 78.5135 24.7074C78.5618 24.8976 78.5135 24.9716 78.3204 24.9716C77.5693 24.9716 76.8183 24.9769 76.0672 24.961C75.9814 24.961 75.8955 24.8342 75.8097 24.7603C75.799 24.7497 75.8043 24.7286 75.799 24.7074C75.6112 24.0207 75.6112 24.0207 74.8923 24.0207C74.5436 24.0207 74.1949 24.026 73.8462 24.0154C73.6691 24.0101 73.535 24.063 73.4545 24.2267C73.4063 24.3218 73.3365 24.4011 73.2775 24.4909C72.9556 24.9821 72.5801 25.1036 71.9417 24.9135ZM73.9535 23.4766C73.9696 23.503 73.9857 23.5294 74.0018 23.5558C74.4524 23.5558 74.903 23.5611 75.3537 23.5453C75.402 23.5453 75.4878 23.4185 75.4824 23.3551C75.4663 23.1385 75.4181 22.9219 75.3751 22.7106C75.3054 22.3672 75.2303 22.0238 75.1605 21.6805C75.1391 21.6752 75.1123 21.6699 75.0908 21.6699C74.7153 22.2721 74.3344 22.8744 73.9535 23.4766ZM49.9246 24.9188C50.1338 24.5912 50.3216 24.2901 50.5147 23.989C51.2175 22.9219 51.9149 21.8495 52.6284 20.7877C52.8001 20.5341 52.8806 20.2911 52.7679 20.0006C52.7035 19.8263 52.7679 19.7576 52.9503 19.7576C53.7282 19.7629 54.5061 19.7629 55.284 19.7576C55.4557 19.7576 55.4986 19.8527 55.5201 19.9795C55.8098 21.4111 56.0941 22.8427 56.3838 24.2743C56.416 24.438 56.4589 24.5965 56.4857 24.7603C56.5126 24.8976 56.4643 24.9716 56.3033 24.9716C55.5415 24.9663 54.7851 24.9663 54.0233 24.9716C53.8409 24.9716 53.7926 24.8659 53.7604 24.7339C53.5887 24.0207 53.5887 24.0207 52.8538 24.0207C52.5051 24.0207 52.1563 23.9996 51.8076 24.0313C51.6735 24.0418 51.534 24.1475 51.416 24.2373C51.3409 24.2901 51.3087 24.3958 51.2551 24.475C50.9278 24.9927 50.6166 25.0984 49.9246 24.9188ZM53.1327 21.6541C52.7948 21.9605 51.9686 23.3815 52.0222 23.5611C52.4353 23.5611 52.8538 23.5558 53.2722 23.5611C53.4654 23.5611 53.5297 23.4924 53.4653 23.3023C53.4224 23.1702 53.4171 23.0276 53.3902 22.8902C53.3044 22.4887 53.2186 22.082 53.1327 21.6541ZM36.8452 24.9082C37.1188 24.4856 37.3924 24.063 37.6661 23.6456C38.3045 22.6736 38.9375 21.6963 39.5866 20.7296C39.7369 20.5077 39.8066 20.2964 39.7047 20.0428C39.6135 19.8104 39.71 19.7523 39.9407 19.7576C40.6811 19.7681 41.4214 19.7629 42.1671 19.7576C42.3388 19.7576 42.4139 19.7998 42.4514 19.9847C42.7626 21.5431 43.0845 23.1015 43.4064 24.6652C43.4654 24.961 43.4493 24.9769 43.1381 24.9769C42.4514 24.9769 41.7647 24.9663 41.0727 24.9821C40.8313 24.9874 40.724 24.8976 40.6757 24.6705C40.5416 24.026 40.5362 24.0313 39.8763 24.0313C39.5169 24.0313 39.1628 24.0313 38.8034 24.026C38.5995 24.0207 38.4386 24.0682 38.342 24.2637C38.2937 24.3588 38.224 24.438 38.165 24.5278C37.8538 24.9716 37.43 25.1036 36.8452 24.9082ZM38.8409 23.4924C38.8624 23.5136 38.8839 23.5347 38.9053 23.5611C39.356 23.5611 39.812 23.5664 40.2626 23.5505C40.3109 23.5505 40.3914 23.4185 40.3914 23.3551C40.3806 23.1808 40.3324 23.0117 40.2948 22.8374C40.2143 22.4517 40.1339 22.0661 40.0588 21.6752C40.0319 21.6699 40.0105 21.6646 39.9836 21.6646C39.6027 22.2721 39.2218 22.8849 38.8409 23.4924ZM66.4696 24.9663C67.843 24.9663 69.2217 24.9821 70.5951 24.9663C71.2657 24.9557 71.7432 24.5648 71.9095 23.9362C72.0221 23.5136 72.0812 23.0751 72.2206 22.6631C72.4191 22.082 71.8988 21.6382 71.3998 21.6593C70.7668 21.6858 70.1337 21.6593 69.4953 21.6699C69.2861 21.6699 69.2217 21.5907 69.27 21.3952C69.3505 21.0888 69.4363 20.7877 69.4953 20.476C69.5329 20.2806 69.6241 20.2225 69.8226 20.2277C70.5307 20.2383 71.2335 20.2277 71.9417 20.233C72.3118 20.2383 72.5479 20.0112 72.8751 19.7734C72.7518 19.7682 72.7088 19.7629 72.6659 19.7629C71.2603 19.7629 69.8601 19.7576 68.4546 19.7629C67.9556 19.7629 67.4031 20.2013 67.2797 20.6926C67.167 21.1258 67.0704 21.559 66.9632 21.9922C66.8022 22.6525 67.1295 23.0698 67.8269 23.0751C68.417 23.0804 69.0071 23.0751 69.5973 23.0751C69.6992 23.0751 69.8011 23.0857 69.9406 23.0909C69.8494 23.4871 69.7475 23.8411 69.6885 24.2003C69.6455 24.4644 69.4953 24.5226 69.2646 24.5226C68.6048 24.5173 67.9395 24.5437 67.2797 24.512C66.888 24.4961 66.6359 24.7022 66.2925 24.9346C66.4052 24.9504 66.4374 24.9663 66.4696 24.9663ZM60.3215 24.2373C60.2786 24.4486 60.1767 24.512 59.9782 24.512C59.2915 24.5067 58.5994 24.5278 57.9128 24.5014C57.5211 24.4856 57.2797 24.7022 56.9632 24.924C57.0598 24.9452 57.1134 24.9663 57.1617 24.9663C58.5297 24.9663 59.8977 24.9716 61.2657 24.961C61.872 24.9557 62.4138 24.5331 62.5533 23.989C62.666 23.54 62.7733 23.0909 62.8752 22.6366C63.0093 22.045 62.6874 21.6541 62.0758 21.6541C61.475 21.6541 60.8795 21.6541 60.2786 21.6541C59.887 21.6541 59.8763 21.6382 59.9621 21.2737C60.0211 21.0201 60.0909 20.7613 60.1391 20.5077C60.1767 20.3017 60.2625 20.2119 60.4932 20.2172C61.2175 20.233 61.9417 20.2225 62.666 20.2225C63.0147 20.2225 63.2185 19.9847 63.4492 19.784C62.0383 19.7523 60.6488 19.7523 59.254 19.7523C58.5834 19.7523 58.0522 20.1644 57.8967 20.8036C57.7947 21.2262 57.6928 21.6541 57.5909 22.0767C57.4782 22.5521 57.7089 22.9219 58.1917 23.0223C58.3044 23.0434 58.4224 23.0593 58.5351 23.0593C59.2057 23.0645 59.8709 23.0593 60.6059 23.0593C60.4986 23.4924 60.3913 23.8622 60.3215 24.2373ZM71.8129 12.2615C71.2872 12.2668 70.7882 12.7211 70.6649 13.2176C70.579 13.5663 70.4878 13.915 70.4073 14.2636C70.3591 14.4696 70.2893 14.6757 70.3001 14.8817C70.3269 15.2779 70.6863 15.5579 71.1477 15.5631C71.6466 15.5684 72.1509 15.5684 72.6498 15.5684C72.8591 15.5684 73.0736 15.5684 73.3312 15.5684C73.2346 15.9805 73.1434 16.345 73.0736 16.7148C73.0307 16.9366 72.9288 17.0212 72.6927 17.0159C71.9792 17 71.2603 17.0159 70.5468 17.0106C70.2035 17.0053 69.9889 17.2272 69.7046 17.4226C69.7904 17.4491 69.8226 17.4649 69.8548 17.4649C71.2496 17.4649 72.6445 17.4755 74.0393 17.4596C74.6563 17.4543 75.1498 17.0264 75.3 16.4348C75.4073 16.0122 75.5039 15.5843 75.6058 15.1564C75.7507 14.57 75.4234 14.1527 74.8011 14.1527C74.1573 14.1527 73.5136 14.1474 72.8698 14.1527C72.682 14.1527 72.6069 14.0998 72.6659 13.8991C72.7518 13.598 72.8269 13.2916 72.8859 12.9799C72.9234 12.7739 73.02 12.7052 73.2292 12.7105C73.8998 12.7211 74.5704 12.6947 75.241 12.7211C75.6541 12.7369 75.9223 12.5203 76.1799 12.2456C74.7206 12.2562 73.2668 12.2456 71.8129 12.2615ZM22.9236 17.0106C22.253 17.0106 21.5824 17.0053 20.9118 17.0159C20.7026 17.0159 20.6168 16.9631 20.6758 16.7359C20.7992 16.2816 20.9226 15.822 21.0138 15.3624C21.0567 15.1405 21.1586 15.0983 21.3571 15.1036C21.8936 15.1141 22.4301 15.0983 22.9665 15.1088C23.3367 15.1141 23.5406 14.8711 23.7659 14.6281C22.929 14.6281 22.0921 14.6281 21.2337 14.6281C21.2444 14.5172 21.2391 14.4274 21.2552 14.3428C21.3571 13.8991 21.4751 13.4606 21.5717 13.0169C21.62 12.8056 21.7112 12.7158 21.9526 12.7211C22.6876 12.7369 23.4172 12.7263 24.1522 12.7316C24.3668 12.7316 24.4365 12.6048 24.4472 12.4358C24.4633 12.2192 24.297 12.2615 24.1683 12.2615C22.5588 12.2615 20.9494 12.2615 19.3399 12.2615C19.2756 12.2615 19.2112 12.272 19.1146 12.2826C19.1736 12.3618 19.2005 12.42 19.2434 12.4569C19.458 12.6365 19.4633 12.8426 19.399 13.0961C19.061 14.4432 18.7337 15.8009 18.4065 17.1479C18.326 17.4702 18.3314 17.4702 18.6693 17.4702C19.8657 17.4702 21.0674 17.4543 22.2638 17.4755C22.6768 17.486 22.9397 17.2853 23.2723 17.0106C23.1114 17.0106 23.0148 17.0106 22.9236 17.0106ZM20.1608 20.4919C19.8603 21.6699 19.576 22.8532 19.2863 24.0313C19.2166 24.3271 19.1522 24.6229 19.0824 24.9399C19.2058 24.9557 19.2809 24.9716 19.3614 24.9716C20.649 24.9716 21.9365 24.9716 23.2241 24.9716C23.5459 24.9716 23.7122 24.7127 23.9376 24.549C23.1704 24.5173 22.4193 24.5173 21.6683 24.5173C21.3947 24.5173 21.3517 24.4697 21.4161 24.2056C21.5234 23.7566 21.6414 23.3075 21.7434 22.8532C21.7863 22.6683 21.8829 22.5997 22.0814 22.6049C22.6178 22.6208 23.1543 22.5997 23.6908 22.6155C24.061 22.6261 24.2702 22.3831 24.576 22.1506C23.6479 22.1242 22.7949 22.1665 21.9258 22.1242C22.0653 21.5378 22.1994 21.0201 22.312 20.4972C22.355 20.2964 22.4462 20.2225 22.6554 20.2277C23.3689 20.2383 24.0878 20.233 24.8013 20.233C25.1285 20.233 25.2144 20.1115 25.1178 19.7787C23.3743 19.7787 21.6253 19.7787 19.8174 19.7787C20.0213 20.0112 20.2466 20.1696 20.1608 20.4919ZM13.6801 12.7316C13.9537 12.7052 14.2327 12.7264 14.5116 12.7264C14.8389 12.7264 14.8657 12.7633 14.7852 13.075C14.4473 14.4591 14.1146 15.8484 13.7713 17.2325C13.723 17.4385 13.782 17.4808 13.9698 17.4808C14.4794 17.4755 14.9891 17.4808 15.4988 17.4808C15.8958 17.4808 15.8904 17.4808 15.9816 17.0898C16.3035 15.7269 16.6361 14.364 16.958 13.001C17.0063 12.7897 17.1082 12.7105 17.3282 12.7211C17.6876 12.7369 18.0417 12.7158 18.4011 12.7316C18.6264 12.7422 18.7337 12.663 18.7337 12.4358C18.7337 12.1928 18.5513 12.2668 18.4226 12.2668C16.6683 12.2615 14.9194 12.2615 13.1651 12.2615C13.0792 12.2615 12.9934 12.272 12.8861 12.2773C13.0631 12.6418 13.3153 12.7686 13.6801 12.7316ZM43.0308 17.4702C44.2379 17.4702 45.445 17.4543 46.6467 17.4755C47.0437 17.4808 47.269 17.2536 47.5212 17.0106C47.4353 17.0106 47.3495 17.0106 47.2637 17.0106C46.5823 17.0106 45.9064 17.0106 45.225 17.0106C45.0319 17.0106 44.93 16.9895 44.9944 16.7412C45.2787 15.6424 45.5416 14.533 45.8098 13.4289C45.901 13.0539 45.9761 12.6735 46.0619 12.2826C45.1607 12.2826 44.313 12.2826 43.4332 12.2826C43.5137 12.383 43.562 12.4569 43.6263 12.515C43.7712 12.6471 43.798 12.7897 43.7497 12.9852C43.4493 14.1632 43.165 15.3466 42.8806 16.5299C42.8109 16.8257 42.7465 17.1215 42.6714 17.4649C42.8377 17.4702 42.9343 17.4702 43.0308 17.4702ZM60.6703 12.272C60.6917 12.3249 60.6971 12.3618 60.7185 12.383C61.0404 12.626 61.0029 12.9324 60.8956 13.2599C60.8634 13.3603 60.8366 13.4606 60.8151 13.561C60.52 14.776 60.2303 15.991 59.9299 17.2008C59.8709 17.4279 59.9514 17.4755 60.1606 17.4702C60.6703 17.4596 61.1799 17.4491 61.6842 17.4755C61.9739 17.4913 62.0705 17.3698 62.1295 17.1162C62.4031 15.9488 62.6874 14.7866 62.9718 13.6244C63.079 13.1859 63.181 12.7422 63.2883 12.2668C62.3763 12.272 61.534 12.272 60.6703 12.272Z" fill="#2E2273"/>
</svg>
