<svg width="82" height="22" viewBox="0 0 82 22" fill="none" xmlns="http://www.w3.org/2000/svg">
<path d="M61.3714 4.79352C62.4888 4.79352 63.5977 4.79352 64.7574 4.79352C64.7066 5.34436 64.6473 5.86131 64.5965 6.43758C64.969 6.07318 65.2737 5.72572 65.6293 5.42064C66.5689 4.6325 67.6693 4.31047 68.8713 4.49691C70.1834 4.7003 70.9706 5.5647 71.3516 6.78504C71.5124 7.30199 71.5463 7.85284 71.6309 8.39521C71.6478 8.4969 71.6478 8.60707 71.6478 8.72572C71.9526 8.19182 72.215 7.65792 72.5536 7.17487C73.4763 5.85284 74.7291 4.97996 76.2951 4.6325C77.5818 4.34436 78.8854 4.31047 80.1297 4.85284C81.3317 5.37826 81.9751 6.29352 81.992 7.64097C82.0089 9.0308 81.3656 10.0054 80.1805 10.6494C79.3509 11.0986 78.4452 11.3274 77.5141 11.4461C76.5914 11.5647 75.6602 11.624 74.7206 11.7172C74.5175 12.2681 74.8391 13.0478 75.4486 13.3952C75.965 13.6918 76.5406 13.7935 77.1247 13.7342C78.1912 13.624 79.207 13.3189 80.1551 12.8274C80.2398 12.785 80.3244 12.7511 80.5022 12.6833C80.3244 13.5816 80.1551 14.4037 79.9858 15.2511C79.8758 15.3189 79.7742 15.4037 79.6641 15.4545C78.2251 16.1155 76.7014 16.3444 75.1439 16.1833C72.7229 15.9291 71.2584 14.2172 71.2331 11.8783C71.2331 11.7511 71.2331 11.624 71.1823 11.4715C71.1315 11.5732 71.0807 11.6749 71.0384 11.785C70.4627 13.2681 69.5401 14.48 68.1518 15.302C67.2037 15.8613 66.1879 16.1918 65.0875 16.2003C64.3172 16.2088 63.5553 16.141 62.7173 16.1071C62.3703 17.7003 62.0147 19.3444 61.6507 21.0138C60.4741 21.0138 59.3313 21.0138 58.1462 21.0138C59.162 15.5816 60.5841 10.2766 61.3714 4.79352ZM63.2675 13.5393C63.8178 13.6749 64.3426 13.7935 64.9013 13.7088C66.0271 13.5478 66.772 12.8613 67.3476 11.9291C67.8809 11.0562 68.0926 10.0816 68.1349 9.08165C68.1518 8.70877 68.0502 8.31894 67.9402 7.95453C67.8217 7.5647 67.5339 7.31047 67.136 7.19182C66.5096 7.00538 65.9679 7.19182 65.4854 7.60708C64.6473 8.32741 64.2156 9.29351 63.9363 10.3359C63.6823 11.285 63.4876 12.2427 63.2675 13.2003C63.2506 13.285 63.2675 13.3867 63.2675 13.5393ZM74.9746 9.47148C75.5502 9.5647 76.1089 9.42911 76.6591 9.36131C77.2178 9.28504 77.7595 9.10707 78.2082 8.74267C78.7923 8.27657 78.8515 7.48843 78.3352 7.07318C78.0558 6.85284 77.7257 6.81047 77.3786 6.85284C76.0073 7.0308 75.1862 8.32741 74.9576 9.26809C74.9407 9.31894 74.9661 9.38674 74.9746 9.47148Z" fill="#808081"/>
<path d="M15.6437 8.35297C15.5506 8.7089 15.4744 9.06483 15.3728 9.42077C14.4417 12.8869 12.1985 14.9631 8.71091 15.7174C7.99985 15.8699 7.28033 15.9292 6.55234 15.9208C4.53769 15.9123 2.52303 15.9208 0.516834 15.9208C0.33907 15.9208 0.169771 15.9208 0.000471707 15.9208C-0.0418531 15.4547 2.77698 1.93772 3.25101 0.310597C3.39492 0.285174 3.55575 0.242801 3.72505 0.242801C5.24028 0.234326 6.7555 0.200428 8.27073 0.251275C9.27806 0.285174 10.2854 0.327547 11.2758 0.590258C13.7645 1.26822 15.3644 3.13263 15.6776 5.70043C15.7876 6.60721 15.6522 7.47161 15.6437 8.35297C15.6437 8.36144 15.6437 8.35297 15.6437 8.35297ZM6.22221 3.15805C5.98519 4.29365 5.74817 5.39534 5.51962 6.48856C5.29107 7.57331 5.06251 8.65805 4.84242 9.7428C4.62234 10.836 4.35146 11.9208 4.16523 13.0733C4.39378 13.0733 4.55462 13.0818 4.70698 13.0733C5.40958 13.0479 6.12063 13.0394 6.82322 12.997C8.98178 12.853 10.4885 11.7682 11.3774 9.80212C11.8768 8.70043 11.9276 7.53094 11.8853 6.35297C11.8175 4.8106 10.8356 3.64111 9.31192 3.3445C8.31305 3.14111 7.29726 3.12416 6.22221 3.15805Z" fill="#2A599F"/>
<path d="M16.4479 8.36136C16.5071 8.0817 16.5749 7.80204 16.6172 7.52238C16.9135 5.67492 17.6753 4.03933 18.9196 2.65797C20.1809 1.25967 21.7554 0.395261 23.6262 0.124075C24.9552 -0.0708402 26.2842 -0.0708402 27.5793 0.378312C29.5939 1.06475 30.8722 2.47153 31.4224 4.50543C32.0573 6.85289 31.7102 9.13255 30.7198 11.3275C30.0257 12.8614 28.9845 14.1071 27.5539 15.0054C26.3434 15.7681 25.0144 16.1664 23.5838 16.2003C22.6865 16.2173 21.7808 16.2342 20.9089 15.9546C18.581 15.2258 17.1759 13.641 16.6426 11.2766C16.4987 10.641 16.4902 9.97153 16.4394 9.31899C16.4225 8.99696 16.4479 8.67492 16.4479 8.36136ZM23.3891 13.141C23.7362 13.0902 24.0917 13.0732 24.4303 12.98C25.5985 12.641 26.4111 11.8529 26.9529 10.802C27.7655 9.21729 28.1041 7.53085 27.8332 5.75967C27.7317 5.1156 27.4692 4.53085 27.046 4.02238C26.2249 3.03933 24.6504 2.91221 23.5669 3.31052C22.3987 3.73424 21.603 4.59018 21.0951 5.69187C20.401 7.17492 20.0963 8.74272 20.3333 10.3868C20.4264 11.0478 20.655 11.6664 21.1036 12.1834C21.7046 12.8614 22.4665 13.1664 23.3891 13.141Z" fill="#2A599F"/>
<path d="M51.3573 8.96314C52.4069 9.55636 52.8048 10.497 53.0503 11.5479C53.355 12.8614 53.6851 14.175 53.9984 15.4886C54.0237 15.5987 54.0322 15.7089 54.0491 15.8106C53.7021 15.9377 50.8578 15.9631 50.2484 15.8445C50.1383 15.3191 50.0198 14.7767 49.9013 14.2259C49.7066 13.3275 49.5289 12.4292 49.3088 11.5394C49.2326 11.2174 49.0717 10.9038 48.894 10.6242C48.6485 10.2428 48.276 10.0225 47.8105 9.98856C47.5142 9.97161 47.2179 9.93772 46.8878 9.90382C46.6677 10.9547 46.4561 11.9377 46.2444 12.9292C46.0413 13.9038 45.8297 14.8784 45.618 15.8699C44.4076 15.8699 43.2225 15.8699 41.9866 15.8699C43.0955 10.6496 44.1959 5.48009 45.2964 0.285173C45.508 0.268224 45.6773 0.2428 45.8466 0.234325C47.2941 0.234325 48.7416 0.191952 50.1891 0.2428C51.1795 0.276698 52.1699 0.302122 53.1349 0.64958C55.4374 1.46314 56.0807 3.66653 55.5136 5.57331C55.1073 6.94619 54.1592 7.85297 52.8894 8.42924C52.4323 8.6411 51.9329 8.76822 51.3573 8.96314ZM47.4634 7.2089C48.2591 7.32755 49.6389 7.23433 50.2314 7.02246C50.9171 6.78517 51.4758 6.38687 51.7043 5.675C51.8229 5.30212 51.8398 4.88687 51.8229 4.48856C51.8059 3.91229 51.5012 3.50551 50.9933 3.22585C50.5446 2.97161 50.0537 3.02246 49.5881 2.96314C49.1987 2.91229 48.7924 2.95466 48.3607 2.95466C48.0644 4.40382 47.7681 5.79365 47.4634 7.2089Z" fill="#2A599F"/>
<path d="M37.3478 3.16652C37.1107 4.34449 36.8737 5.4716 36.6282 6.68347C38.3297 6.70889 39.9719 6.67499 41.6818 6.70042C41.4617 7.68347 41.267 8.58177 41.0554 9.52245C39.354 9.52245 37.7033 9.52245 36.0188 9.52245C35.7648 10.7004 35.5278 11.8445 35.2654 13.0648C35.9426 13.0733 36.5605 13.0733 37.1785 13.0733C37.8218 13.0733 38.4651 13.0733 39.1085 13.0733C39.7349 13.0733 40.3528 13.0733 41.0554 13.0733C40.8523 14.0394 40.6576 14.9462 40.4629 15.8784C37.3224 15.8784 34.2242 15.8784 31.126 15.8784C31.0922 15.497 34.1395 0.988554 34.3935 0.327537C34.8252 0.191944 42.9516 0.208893 43.3833 0.361435C43.1886 1.25974 42.9939 2.16652 42.7907 3.11567C42.6045 3.12415 42.4267 3.14957 42.2574 3.14957C40.793 3.14957 39.3286 3.14957 37.8641 3.14957C37.7033 3.14957 37.534 3.15805 37.3478 3.16652Z" fill="#2A599F"/>
<path d="M56.5632 16.2259C56.3431 16.192 56.1146 16.192 55.903 16.1242C54.574 15.7428 54.1592 14.2343 55.0903 13.2089C55.8352 12.3954 57.4774 12.3615 58.2224 13.175C58.8826 13.9038 58.7895 15.1496 58.0023 15.7428C57.579 16.0649 57.1135 16.2682 56.5632 16.2259Z" fill="#808081"/>
</svg>
