<svg width="61" height="16" viewBox="0 0 61 16" fill="none" xmlns="http://www.w3.org/2000/svg">
<path d="M2.02664 12.3019H7.10329V14.3692H1.14375C0.48158 14.3692 -1.22472e-06 13.8166 -1.22472e-06 13.2025V0H2.02664V12.3019ZM11.1566 0H10.2737V14.3692H12.3003V1.16673C12.3003 0.552663 11.7987 0 11.1566 0ZM40.1115 8.86308C40.1115 10.8076 38.5865 12.3223 36.6602 12.3223C34.7339 12.3223 33.2289 10.7462 33.2289 8.86308V0H31.2023V8.80167C31.2023 10.5211 31.9648 12.0972 33.2289 13.0797C34.152 13.8575 35.3559 14.3078 36.6803 14.3078C38.0046 14.3078 39.1885 13.8575 40.1316 13.0797C41.3957 12.0767 42.1582 10.5211 42.1582 8.80167V0H40.1316V8.86308H40.1115ZM61 7.20509C61 11.1351 57.8296 14.3692 53.8967 14.3692H51.0474C50.3852 14.3692 49.9036 13.8166 49.9036 13.2025V1.16673C49.9036 0.491256 50.4454 0 51.0474 0H53.8967C57.7694 0 60.9398 3.21363 61 7.20509ZM58.9734 7.16415C58.9734 4.33943 56.6859 2.06737 53.8967 2.06737H51.9303V12.2814H53.8967C56.6658 12.2609 58.9132 9.98887 58.9734 7.16415ZM28.9148 7.28697C28.9148 9.12918 28.2125 10.8486 27.0487 12.1381L27.9316 14.9833C28.0319 15.2699 27.9316 15.6588 27.6507 15.8839C27.3697 16.0477 26.9885 16.0477 26.7276 15.8225L24.3197 13.9189C23.6174 14.2055 22.7947 14.3692 21.9118 14.3692C17.9789 14.3692 14.8086 11.1351 14.8086 7.18462C14.8086 3.2341 17.9789 0 21.9118 0C25.8447 0 29.0151 3.2341 28.9148 7.28697ZM27.0086 7.18462C27.0086 4.33943 24.7211 2.06737 21.9319 2.06737C19.0826 2.06737 16.8553 4.3599 16.8553 7.18462C16.8553 10.0298 19.1428 12.3019 21.9319 12.3019C24.701 12.3019 27.0086 10.0298 27.0086 7.18462ZM45.9105 0H45.0276V14.3692H47.0543V1.16673C47.0543 0.552663 46.5125 0 45.9105 0Z" fill="#C5CDDB"/>
</svg>
