<svg width="58" height="16" viewBox="0 0 58 16" fill="none" xmlns="http://www.w3.org/2000/svg">
<path d="M5.41469 0H9.207L14.7434 14.6091H10.7888L10.0587 12.3045H4.64406L3.91399 14.6091H0L5.41469 0ZM9.16644 9.60905L7.36154 3.58025H7.32098L5.51609 9.60905H9.16644Z" fill="#C5CDDB"/>
<path d="M21.7601 5.30875C21.2936 4.09476 20.1782 3.33344 19.0223 3.33344C17.2174 3.33344 15.7573 4.54743 15.7573 7.5104C15.7573 9.44455 16.5279 11.6874 19.1237 11.6874C20.016 11.6874 21.3139 11.0289 21.8209 9.8355L24.437 11.0906C23.3013 13.1483 21.3545 14.4651 19.1237 14.4651C14.9258 14.4651 12.4517 11.2141 12.4517 7.5104C12.4517 3.80669 14.7433 0.555664 18.8601 0.555664C21.4559 0.555664 23.1594 1.81081 24.3761 3.99188L21.7601 5.30875Z" fill="#C5CDDB"/>
<path d="M24.0315 0.926025H30.6224C33.5833 0.926025 35.3881 2.28405 35.3881 5.24701C35.3881 6.95483 34.3133 8.31286 32.6707 8.80668L35.6923 14.0947H32.0014L29.4056 9.36224H27.3168V14.0947H24.0112V0.926025H24.0315ZM27.3168 6.91368H30.3385C31.393 6.8931 32.1028 6.35812 32.1028 5.14413C32.1028 3.93014 31.393 3.39516 30.3385 3.37458H27.3168V6.91368Z" fill="#C5CDDB"/>
<path d="M35.3271 14.0947V0.926025H45.0209V3.47747H38.6125V5.88487H44.595V8.43631H38.6125V11.5433H45.5887V14.0947H35.3271Z" fill="#C5CDDB"/>
<path d="M47.7793 10.3705C49.0164 11.4816 50.1926 12.14 51.8758 12.14C52.8087 12.14 54.5324 11.7285 54.5324 10.5145C54.5324 9.79435 53.9849 9.44455 52.9303 9.25937L49.9695 8.78612C47.3331 8.37459 45.8933 6.97542 45.8933 4.87665C45.8933 1.44044 48.6716 0.0412598 51.6933 0.0412598C54.0457 0.0412598 56.3779 0.987762 57.9597 2.77789L55.2625 4.71204C54.3296 3.58035 52.9506 2.92192 51.4499 2.92192C50.6185 2.92192 49.422 3.43632 49.422 4.36225C49.422 5.12356 50.0506 5.49393 51.3891 5.72027L52.7478 5.94661C55.587 6.39928 57.9192 7.28406 57.9192 10.0001C57.9192 14.2594 54.066 15.0618 51.4094 15.0618C48.9961 15.0618 46.9275 14.2799 45.001 12.1812L47.7793 10.3705Z" fill="#C5CDDB"/>
</svg>
