<svg width="67" height="38" viewBox="0 0 67 38" fill="none" xmlns="http://www.w3.org/2000/svg">
<path d="M31.6173 23.8399C30.6223 24.2213 29.6375 24.3129 29.14 24.3129C28.1704 24.3129 27.7389 23.7381 27.9546 22.3699L31.4041 0.806641H24.726L21.0963 23.5601C20.9897 24.2086 20.9517 24.7834 20.9517 25.3581C20.9517 28.0208 22.2081 29.7476 26.0865 29.7476C27.5155 29.7476 29.14 29.5518 30.805 28.949L31.6173 23.8399Z" fill="#79A83D"/>
<path d="M52.3032 9.96194H44.2596C44.5464 8.16394 45.054 5.9921 47.94 5.59029C48.8284 5.46567 51.5773 5.59537 52.7245 5.9921L53.3997 1.73997C52.2169 1.23643 49.0898 0.806641 47.2953 0.806641C40.6299 0.806641 38.7541 4.7892 37.6551 9.96194H33.8198L33.0888 14.5676H36.9901C36.9901 14.5676 35.1575 25.8667 34.5305 29.6891C34.3123 31.0141 32.8274 31.5964 30.1293 32.2933L29.2688 37.7076C36.2362 37.4075 40.1578 34.5465 41.1756 28.5421C41.9345 24.0586 43.5412 14.5701 43.5412 14.5701H51.3463L49.0136 29.3559H55.6562L58.7071 9.96194C54.1459 10.0713 51.9199 12.2787 51.9199 12.2787L52.3032 9.96194Z" fill="#79A83D"/>
<path d="M13.065 12.2765L13.2554 11.1321L13.2326 11.1829C12.6944 10.4988 11.3289 9.63672 9.212 9.63672C2.92736 9.63926 0.0185547 15.8242 0.0185547 21.6531C0.0185547 26.9758 2.35118 29.7097 6.01384 29.7097C8.7069 29.7097 10.0699 28.6314 11.1487 27.5862C12.3899 29.5902 14.258 29.7453 16.1642 29.7453L19.2989 9.99022C15.1159 10.2572 13.065 12.2765 13.065 12.2765ZM10.4304 24.1352C9.96332 24.4225 9.35414 24.6031 8.77797 24.6031C7.48601 24.6031 6.8743 23.3442 6.8743 21.2207C6.8743 19.1353 7.52155 14.5297 10.3212 14.5297C10.8948 14.5297 11.4355 14.7459 11.9 15.1045L10.4304 24.1352Z" fill="#79A83D"/>
<path d="M63.4287 29.7455C65.4011 29.7455 67 28.1435 67 26.1673C67 24.1911 65.4011 22.5891 63.4287 22.5891C61.4563 22.5891 59.8574 24.1911 59.8574 26.1673C59.8574 28.1435 61.4563 29.7455 63.4287 29.7455Z" fill="#FFA80D"/>
</svg>
