<svg width="52" height="57" viewBox="0 0 52 57" fill="none" xmlns="http://www.w3.org/2000/svg">
<path d="M25.4398 0C16.6392 0 9.50024 7.27968 9.50024 16.2539C9.50024 25.228 16.6392 32.5077 25.4398 32.5077C34.2404 32.5077 41.3794 25.228 41.3794 16.2539C41.3794 7.27968 34.2514 0 25.4398 0ZM19.1864 8.12693H34.4154L32.9504 10.8359H17.7215L19.1864 8.12693ZM33.1691 21.6941H20.9793L19.5144 24.4142H16.4642L19.4051 18.9851H34.6449L33.1691 21.6941ZM36.1099 16.265H17.8308L16.3658 18.974H13.3266L16.2674 13.5449H37.5858L36.1099 16.265Z" fill="black"/>
<path d="M0 46.0748L1.12604 37.9702H7.31383L7.02958 40.0215H3.08296L2.91897 41.2254H6.75627L6.47203 43.2321H2.64566L2.25209 46.0748H0Z" fill="black"/>
<path d="M7.29199 46.0748L8.41804 37.959H10.6701L9.54408 46.0748H7.29199Z" fill="black"/>
<path d="M13.1954 46.0748L14.0372 40.0102H11.3696L11.6539 37.959H19.2519L18.9677 40.0102H16.3002L15.4584 46.0859L13.1954 46.0748Z" fill="black"/>
<path d="M19.0881 46.0748L20.2141 37.9702H22.5209L25.1447 42.4294L25.7678 37.9702H27.9106L26.7845 46.086H24.7074L21.8868 41.3369L21.2308 46.086H19.0771L19.0881 46.0748Z" fill="black"/>
<path d="M27.998 46.0748L29.1241 37.9702H35.5305L35.2463 40.0215H31.0919L30.9607 41.0025H35.0058L34.7324 42.9757H30.6874L30.5344 44.1128H34.7324L34.4591 46.086L27.998 46.0748Z" fill="black"/>
<path d="M49.7099 41.415C49.2289 41.259 48.6713 41.1363 48.0044 41.0583C47.6218 41.0026 47.2829 40.958 47.0314 40.9245C46.78 40.8911 46.5941 40.813 46.4739 40.7461C46.3536 40.657 46.3099 40.5455 46.3318 40.3894C46.3536 40.2556 46.3974 40.1553 46.463 40.0661C46.5286 39.9769 46.6597 39.9212 46.8565 39.8766C47.0424 39.832 47.3266 39.8097 47.7093 39.8097C47.9935 39.8097 48.2778 39.8432 48.562 39.8989C48.8462 39.9546 49.1196 40.0327 49.3601 40.133C49.6006 40.2222 49.7755 40.3225 49.9176 40.4229L50.9999 38.4274C50.9015 38.3716 50.8032 38.327 50.6829 38.2713C50.3987 38.1486 50.0269 38.0372 49.5787 37.948C49.1305 37.8588 48.6057 37.8142 48.0044 37.8142C47.1845 37.8142 46.5067 37.9034 45.971 38.0595C45.4134 38.2267 44.9871 38.5054 44.681 38.8844C44.3749 39.2746 44.1781 39.7874 44.0906 40.4229C44.0031 41.0248 44.0687 41.4931 44.2655 41.8387C44.4623 42.1842 44.8121 42.4407 45.2932 42.6079C45.7742 42.7751 46.4083 42.9089 47.1736 42.9981C47.7311 43.0538 48.1466 43.1318 48.398 43.2099C48.6604 43.2991 48.7806 43.4328 48.7588 43.6223C48.7478 43.7673 48.6167 44.1017 48.1903 44.2243C47.8514 44.3247 46.6597 44.4027 45.5774 44.0571C45.0964 43.901 44.6919 43.6892 44.3202 43.3994L43.3035 45.2834C44.6372 45.9969 46.0694 46.1418 46.8347 46.1641C48.07 46.2087 48.7806 46.008 49.1523 45.8854C49.7427 45.6959 50.1691 45.3614 50.4424 44.9601C50.7157 44.5588 50.9015 44.0794 50.9671 43.522C51.0546 42.9089 50.9781 42.4407 50.7594 42.1062C50.5298 41.8052 50.1909 41.5711 49.7099 41.415Z" fill="black"/>
<path d="M41.8058 41.415C41.3248 41.259 40.7673 41.1363 40.1004 41.0583C39.7177 41.0026 39.3788 40.958 39.1274 40.9245C38.8759 40.8911 38.6901 40.813 38.5698 40.7461C38.4496 40.657 38.4058 40.5455 38.4277 40.3894C38.4496 40.2556 38.4933 40.1553 38.5589 40.0661C38.6245 39.9769 38.7557 39.9212 38.9525 39.8766C39.1383 39.832 39.4226 39.8097 39.8052 39.8097C40.0894 39.8097 40.3737 39.8432 40.6579 39.8989C40.9422 39.9546 41.2155 40.0327 41.456 40.133C41.6965 40.2222 41.8714 40.3225 42.0135 40.4229L43.0959 38.4274C42.9975 38.3716 42.8991 38.327 42.7788 38.2713C42.4946 38.1486 42.1229 38.0372 41.6746 37.948C41.2264 37.8588 40.7017 37.8142 40.1004 37.8142C39.2804 37.8142 38.6026 37.9034 38.0669 38.0595C37.5094 38.2267 37.083 38.5054 36.7769 38.8844C36.4708 39.2746 36.274 39.7874 36.1866 40.4229C36.0991 41.0248 36.1647 41.4931 36.3615 41.8387C36.5583 42.1842 36.9081 42.4407 37.3891 42.6079C37.8702 42.7751 38.5042 42.9089 39.2695 42.9981C39.8271 43.0538 40.2425 43.1318 40.4939 43.2099C40.7563 43.2991 40.8766 43.4328 40.8547 43.6223C40.8438 43.7673 40.7126 44.1017 40.2862 44.2243C39.9473 44.3247 38.7557 44.4027 37.6734 44.0571C37.1923 43.901 36.7878 43.6892 36.4161 43.3994L35.3994 45.2834C36.7332 45.9969 38.1653 46.1418 38.9306 46.1641C40.166 46.2087 40.8766 46.008 41.2483 45.8854C41.8386 45.6959 42.265 45.3614 42.5383 44.9601C42.8116 44.5588 42.9975 44.0794 43.0631 43.522C43.1505 42.9089 43.074 42.4407 42.8554 42.1062C42.6367 41.8052 42.2869 41.5711 41.8058 41.415Z" fill="black"/>
<path d="M9.5332 56.9332L10.6592 48.8174H14.6933C15.6117 48.8285 16.3113 48.94 16.7814 49.1964C17.2406 49.4417 17.5467 49.7761 17.6888 50.1997C17.831 50.6234 17.8419 51.125 17.7544 51.6713C17.7107 52.0838 17.6014 52.4739 17.4592 52.8418C17.3171 53.2097 17.0875 53.5219 16.7814 53.8117C16.4863 54.0904 16.1036 54.3022 15.6007 54.4694C15.1088 54.6255 14.4965 54.7036 13.7641 54.7036H12.0477L11.7416 56.922H9.55507L9.5332 56.9332ZM12.2991 52.8195L14.1139 52.8307C14.5731 52.8307 14.901 52.7526 15.1088 52.5966C15.3274 52.4405 15.4586 52.1729 15.4914 51.7939C15.557 51.3926 15.5023 51.125 15.3383 50.9578C15.1853 50.8017 14.8573 50.7237 14.3982 50.7348H12.5943L12.2991 52.8195Z" fill="black"/>
<path d="M16.4644 56.911L20.8155 48.7395H23.1004L25.2103 56.911H22.8817L22.6193 55.8631H19.1865L18.6399 56.911H16.4644ZM20.1814 53.9902L22.1711 54.0014L21.537 51.415L20.1814 53.9902Z" fill="black"/>
<path d="M40.0676 52.2288C39.5865 52.0727 39.029 51.95 38.3621 51.872C37.9795 51.8163 37.6406 51.7717 37.3891 51.7382C37.1377 51.7048 36.9518 51.6268 36.8316 51.5599C36.7113 51.4707 36.6676 51.3592 36.6894 51.2031C36.7113 51.0694 36.755 50.969 36.8206 50.8798C36.8862 50.7907 37.0174 50.7349 37.2142 50.6903C37.4 50.6457 37.6843 50.6234 38.0669 50.6234C38.3512 50.6234 38.6354 50.6569 38.9197 50.7126C39.2039 50.7684 39.4772 50.8464 39.7177 50.9467C39.9583 51.0359 40.1332 51.1362 40.2753 51.2366L41.3576 49.2411C41.2592 49.1853 41.1608 49.1407 41.0406 49.085C40.7563 48.9624 40.3846 48.8509 39.9364 48.7617C39.4882 48.6725 38.9634 48.6279 38.3621 48.6279C37.5422 48.6279 36.8644 48.7171 36.3287 48.8732C35.7711 49.0404 35.3447 49.3191 35.0386 49.6981C34.7325 50.0883 34.5357 50.6011 34.4483 51.2366C34.3608 51.8386 34.4264 52.3068 34.6232 52.6524C34.82 52.998 35.1698 53.2544 35.6508 53.4216C36.1319 53.5888 36.766 53.7226 37.5312 53.8118C38.0888 53.8675 38.5042 53.9456 38.7557 54.0236C39.0181 54.1128 39.1383 54.2465 39.1164 54.4361C39.1055 54.581 38.9743 54.9154 38.548 55.0381C38.2091 55.1384 37.0174 55.2164 35.9351 54.8708C35.4541 54.7148 35.0496 54.503 34.6779 54.2131L33.6611 56.0971C34.9949 56.8106 36.4271 56.9555 37.1923 56.9778C38.4277 57.0224 39.1383 56.8218 39.51 56.6991C40.1004 56.5096 40.5267 56.1752 40.8001 55.7738C41.0734 55.3725 41.2592 54.8931 41.3248 54.3357C41.4123 53.7226 41.3357 53.2544 41.1171 52.9199C40.8875 52.6189 40.5377 52.3848 40.0676 52.2288Z" fill="black"/>
<path d="M32.0542 52.2288C31.5731 52.0727 31.0156 51.95 30.3487 51.872C29.966 51.8163 29.6271 51.7717 29.3757 51.7382C29.1242 51.7048 28.9384 51.6268 28.8181 51.5599C28.6979 51.4707 28.6541 51.3592 28.676 51.2031C28.6979 51.0694 28.7416 50.969 28.8072 50.8798C28.8728 50.7907 29.004 50.7349 29.2008 50.6903C29.3866 50.6457 29.6709 50.6234 30.0535 50.6234C30.3377 50.6234 30.622 50.6569 30.9062 50.7126C31.1905 50.7684 31.4638 50.8464 31.7043 50.9467C31.9448 51.0359 32.1197 51.1362 32.2619 51.2366L33.3442 49.2411C33.2458 49.1853 33.1474 49.1407 33.0271 49.085C32.7429 48.9624 32.3712 48.8509 31.923 48.7617C31.4747 48.6725 30.95 48.6279 30.3487 48.6279C29.5287 48.6279 28.8509 48.7171 28.3152 48.8732C27.7577 49.0404 27.3313 49.3191 27.0252 49.6981C26.7191 50.0883 26.5223 50.6011 26.4348 51.2366C26.3474 51.8386 26.413 52.3068 26.6098 52.6524C26.8065 52.998 27.1564 53.2544 27.6374 53.4216C28.1184 53.5888 28.7525 53.7226 29.5178 53.8118C30.0754 53.8675 30.4908 53.9456 30.7423 54.0236C31.0046 54.1128 31.1249 54.2465 31.103 54.4361C31.0921 54.581 30.9609 54.9154 30.5345 55.0381C30.1956 55.1384 29.004 55.2164 27.9217 54.8708C27.4406 54.7148 27.0361 54.503 26.6644 54.2131L25.6477 56.0971C26.9815 56.8106 28.4136 56.9555 29.1789 56.9778C30.4143 57.0224 31.1249 56.8218 31.4966 56.6991C32.0869 56.5096 32.5133 56.1752 32.7866 55.7738C33.0599 55.3725 33.2458 54.8931 33.3114 54.3357C33.3988 53.7226 33.3223 53.2544 33.1037 52.9199C32.885 52.6189 32.5352 52.3848 32.0542 52.2288Z" fill="black"/>
</svg>
