<svg width="40" height="40" viewBox="0 0 40 40" fill="none" xmlns="http://www.w3.org/2000/svg">
<path d="M40 0H0V40H40V0Z" fill="#12100E"/>
<path d="M9.53837 13.3744C9.5794 13.0461 9.43581 12.7179 9.18966 12.4923L6.7076 9.47692V9.02563H14.5025L20.5332 22.2359L25.805 9.02563H33.2307V9.47692L31.0768 11.5282C30.8922 11.6718 30.8102 11.8974 30.8307 12.1231V27.241C30.7897 27.4667 30.8922 27.6923 31.0768 27.8359L33.1691 29.8872V30.3385H22.6256V29.8872L24.7999 27.7744C25.005 27.5692 25.005 27.5077 25.005 27.1795V14.9744L18.9743 30.2974H18.1538L11.1589 14.9744V25.2513C11.0973 25.682 11.2409 26.1128 11.5486 26.4205L14.3589 29.8667V30.3179H6.35889V29.8667L9.18966 26.441C9.49735 26.1333 9.62042 25.682 9.55889 25.2718V13.3744H9.53837Z" fill="white"/>
</svg>
