<svg width="120" height="54" viewBox="0 0 120 54" fill="none" xmlns="http://www.w3.org/2000/svg">
<path d="M54.7381 19.5679H57.8408L52.9142 34.202H49.5599L44.6333 19.5679H47.736L50.4614 28.2856C50.6081 28.8083 50.7759 29.3936 50.9226 30.0835C51.0903 30.7734 51.1951 31.2334 51.2161 31.5051C51.279 30.8989 51.5306 29.8118 51.9499 28.2856L54.7381 19.5679ZM63.2287 34.4111C61.4467 34.4111 60.0421 33.9093 59.0358 32.9267C58.0295 31.9233 57.5264 30.5226 57.5264 28.7038C57.5264 26.8222 57.9876 25.3797 58.91 24.3553C59.8325 23.3309 61.1323 22.8083 62.7675 22.8083C64.3398 22.8083 65.5557 23.2682 66.4362 24.1672C67.3167 25.0661 67.736 26.3205 67.736 27.9093V29.3937H60.5872C60.6291 30.2717 60.8807 30.9407 61.3419 31.4215C61.8241 31.9024 62.4949 32.1532 63.3545 32.1532C64.0253 32.1532 64.6543 32.0905 65.2413 31.9442C65.8283 31.7978 66.4572 31.5888 67.1071 31.2752V33.6375C66.583 33.9093 66.017 34.0975 65.409 34.2438C64.822 34.3484 64.0882 34.4111 63.2287 34.4111ZM62.8094 24.9616C62.1595 24.9616 61.6564 25.1707 61.3 25.5679C60.9436 25.986 60.7339 26.5714 60.671 27.324H64.9058C64.8849 26.5714 64.6962 25.986 64.3188 25.5679C63.9415 25.1707 63.4383 24.9616 62.8094 24.9616ZM79.6228 34.202H76.604V27.6585C76.604 26.8431 76.4572 26.2369 76.1847 25.8396C75.8912 25.4424 75.4509 25.2334 74.822 25.2334C73.9834 25.2334 73.3545 25.5261 72.9771 26.0905C72.5998 26.655 72.4111 27.6166 72.4111 28.9337V34.202H69.3922V22.9964H71.6983L72.0966 24.4389H72.2643C72.5998 23.8954 73.061 23.4982 73.648 23.2055C74.235 22.9337 74.9058 22.7874 75.6606 22.7874C76.9394 22.7874 77.9247 23.1428 78.5956 23.8536C79.2664 24.5644 79.6019 25.5679 79.6019 26.9058V34.202H79.6228ZM86.604 31.9651C87.1281 31.9651 87.757 31.8396 88.5117 31.6097V33.8884C87.757 34.2229 86.8346 34.3902 85.7444 34.3902C84.5285 34.3902 83.648 34.0766 83.1029 33.4703C82.5578 32.8431 82.2853 31.9233 82.2853 30.6898V25.2961H80.8388V23.9999L82.4949 22.9755L83.3755 20.6132H85.3042V22.9964H88.4069V25.2961H85.3042V30.6898C85.3042 31.1288 85.43 31.4424 85.6606 31.6515C85.8912 31.8605 86.2056 31.9651 86.604 31.9651ZM97.7989 34.202L97.4006 32.7804H97.2329C96.9184 33.3031 96.4572 33.7003 95.8492 33.993C95.2622 34.2856 94.5704 34.4111 93.8157 34.4111C92.5159 34.4111 91.5306 34.0557 90.8807 33.3449C90.2098 32.6341 89.8954 31.6306 89.8954 30.3135V23.0173H92.9142V29.5609C92.9142 30.3762 93.061 30.9825 93.3335 31.3797C93.627 31.7769 94.0673 31.986 94.6962 31.986C95.5348 31.986 96.1637 31.6933 96.5411 31.1288C96.9184 30.5644 97.1071 29.6027 97.1071 28.2856V23.0173H100.126V34.2229H97.7989V34.202ZM108.658 22.7874C109.078 22.7874 109.413 22.8083 109.686 22.871L109.455 25.7351C109.204 25.6724 108.91 25.6306 108.554 25.6306C107.589 25.6306 106.835 25.8815 106.289 26.3832C105.744 26.8849 105.472 27.5748 105.472 28.4947V34.202H102.453V22.9964H104.738L105.178 24.878H105.325C105.661 24.2508 106.143 23.7491 106.709 23.3518C107.338 22.9964 107.967 22.7874 108.658 22.7874ZM115.493 34.4111C113.711 34.4111 112.306 33.9093 111.3 32.9267C110.294 31.9233 109.791 30.5226 109.791 28.7038C109.791 26.8222 110.252 25.3797 111.174 24.3553C112.097 23.3309 113.396 22.8083 115.032 22.8083C116.604 22.8083 117.82 23.2682 118.7 24.1672C119.581 25.0661 120 26.3205 120 27.9093V29.3937H112.851C112.893 30.2717 113.145 30.9407 113.606 31.4215C114.088 31.9024 114.759 32.1532 115.619 32.1532C116.289 32.1532 116.918 32.0905 117.505 31.9442C118.092 31.7978 118.721 31.5888 119.371 31.2752V33.6375C118.847 33.9093 118.281 34.0975 117.673 34.2438C117.086 34.3484 116.352 34.4111 115.493 34.4111ZM115.074 24.9616C114.424 24.9616 113.921 25.1707 113.564 25.5679C113.208 25.986 112.998 26.5714 112.935 27.324H117.191C117.17 26.5714 116.981 25.986 116.604 25.5679C116.227 25.1707 115.703 24.9616 115.074 24.9616ZM55.1784 49.7142C55.1784 51.0313 54.7172 52.0766 53.7738 52.8501C52.8304 53.6236 51.5306 53.9999 49.8534 53.9999C48.323 53.9999 46.9603 53.7072 45.7654 53.1219V50.2368C46.7297 50.6759 47.5683 50.9895 48.2392 51.1776C48.91 51.3658 49.539 51.4494 50.084 51.4494C50.7549 51.4494 51.279 51.3239 51.6354 51.0522C51.9918 50.8013 52.1805 50.4041 52.1805 49.8814C52.1805 49.5888 52.0966 49.3379 51.9499 49.1079C51.7821 48.878 51.5515 48.6689 51.258 48.4598C50.9436 48.2508 50.3356 47.9163 49.3922 47.4564C48.5117 47.0382 47.8408 46.641 47.4006 46.2438C46.9603 45.8466 46.604 45.4076 46.3524 44.8849C46.0798 44.3623 45.9541 43.7769 45.9541 43.087C45.9541 41.7909 46.3943 40.7665 47.2538 40.0348C48.1134 39.3031 49.3084 38.9267 50.8388 38.9267C51.5935 38.9267 52.3063 39.0104 52.9771 39.1985C53.648 39.3867 54.3608 39.6375 55.1155 39.9511L54.1302 42.3762C53.3545 42.0626 52.7255 41.8327 52.2224 41.7072C51.7193 41.5818 51.2161 41.5191 50.7339 41.5191C50.1469 41.5191 49.7067 41.6654 49.3922 41.9372C49.0777 42.209 48.931 42.5644 48.931 43.0034C48.931 43.2752 48.9939 43.526 49.1197 43.7142C49.2455 43.9233 49.4341 44.1114 49.7067 44.2996C49.9792 44.4877 50.6291 44.8431 51.6564 45.324C52.9981 45.972 53.9205 46.641 54.4237 47.2891C54.9268 47.9581 55.1784 48.7734 55.1784 49.7142ZM61.4048 51.5748C61.9289 51.5748 62.5578 51.4494 63.2916 51.2194V53.4773C62.5369 53.8118 61.6144 53.979 60.5243 53.979C59.3293 53.979 58.4488 53.6654 57.9037 53.0591C57.3587 52.4529 57.0861 51.533 57.0861 50.2996V44.9267H55.6396V43.6515L57.2958 42.6271L58.1553 40.2647H60.084V42.648H63.1658V44.9267H60.084V50.2996C60.084 50.7386 60.2098 51.0522 60.4404 51.2612C60.692 51.4703 61.0065 51.5748 61.4048 51.5748ZM72.5369 53.7908L72.1385 52.3692H71.9708C71.6564 52.8919 71.1951 53.2891 70.6081 53.5609C70.0211 53.8536 69.3503 53.979 68.5746 53.979C67.2748 53.979 66.3105 53.6236 65.6396 52.9337C64.9897 52.2229 64.6543 51.2194 64.6543 49.9023V42.648H67.6731V49.1497C67.6731 49.9442 67.8199 50.5504 68.0924 50.9685C68.365 51.3658 68.8262 51.5748 69.4551 51.5748C70.2937 51.5748 70.9016 51.2821 71.279 50.7177C71.6564 50.1532 71.8451 49.2125 71.8451 47.8954V42.648H74.843V53.7908H72.5369ZM80.692 53.9999C79.3922 53.9999 78.3859 53.4982 77.6312 52.4738C76.8975 51.4494 76.5201 50.0487 76.5201 48.2508C76.5201 46.432 76.8975 45.0104 77.6522 43.986C78.4069 42.9616 79.4341 42.4598 80.7759 42.4598C82.1595 42.4598 83.2287 43.0034 83.9625 44.0905H84.0673C83.9205 43.2543 83.8367 42.5226 83.8367 41.8745V37.8814H86.8555V53.8118H84.5494L83.9625 52.3692H83.8367C83.1239 53.4564 82.0757 53.9999 80.692 53.9999ZM81.7402 51.5748C82.5159 51.5748 83.0819 51.3449 83.4383 50.9058C83.7947 50.4459 83.9834 49.6933 84.0253 48.6062V48.2717C84.0253 47.08 83.8367 46.2229 83.4803 45.7003C83.1239 45.1776 82.5159 44.9267 81.6983 44.9267C81.0274 44.9267 80.5033 45.2194 80.126 45.7839C79.7486 46.3483 79.5599 47.1846 79.5599 48.2926C79.5599 49.3797 79.7486 50.2159 80.126 50.7595C80.5033 51.303 81.0484 51.5748 81.7402 51.5748ZM92.1805 53.7908H89.1616V42.648H92.1805V53.7908ZM104.57 48.209C104.57 50.0278 104.088 51.4494 103.145 52.4738C102.201 53.4982 100.881 53.9999 99.1826 53.9999C98.1134 53.9999 97.191 53.7699 96.3734 53.2891C95.5557 52.8292 94.9478 52.1393 94.5075 51.2612C94.0673 50.3832 93.8576 49.3588 93.8576 48.1881C93.8576 46.3692 94.3188 44.9476 95.2622 43.9442C96.2056 42.9407 97.5264 42.4389 99.2245 42.4389C100.294 42.4389 101.216 42.6689 102.034 43.1288C102.851 43.5888 103.459 44.2578 103.9 45.1358C104.34 46.0138 104.57 47.0382 104.57 48.209ZM96.9394 48.209C96.9394 49.317 97.1281 50.1532 97.4845 50.7177C97.8409 51.2821 98.4279 51.5748 99.2455 51.5748C100.042 51.5748 100.629 51.303 100.986 50.7386C101.342 50.1741 101.51 49.3379 101.51 48.2299C101.51 47.1219 101.342 46.3065 100.986 45.7421C100.629 45.1985 100.042 44.9058 99.2455 44.9058C98.4488 44.9058 97.8618 45.1776 97.5054 45.7212C97.1071 46.2647 96.9394 47.101 96.9394 48.209ZM89.0987 39.3449C89.0987 38.3623 89.6228 37.8605 90.671 37.8605C91.7193 37.8605 92.2434 38.3623 92.2434 39.3449C92.2434 39.8257 92.1176 40.1811 91.8451 40.4529C91.5935 40.7247 91.1952 40.8501 90.671 40.8501C89.6228 40.8501 89.0987 40.3483 89.0987 39.3449Z" fill="#2E3849"/>
<path d="M105.556 52.4948C105.556 51.5122 106.08 51.0104 107.128 51.0104C108.176 51.0104 108.7 51.5122 108.7 52.4948C108.7 52.9756 108.575 53.331 108.302 53.6028C108.05 53.8745 107.652 54 107.128 54C106.08 54 105.556 53.4982 105.556 52.4948Z" fill="#0081EB"/>
<path d="M0 0L19.0566 33.3031L38.1132 0H0Z" fill="#5BADF1"/>
<path d="M19.0566 0H38.1132L28.5745 16.662L19.0566 0Z" fill="#0081EB"/>
<path d="M47.9035 12.5645H53.2075V14.6759H46.9811C46.2893 14.6759 45.7861 14.1115 45.7861 13.4843V0H47.9035V12.5645ZM57.4423 0H56.5199V14.6759H58.6373V1.19164C58.6373 0.56446 58.1132 0 57.4423 0ZM87.6939 9.05226C87.6939 11.0383 86.1006 12.5854 84.088 12.5854C82.0755 12.5854 80.5031 10.9756 80.5031 9.05226V0H78.3857V8.98954C78.3857 10.7456 79.1824 12.3554 80.5031 13.3589C81.4675 14.1533 82.7253 14.6132 84.109 14.6132C85.4926 14.6132 86.7295 14.1533 87.7149 13.3589C89.0356 12.3345 89.8323 10.7456 89.8323 8.98954V0H87.7149V9.05226H87.6939ZM109.518 7.35888C109.518 11.3728 106.205 14.6759 102.096 14.6759H99.1195C98.4277 14.6759 97.9245 14.1115 97.9245 13.4843V1.19164C97.9245 0.501742 98.4905 0 99.1195 0H102.096C106.143 0 109.455 3.28223 109.518 7.35888ZM107.4 7.31707C107.4 4.43205 105.01 2.1115 102.096 2.1115H100.042V12.5435H102.096C104.99 12.5226 107.338 10.2021 107.4 7.31707ZM75.9958 7.4425C75.9958 9.32404 75.262 11.0801 74.0461 12.3972L74.9685 15.3031C75.0734 15.5958 74.9685 15.993 74.675 16.223C74.3815 16.3902 73.9832 16.3902 73.7107 16.1603L71.1949 14.216C70.4612 14.5087 69.6017 14.6759 68.6792 14.6759C64.5702 14.6759 61.2578 11.3728 61.2578 7.33797C61.2578 3.30313 64.5702 0 68.6792 0C72.7882 0 76.1006 3.30313 75.9958 7.4425ZM74.0042 7.33797C74.0042 4.43205 71.6142 2.1115 68.7002 2.1115C65.7232 2.1115 63.3962 4.45296 63.3962 7.33797C63.3962 10.2439 65.7861 12.5645 68.7002 12.5645C71.5933 12.5645 74.0042 10.2439 74.0042 7.33797ZM93.7526 0H92.8302V14.6759H94.9476V1.19164C94.9476 0.56446 94.3815 0 93.7526 0Z" fill="#0081EB"/>
</svg>
