<svg width="71" height="25" viewBox="0 0 71 25" fill="none" xmlns="http://www.w3.org/2000/svg">
<path d="M0.343031 4.70044H3.68386C3.87029 4.70044 4.02689 4.85638 4.02689 5.04202V12.3118H10.9099V5.04202C10.9099 4.85638 11.0665 4.70044 11.2529 4.70044H14.5937C14.7802 4.70044 14.9368 4.85638 14.9368 5.04202V23.3242C14.9368 23.5098 14.7802 23.6658 14.5937 23.6658H11.2529C11.0665 23.6658 10.9099 23.5098 10.9099 23.3242V16.0098H4.01943V23.3242C4.01943 23.5098 3.86283 23.6658 3.6764 23.6658H0.343031C0.156601 23.6658 0 23.5098 0 23.3242V5.04202C0 4.84895 0.156601 4.70044 0.343031 4.70044Z" fill="#895FDB"/>
<path d="M25.6975 22.0321H25.6453C25.2128 22.7301 24.646 23.2276 23.9301 23.5321C23.2142 23.8365 22.461 23.985 21.6706 23.985C21.0889 23.985 20.5222 23.9034 19.9778 23.7326C19.4334 23.5618 18.9562 23.3093 18.546 22.9677C18.1359 22.6261 17.8078 22.2103 17.5691 21.7053C17.3305 21.2078 17.2112 20.6286 17.2112 19.9677C17.2112 19.2177 17.3454 18.5865 17.6139 18.0667C17.8823 17.5469 18.2403 17.1237 18.6952 16.7821C19.1501 16.4405 19.6721 16.1806 20.2537 15.9949C20.8354 15.8093 21.4469 15.6682 22.0733 15.5791C22.6997 15.49 23.3261 15.438 23.9525 15.4157C24.5789 15.4009 25.1606 15.386 25.69 15.386C25.69 14.6732 25.4439 14.1014 24.9518 13.6855C24.4596 13.2697 23.8779 13.0543 23.2142 13.0543C22.5804 13.0543 21.9987 13.1954 21.4767 13.4702C21.0516 13.693 20.6713 13.9826 20.3208 14.339C20.1791 14.4801 19.9554 14.4875 19.8212 14.339L18.2477 12.6608C18.121 12.5197 18.121 12.2969 18.2626 12.1781C18.9263 11.5989 19.6795 11.1534 20.5371 10.8489C21.4991 10.4999 22.4983 10.3291 23.5274 10.3291C24.6609 10.3291 25.5931 10.4776 26.3239 10.7746C27.0547 11.0717 27.6363 11.5024 28.0763 12.0742C28.5163 12.6459 28.822 13.344 28.9935 14.1756C29.1651 15.0073 29.2546 15.9652 29.2546 17.0568V23.3316C29.2546 23.5172 29.098 23.6732 28.9115 23.6732H26.0405C25.8541 23.6732 25.6975 23.5172 25.6975 23.3316V22.0321ZM24.7429 17.9553C24.4521 17.9553 24.0867 17.9702 23.6467 17.9925C23.2068 18.0222 22.7892 18.0964 22.3865 18.2227C21.9838 18.3489 21.6408 18.5345 21.3574 18.787C21.074 19.0395 20.9323 19.4256 20.9323 19.8341C20.9249 20.8885 21.8123 21.2746 22.5729 21.3043C23.6318 21.3489 24.5267 20.8291 24.8026 20.636C25.0785 20.443 25.2948 20.1905 25.4588 19.886C25.6229 19.5816 25.7049 19.2251 25.7049 18.8167V17.9628H24.7429V17.9553Z" fill="#895FDB"/>
<path d="M44.8327 23.6658H41.2756V21.9504H41.2234C40.8505 22.6188 39.5903 23.9851 37.3829 23.9851C35.8989 23.9851 34.2285 23.5915 32.9086 22.099C32.3791 21.49 31.9466 20.792 31.6558 19.9678C31.365 19.1435 31.2158 18.245 31.2158 17.2648C31.2158 16.3514 31.35 15.4826 31.6185 14.6509C31.887 13.8192 32.2598 13.0841 32.752 12.4381C33.2442 11.792 33.8408 11.2796 34.5417 10.9009C35.2502 10.5148 36.0481 10.3217 36.943 10.3217C39.2994 10.3217 40.5672 11.6287 40.9177 12.0371H40.9699V5.04202C40.9699 4.85638 41.1265 4.70044 41.3129 4.70044H44.4971C44.6835 4.70044 44.8401 4.85638 44.8401 5.04202V23.6658H44.8327ZM41.2681 17.1534C41.2681 16.1732 40.9997 15.3787 40.4553 14.7697C39.9109 14.1608 39.1503 13.7004 38.1734 13.7004C37.1965 13.7004 36.4359 14.1608 35.8915 14.7697C35.3471 15.3787 35.0787 16.1732 35.0787 17.1534C35.0787 18.1336 35.3471 18.9282 35.8915 19.5371C36.4359 20.146 37.1294 20.5692 38.1137 20.5692C39.0906 20.5692 39.9184 20.146 40.4553 19.5371C40.9997 18.9282 41.2681 18.1336 41.2681 17.1534Z" fill="#895FDB"/>
<path d="M55.2876 22.0321H55.2354C54.8028 22.7301 54.2361 23.2276 53.5202 23.5321C52.8043 23.8365 52.0511 23.985 51.2607 23.985C50.679 23.985 50.1123 23.9034 49.5679 23.7326C49.0235 23.5618 48.5463 23.3093 48.1361 22.9677C47.726 22.6261 47.3978 22.2103 47.1592 21.7053C46.9206 21.2078 46.8013 20.6286 46.8013 19.9677C46.8013 19.2177 46.9355 18.5865 47.204 18.0667C47.4724 17.5469 47.8304 17.1237 48.2853 16.7821C48.7401 16.4405 49.2621 16.1806 49.8438 15.9949C50.4255 15.8093 51.037 15.6682 51.6634 15.5791C52.2898 15.49 52.9162 15.438 53.5426 15.4157C54.169 15.4009 54.7506 15.386 55.2801 15.386C55.2801 14.6732 55.034 14.1014 54.5418 13.6855C54.0497 13.2697 53.468 13.0543 52.8043 13.0543C52.1705 13.0543 51.5888 13.1954 51.0668 13.4702C50.6417 13.693 50.2614 13.9826 49.9109 14.339C49.7692 14.4801 49.5455 14.4875 49.4113 14.339L47.8378 12.6608C47.711 12.5197 47.7111 12.2969 47.8527 12.1781C48.5164 11.5989 49.2696 11.1534 50.1272 10.8489C51.0892 10.4999 52.0884 10.3291 53.1175 10.3291C54.251 10.3291 55.1832 10.4776 55.914 10.7746C56.6448 11.0717 57.2264 11.5024 57.6664 12.0742C58.1064 12.6459 58.4121 13.344 58.5836 14.1756C58.7552 15.0073 58.8447 15.9652 58.8447 17.0568V23.3316C58.8447 23.5172 58.6881 23.6732 58.5016 23.6732H55.6306C55.4442 23.6732 55.2876 23.5172 55.2876 23.3316V22.0321ZM54.333 17.9553C54.0422 17.9553 53.6768 17.9702 53.2368 17.9925C52.7969 18.0222 52.3793 18.0964 51.9766 18.2227C51.5739 18.3489 51.2309 18.5345 50.9475 18.787C50.6641 19.0395 50.5224 19.3885 50.5224 19.8341C50.5224 20.3167 50.7163 20.6732 51.119 20.9034C51.5142 21.1336 51.9244 21.2524 52.3569 21.2524C52.7372 21.2524 53.1026 21.2004 53.4531 21.089C53.8036 20.985 54.1168 20.8291 54.3927 20.636C54.6686 20.443 54.8849 20.1905 55.0489 19.886C55.213 19.5816 55.295 19.2251 55.295 18.8167V17.9628H54.333V17.9553Z" fill="#895FDB"/>
<path d="M64.1245 18.1857C64.5198 18.2749 65.698 18.557 65.698 18.557C66.1976 18.6758 66.6302 18.8318 66.9583 19.0026C67.3237 19.1956 67.5101 19.4704 67.5474 19.8046C67.5772 20.0942 67.4504 20.6288 66.7942 20.8961C66.4214 21.0447 65.2058 21.2674 64.0201 20.5546C63.7069 20.3689 63.4012 20.1461 63.1253 19.864C62.991 19.7303 62.7599 19.7377 62.6331 19.8862L60.9329 21.8169C60.8135 21.958 60.821 22.1659 60.9552 22.2922C61.4698 22.7451 62.0216 23.0496 62.5958 23.3318C63.3341 23.6882 66.2871 24.6239 68.7853 23.3689C70.7838 22.359 71.0001 20.3986 71.0001 19.6115C71.0001 18.8318 70.575 17.963 70.2544 17.51C69.6056 16.6041 68.4423 16.307 67.1522 15.9506C66.66 15.8169 65.4445 15.4902 65.1163 15.3194C64.7509 15.1263 64.5645 14.8516 64.5272 14.5174C64.4974 14.2278 64.6242 13.6932 65.2804 13.4258C65.5563 13.3145 65.9366 13.2031 66.6824 13.3813C67.2715 13.5298 68.047 13.9976 68.4945 14.3912C68.6287 14.51 68.83 14.4952 68.9643 14.3763L70.7316 12.6758C70.8733 12.5348 70.8733 12.2971 70.7167 12.1709C69.5534 11.213 68.1813 10.6857 67.5698 10.5372C66.3692 10.2551 64.9374 10.1288 63.2893 10.9605C61.2908 11.9704 60.9701 13.9531 60.9701 14.7402C60.9701 15.5199 61.1267 16.1511 61.425 16.6115C61.7308 17.0719 62.3945 17.7922 64.1245 18.1857Z" fill="#895FDB"/>
<path d="M59.9856 0C59.9111 1.18069 59.4338 2.24257 58.6806 3.0594L58.36 3.37871C57.5397 4.12871 56.4658 4.60396 55.2876 4.67822C55.2876 4.67822 55.2876 4.68564 55.2876 4.69307C55.2876 4.70049 55.2876 4.70792 55.2876 4.70792C56.4733 4.78218 57.5397 5.25742 58.36 6.00742L58.6806 6.32673C59.4338 7.14356 59.9111 8.21287 59.9856 9.38613C59.9856 9.38613 59.9931 9.38613 60.0005 9.38613C60.008 9.38613 60.0155 9.38613 60.0155 9.38613C60.09 8.20544 60.5673 7.14356 61.3205 6.32673L61.6411 6.00742C62.4614 5.25742 63.5353 4.78218 64.7135 4.70792C64.7135 4.70792 64.7135 4.70049 64.7135 4.69307C64.7135 4.68564 64.7135 4.67822 64.7135 4.67822C63.5278 4.60396 62.4614 4.12871 61.6411 3.37871L61.3205 3.0594C60.5673 2.24257 60.09 1.17327 60.0155 0C60.0155 0 60.008 0 60.0005 0C60.0005 0 59.9931 0 59.9856 0Z" fill="#F9D848"/>
</svg>
