<svg width="78" height="17" viewBox="0 0 78 17" fill="none" xmlns="http://www.w3.org/2000/svg">
<path d="M34.825 10.7971H36.175C36.475 10.7971 36.725 10.5495 36.725 10.2523V0.644158C36.725 0.346998 36.475 0.0993652 36.175 0.0993652H34.825C34.525 0.0993652 34.275 0.346998 34.275 0.644158V10.2523C34.2875 10.5495 34.525 10.7971 34.825 10.7971Z" fill="#FF9800"/>
<path d="M42.175 0.111816H40.825C40.525 0.111816 40.275 0.359449 40.275 0.656609V10.2648C40.275 10.5619 40.525 10.8096 40.825 10.8096H42.175C42.475 10.8096 42.725 10.5619 42.725 10.2648V0.644227C42.725 0.347068 42.475 0.111816 42.175 0.111816Z" fill="#FF9800"/>
<path d="M42.2626 13.1868H40.7501C40.5626 13.1868 40.4001 13.2982 40.3251 13.4592C40.0251 14.1649 39.3251 14.6726 38.5001 14.6726C37.6751 14.6726 36.9751 14.1773 36.6751 13.4592C36.6001 13.2982 36.4376 13.1868 36.2501 13.1868H34.7501C34.4501 13.1868 34.2251 13.4592 34.3001 13.7439C34.7626 15.6136 36.4751 17.0003 38.5126 17.0003C40.5501 17.0003 42.2501 15.6136 42.7251 13.7439C42.7876 13.4592 42.5501 13.1868 42.2626 13.1868Z" fill="#FF9800"/>
<path d="M20.7875 0.000244141C18.4625 0.000244141 16.5625 1.86987 16.5625 4.18524V6.17869V16.3564C16.5625 16.6536 16.8125 16.9012 17.1125 16.9012H18.4625C18.7625 16.9012 19.0125 16.6536 19.0125 16.3564V13.1248H22.575V16.3564C22.575 16.6536 22.825 16.9012 23.125 16.9012H24.475C24.775 16.9012 25.025 16.6536 25.025 16.3564V6.17869V4.18524C25.0125 1.86987 23.125 0.000244141 20.7875 0.000244141ZM19.0125 10.7104V7.36732V6.17869V4.18524C19.0125 3.20709 19.8125 2.41467 20.8 2.41467C21.7875 2.41467 22.5875 3.20709 22.5875 4.18524V6.17869V7.36732V10.7227H19.0125V10.7104Z" fill="#FF9800"/>
<path d="M72.7751 0.000244141C70.4501 0.000244141 68.55 1.86987 68.55 4.18524V6.17869V16.3564C68.55 16.6536 68.8 16.9012 69.1 16.9012H70.45C70.7501 16.9012 71.0001 16.6536 71.0001 16.3564V13.1248H74.5626V16.3564C74.5626 16.6536 74.8126 16.9012 75.1126 16.9012H76.4626C76.7626 16.9012 77.0126 16.6536 77.0126 16.3564V6.17869V4.18524C77.0001 1.86987 75.1126 0.000244141 72.7751 0.000244141ZM71.0001 10.7104V7.47876V6.17869V4.18524C71.0001 3.20709 71.8001 2.41467 72.7876 2.41467C73.7751 2.41467 74.5751 3.20709 74.5751 4.18524V6.17869V7.47876V10.7227H71.0001V10.7104Z" fill="#FF9800"/>
<path d="M58.0501 8.84075L55.5251 6.42633C54.6126 5.52246 54.3626 4.94053 54.3251 3.82618C54.3376 3.02137 55.0126 2.38991 55.8251 2.40229C56.6251 2.42705 57.2501 3.10804 57.2501 3.90047V5.69581C57.2501 5.98059 57.4876 6.21584 57.7751 6.21584H59.1501C59.4376 6.21584 59.6751 5.98059 59.6751 5.69581V3.95C59.6751 1.79559 57.9001 -0.0245135 55.7251 0.000249753C53.6126 0.025013 51.9126 1.7213 51.8876 3.8138C51.8876 3.82618 51.8876 3.83856 51.8876 3.85094C51.9376 5.85677 52.3876 6.81016 53.5501 7.88736L56.0501 10.3142C56.9876 11.218 57.2126 11.8123 57.2501 12.9267V13.1372C57.2501 13.942 56.5751 14.5982 55.7626 14.5858C54.9501 14.5734 54.3251 13.8801 54.3251 13.0877V11.3171C54.3251 11.0323 54.0876 10.797 53.8001 10.797H52.4251C52.1376 10.797 51.9001 11.0323 51.9001 11.3171V13.1867C51.9251 15.2916 53.6626 17.0003 55.8001 17.0003C57.9501 17.0003 59.7001 15.2668 59.7001 13.1372V12.9267C59.6501 10.8961 59.2376 9.94271 58.0501 8.84075Z" fill="#FF9800"/>
<path d="M0.65 0.111816C0.2375 0.111816 0 0.334686 0 0.755662V16.2451C0 16.6661 0.2375 16.8889 0.65 16.8889H1.8C2.225 16.8889 2.45 16.6537 2.45 16.2451V13.1249H4.75C6.7875 13.1249 8.4375 11.4905 8.4375 9.47234V3.7644C8.4375 1.74619 6.7875 0.111816 4.75 0.111816H2.3H0.65ZM6.0125 9.31138C6.0125 10.0914 5.375 10.7229 4.5875 10.7229H2.4625V10.6115V2.51386H4.5875C5.375 2.51386 6.0125 3.14532 6.0125 3.92536V9.31138Z" fill="#FF9800"/>
</svg>
