<svg width="76" height="36" viewBox="0 0 76 36" fill="none" xmlns="http://www.w3.org/2000/svg">
<path d="M41.8617 6.55298H36.7657V11.5025H41.8617V6.55298Z" fill="#07DBC1"/>
<path d="M48.6221 0H43.5261V4.94954H48.6221V0ZM41.8617 0H36.7658V4.94954H41.8617V0ZM35.1107 0H30.0148V4.94954H35.1107V0ZM48.6221 6.55304H43.5261V11.5026H48.6221V6.55304ZM35.1107 6.55304H30.0148V11.5026H35.1107V6.55304ZM48.6221 13.0968H43.5261V18.0463H48.6221V13.0968ZM41.8617 13.0968H36.7658V18.0463H41.8617V13.0968ZM35.1107 13.0968H30.0148V18.0463H35.1107V13.0968Z" fill="#562BDC"/>
<path d="M46.3032 24.7383C47.341 24.7383 48.1545 25.0813 48.7623 25.7672C49.3794 26.4531 49.688 27.3892 49.688 28.5849V33.7754H46.9203V28.9C46.9203 28.3068 46.7613 27.8341 46.4341 27.5097C46.1255 27.1668 45.7047 26.9999 45.1718 26.9999C44.6107 26.9999 44.1619 27.176 43.8253 27.5283C43.498 27.8805 43.3391 28.381 43.3391 29.0298V33.7662H40.5807V24.831H43.3484V26.4623C43.6102 25.9248 43.9936 25.5077 44.4985 25.2018C45.0128 24.8959 45.6112 24.7383 46.3032 24.7383ZM18.5979 29.0113C18.5979 29.2337 18.5699 29.4747 18.5138 29.7342H12.2584C12.2864 30.4016 12.4641 30.8743 12.7726 31.1709C13.0812 31.4582 13.4833 31.5973 13.9695 31.5973C14.3809 31.5973 14.7175 31.4953 14.9887 31.3007C15.2598 31.0967 15.4375 30.8465 15.5217 30.5313H18.4483C18.3268 31.1524 18.0743 31.7085 17.6722 32.209C17.2702 32.691 16.7653 33.0803 16.1481 33.3583C15.531 33.6364 14.8484 33.7662 14.091 33.7662C13.2028 33.7662 12.4173 33.59 11.7254 33.2286C11.0428 32.8578 10.5098 32.3295 10.1265 31.6529C9.73376 30.967 9.54675 30.1699 9.54675 29.2523C9.54675 28.3254 9.73376 27.5283 10.1171 26.8516C10.5098 26.1657 11.0428 25.6467 11.7347 25.2852C12.4267 24.9145 13.2121 24.7291 14.1004 24.7291C14.998 24.7291 15.7835 24.9052 16.466 25.2667C17.1486 25.6282 17.6722 26.1287 18.0369 26.7868C18.4109 27.4356 18.5979 28.1771 18.5979 29.0113ZM15.7928 28.6034C15.8022 28.0288 15.6432 27.5931 15.3066 27.3058C14.9793 27.0092 14.5773 26.8609 14.091 26.8609C13.5861 26.8609 13.1654 27.0092 12.8287 27.3058C12.4921 27.6024 12.3051 28.0288 12.2584 28.6034H15.7928ZM34.8676 24.7383C35.7653 24.7383 36.56 24.9237 37.2613 25.2945C37.972 25.656 38.5236 26.175 38.9257 26.8609C39.3371 27.5468 39.5428 28.3439 39.5428 29.2615C39.5428 30.1791 39.3371 30.9762 38.9257 31.6621C38.5236 32.348 37.972 32.8763 37.2613 33.2378C36.56 33.5993 35.7653 33.7754 34.8676 33.7754C33.97 33.7754 33.1658 33.5993 32.4552 33.2378C31.7446 32.8671 31.1836 32.3388 30.7721 31.6621C30.3701 30.9762 30.1737 30.1791 30.1737 29.2615C30.1737 28.3439 30.3701 27.5468 30.7721 26.8609C31.1836 26.175 31.7446 25.656 32.4552 25.2945C33.1658 24.9237 33.97 24.7383 34.8676 24.7383ZM34.8676 27.0741C34.3346 27.0741 33.8952 27.2595 33.5212 27.6395C33.1658 28.0102 32.9882 28.5478 32.9882 29.2523C32.9882 29.9567 33.1658 30.4943 33.5212 30.865C33.8858 31.2358 34.3346 31.4211 34.8676 31.4211C35.4006 31.4211 35.8401 31.2358 36.1954 30.865C36.5507 30.4943 36.7283 29.9567 36.7283 29.2523C36.7283 28.5478 36.5507 28.0102 36.1954 27.6395C35.8307 27.2595 35.3912 27.0741 34.8676 27.0741ZM5.87205 33.7662L3.39419 29.484H2.76772V33.7662H0V22.4304H4.72195C5.62894 22.4304 6.39567 22.588 7.02215 22.8939C7.64862 23.1997 8.11614 23.6354 8.4247 24.173C8.73327 24.7105 8.89222 25.3223 8.89222 26.0174C8.89222 26.8424 8.65846 27.5375 8.2003 28.1215C7.75148 28.6961 7.0876 29.0947 6.20866 29.3079L8.92963 33.7662H5.87205ZM2.76772 27.6117H4.47884C5.03051 27.6117 5.43258 27.4912 5.69439 27.2595C5.9562 27.0092 6.08711 26.657 6.08711 26.1843C6.08711 25.7394 5.9562 25.3872 5.68504 25.1276C5.42323 24.8681 5.03051 24.7383 4.48819 24.7383H2.76772V27.6117ZM28.7338 26.8516C28.3971 26.1657 27.939 25.6467 27.3406 25.2852C26.7608 24.9145 26.0969 24.7291 25.3489 24.7291C24.657 24.7291 24.0679 24.8774 23.5723 25.1833C23.0768 25.4891 22.7121 25.9062 22.4877 26.4345V25.415V24.8496V24.7383H19.7293V24.8496V25.415V34.8506V35.9629V35.9999H22.497V34.8506V32.0607C22.7215 32.589 23.0861 33.0061 23.5817 33.312C24.0773 33.6179 24.6663 33.7662 25.3583 33.7662C26.1063 33.7662 26.7608 33.59 27.3499 33.2286C27.939 32.8578 28.4065 32.3388 28.7431 31.6529C29.0891 30.967 29.2574 30.1699 29.2574 29.2523C29.2574 28.3254 29.0797 27.5283 28.7338 26.8516ZM25.8912 30.8279C25.5359 31.208 25.0591 31.3933 24.47 31.3933C23.8903 31.3933 23.404 31.1987 23.03 30.8094C22.6654 30.4201 22.4783 29.9011 22.4783 29.243C22.4783 28.5756 22.6654 28.0566 23.03 27.6766C23.404 27.2873 23.8903 27.0926 24.47 27.0926C25.0591 27.0926 25.5359 27.278 25.8912 27.658C26.2559 28.038 26.4429 28.5664 26.4429 29.2337C26.4429 29.9011 26.2559 30.4479 25.8912 30.8279ZM43.3484 24.7383H40.5807V24.831H43.3484V24.7383Z" fill="#562BDC"/>
<path d="M71.6053 26.8425C71.2032 26.1566 70.6515 25.6375 69.9409 25.2761C69.2396 24.9053 68.4448 24.7199 67.5472 24.7199C66.6496 24.7199 65.8454 24.9053 65.1348 25.2761C64.4242 25.6375 63.8631 26.1566 63.4517 26.8425C63.0497 27.5284 62.8533 28.3255 62.8533 29.2431C62.8533 30.1607 63.0497 30.9578 63.4517 31.6437C63.8631 32.3296 64.4242 32.8579 65.1348 33.2194C65.8454 33.5809 66.6496 33.757 67.5472 33.757C68.4448 33.757 69.2396 33.5809 69.9409 33.2194C70.6515 32.8487 71.2032 32.3203 71.6053 31.6437C72.0167 30.9578 72.2224 30.1607 72.2224 29.2431C72.213 28.3348 72.0073 27.5284 71.6053 26.8425ZM68.8656 30.8188C68.5103 31.1895 68.0708 31.3749 67.5378 31.3749C67.0142 31.3749 66.5654 31.1895 66.1914 30.8188C65.8361 30.448 65.6584 29.9012 65.6584 29.1782C65.6584 28.4645 65.8361 27.9177 66.1914 27.5469C66.5561 27.1576 67.0049 26.9722 67.5378 26.9722C68.0708 26.9722 68.5103 27.1669 68.8656 27.5469C69.2209 27.9177 69.3986 28.4645 69.3986 29.1782C69.3986 29.8919 69.2209 30.4388 68.8656 30.8188ZM73.1013 24.7385L73.4099 30.5315H75.6914L75.9999 24.7385H73.1013ZM75.869 31.3842H73.2322V33.7663H75.869V31.3842ZM61.8154 28.6035H56.0088V30.0309V30.3832V30.5315H59.4498C59.2441 31.1247 58.9074 31.5881 58.4493 31.9218C57.9537 32.274 57.374 32.4501 56.7194 32.4501C55.7003 32.4501 54.9055 32.1628 54.3445 31.5881C53.7928 31.0134 53.5216 30.1792 53.5216 29.1041C53.5216 28.1123 53.7834 27.3245 54.3164 26.7498C54.84 26.1659 55.5413 25.8693 56.4202 25.8693C56.9813 25.8693 57.4581 25.9898 57.8602 26.24C58.2623 26.4717 58.5521 26.7961 58.7485 27.204H61.6752C61.4507 26.0176 60.871 25.0814 59.9453 24.3863C59.0196 23.6911 57.8415 23.3481 56.4015 23.3481C55.2608 23.3481 54.2603 23.5891 53.3907 24.0804C52.5398 24.5624 51.876 25.239 51.3991 26.1195C50.9316 27 50.7072 27.9918 50.7072 29.1133C50.7072 30.2349 50.9409 31.2359 51.3991 32.1072C51.876 32.9877 52.5398 33.6643 53.4001 34.1556C54.2603 34.6375 55.2701 34.8785 56.4202 34.8785C57.374 34.8785 58.2062 34.7024 58.9448 34.3502C59.216 34.2204 59.4685 34.0814 59.7022 33.9238C59.7116 33.9146 59.7116 33.9146 59.7209 33.9053C60.0762 33.6643 60.3848 33.3955 60.656 33.0989C60.656 33.0989 60.656 33.0989 60.6653 33.0896C61.404 32.2276 61.7032 31.1895 61.8061 30.3275C61.937 29.3451 61.8154 28.6035 61.8154 28.6035Z" fill="#07DBC1"/>
</svg>
