<svg width="108" height="47" viewBox="0 0 108 47" fill="none" xmlns="http://www.w3.org/2000/svg">
<path d="M33.6756 0.826011L17.5748 28.2496L1.47402 0.826011H33.6756ZM35.1213 0H0L17.5748 29.9016L35.1213 0ZM26.3622 14.9508L35.1496 0H17.5748L26.3622 14.9508ZM50.1165 43.283C50.1165 44.4394 49.6913 45.348 48.8693 46.0088C48.0189 46.6696 46.8567 47 45.3827 47C43.9937 47 42.8031 46.7522 41.726 46.2291V43.7235C42.6047 44.109 43.3417 44.3843 43.937 44.522C44.5323 44.6872 45.0992 44.7698 45.5811 44.7698C46.1764 44.7698 46.6299 44.6596 46.9701 44.4394C47.2819 44.2191 47.452 43.8887 47.452 43.4206C47.452 43.1728 47.3953 42.9525 47.2535 42.7598C47.1118 42.5671 46.9134 42.3743 46.6299 42.2091C46.3465 42.0439 45.8079 41.7411 44.9575 41.3556C44.1638 40.9977 43.5685 40.6397 43.1717 40.3093C42.7748 39.9789 42.463 39.5659 42.2362 39.1254C42.0094 38.6848 41.8961 38.1617 41.8961 37.5559C41.8961 36.4271 42.2929 35.546 43.0583 34.8852C43.8236 34.2519 44.9008 33.9215 46.2614 33.9215C46.9417 33.9215 47.5654 34.0041 48.189 34.1693C48.7843 34.3345 49.4362 34.5548 50.0882 34.8301L49.2094 36.9227C48.5291 36.6473 47.9622 36.4546 47.5087 36.3445C47.0551 36.2343 46.6299 36.1793 46.1764 36.1793C45.6661 36.1793 45.2693 36.2894 44.9858 36.5372C44.7024 36.785 44.5606 37.0879 44.5606 37.4733C44.5606 37.7211 44.6173 37.9139 44.7307 38.1066C44.8441 38.2718 45.0142 38.4646 45.2693 38.6298C45.5244 38.795 46.0913 39.0978 46.9984 39.5108C48.2173 40.089 49.0394 40.6397 49.4646 41.2179C49.8898 41.7411 50.1165 42.4569 50.1165 43.283ZM55.6724 44.8799C56.1543 44.8799 56.6929 44.7698 57.3732 44.577V46.5319C56.6929 46.8348 55.8709 46.9725 54.9071 46.9725C53.8299 46.9725 53.0362 46.6971 52.5543 46.174C52.0724 45.6508 51.8173 44.8248 51.8173 43.7786V39.0978H50.5417V37.9965L52.0158 37.1154L52.7811 35.0779H54.5102V37.1429H57.2598V39.1254H54.5102V43.8061C54.5102 44.1916 54.6236 44.4669 54.822 44.6321C55.0205 44.7973 55.3039 44.8799 55.6724 44.8799ZM65.5937 46.8348L65.2252 45.5958H65.0835C64.8 46.0363 64.3748 46.3943 63.8646 46.6421C63.326 46.8899 62.7307 47 62.0504 47C60.8882 47 60.0094 46.6971 59.4425 46.0914C58.8472 45.4856 58.5638 44.6046 58.5638 43.4482V37.1154H61.2567V42.7873C61.2567 43.4757 61.3701 43.9988 61.6252 44.3568C61.8803 44.7147 62.2772 44.8799 62.8441 44.8799C63.6094 44.8799 64.148 44.6321 64.4882 44.1365C64.8283 43.6409 64.9984 42.8149 64.9984 41.686V37.1154H67.6913V46.8073H65.5937V46.8348ZM72.8787 47C71.7165 47 70.8094 46.5595 70.1575 45.6784C69.5055 44.7973 69.1654 43.5583 69.1654 41.9889C69.1654 40.3919 69.5055 39.1529 70.1858 38.2718C70.8661 37.3907 71.7732 36.9502 72.9638 36.9502C74.211 36.9502 75.1465 37.4183 75.7984 38.382H75.8835C75.7417 37.6661 75.685 37.0053 75.685 36.4546V32.9854H78.378V46.8623H76.3087L75.7984 45.5958H75.685C75.0614 46.5319 74.1543 47 72.8787 47ZM73.8425 44.8799C74.5228 44.8799 75.0331 44.6872 75.3449 44.3017C75.6567 43.9162 75.8268 43.2279 75.8835 42.2917V42.0164C75.8835 40.9701 75.7134 40.2267 75.4016 39.7862C75.0614 39.3456 74.5512 39.0978 73.8142 39.0978C73.2189 39.0978 72.737 39.3456 72.4252 39.8412C72.085 40.3368 71.915 41.0803 71.915 42.0164C71.915 42.9801 72.085 43.696 72.4252 44.164C72.737 44.6596 73.2189 44.8799 73.8425 44.8799ZM83.1685 46.8348H80.4756V37.1429H83.1685V46.8348ZM94.2236 41.9613C94.2236 43.5308 93.7984 44.7698 92.948 45.6508C92.0976 46.5319 90.9354 47 89.4047 47C88.4693 47 87.6189 46.8073 86.9102 46.3943C86.1732 45.9813 85.6347 45.403 85.2378 44.6321C84.841 43.8612 84.6425 42.9801 84.6425 41.9613C84.6425 40.3644 85.0677 39.1529 85.8898 38.2718C86.7118 37.3907 87.9024 36.9502 89.4331 36.9502C90.3685 36.9502 91.2189 37.1429 91.9276 37.5559C92.6646 37.969 93.2031 38.5472 93.6 39.2906C94.0252 40.0615 94.2236 40.9426 94.2236 41.9613ZM87.3921 41.9613C87.3921 42.925 87.5622 43.6409 87.874 44.1365C88.1858 44.6321 88.7244 44.8799 89.4331 44.8799C90.1417 44.8799 90.652 44.6321 90.9921 44.1365C91.3039 43.6409 91.474 42.925 91.474 41.9613C91.474 40.9977 91.3039 40.2818 90.9921 39.8137C90.6803 39.3456 90.1417 39.0978 89.4331 39.0978C88.7244 39.0978 88.1858 39.3456 87.874 39.8137C87.5622 40.2818 87.3921 40.9977 87.3921 41.9613ZM80.4189 34.2519C80.4189 33.3984 80.9008 32.9578 81.8362 32.9578C82.7717 32.9578 83.2535 33.3984 83.2535 34.2519C83.2535 34.6649 83.1402 34.9953 82.9134 35.2156C82.6866 35.4359 82.3181 35.546 81.8646 35.546C80.8724 35.546 80.4189 35.1054 80.4189 34.2519ZM49.7197 17.0434H52.4976L48.1039 29.7914H45.0709L40.6772 17.0434H43.4551L45.8929 24.6151C46.0346 25.0557 46.1764 25.5788 46.3181 26.1845C46.4598 26.7903 46.5449 27.2033 46.6016 27.4235C46.6583 26.9004 46.885 25.9643 47.2535 24.6151L49.7197 17.0434ZM57.2882 29.9566C55.7008 29.9566 54.4535 29.5161 53.5465 28.6626C52.6394 27.809 52.1858 26.57 52.1858 24.9731C52.1858 23.3486 52.611 22.082 53.4331 21.1734C54.2551 20.2923 55.4173 19.8243 56.863 19.8243C58.252 19.8243 59.3575 20.2097 60.1228 21.0082C60.9165 21.7791 61.285 22.8805 61.285 24.2572V25.5513H54.9071C54.9354 26.2947 55.1622 26.9004 55.5874 27.3134C56.0126 27.7264 56.6079 27.9467 57.3732 27.9467C57.9685 27.9467 58.5354 27.8916 59.074 27.754C59.6126 27.6438 60.1512 27.4511 60.7465 27.1757V29.2408C60.2646 29.461 59.7827 29.6538 59.2441 29.7639C58.7339 29.9016 58.0535 29.9566 57.2882 29.9566ZM56.9197 21.7241C56.3528 21.7241 55.8992 21.8893 55.5591 22.2472C55.2472 22.6052 55.0488 23.1008 54.9921 23.7616H58.7906C58.7906 23.1008 58.5921 22.6052 58.2803 22.2472C57.9402 21.9168 57.4866 21.7241 56.9197 21.7241ZM71.9433 29.7639H69.2504V24.092C69.2504 23.3761 69.137 22.853 68.8819 22.5226C68.6268 22.1646 68.2299 21.9994 67.663 21.9994C66.8976 21.9994 66.3591 22.2472 66.0189 22.7428C65.6787 23.2384 65.5087 24.0644 65.5087 25.2209V29.7914H62.8158V20.017H64.885L65.2535 21.256H65.3953C65.7071 20.7879 66.1039 20.43 66.6425 20.1822C67.1811 19.9344 67.7764 19.8243 68.4567 19.8243C69.6189 19.8243 70.4693 20.1271 71.0929 20.7329C71.6882 21.3386 72 22.2197 72 23.3761V29.7639H71.9433ZM78.1795 27.8366C78.6614 27.8366 79.2283 27.7264 79.8803 27.5337V29.5161C79.2 29.819 78.378 29.9566 77.3858 29.9566C76.3087 29.9566 75.515 29.6813 75.0331 29.1582C74.5512 28.6075 74.2961 27.809 74.2961 26.7352V22.0269H72.9921V20.8981L74.4945 20.017L75.2882 17.952H77.0173V20.017H79.7953V22.0269H77.0173V26.7352C77.0173 27.1207 77.1307 27.396 77.3291 27.5612C77.5276 27.7264 77.811 27.8366 78.1795 27.8366ZM88.1858 29.7639L87.8173 28.5249H87.6756C87.3921 28.9654 86.9669 29.3234 86.4567 29.5712C85.9181 29.819 85.3228 29.9291 84.6425 29.9291C83.4803 29.9291 82.6016 29.6262 82.0063 29.0205C81.411 28.4148 81.1276 27.5337 81.1276 26.3773V20.017H83.8205V25.7165C83.8205 26.4323 83.9339 26.9555 84.189 27.2859C84.4441 27.6438 84.8409 27.809 85.4079 27.809C86.1732 27.809 86.7118 27.5612 87.052 27.0656C87.3921 26.57 87.5622 25.744 87.5622 24.5876V20.017H90.2551V29.7639H88.1858ZM97.8803 19.8518C98.2488 19.8518 98.5606 19.8793 98.7874 19.9344L98.589 22.44C98.3622 22.3849 98.1071 22.3574 97.7953 22.3574C96.9449 22.3574 96.2646 22.5776 95.7827 23.0182C95.3008 23.4587 95.074 24.0644 95.074 24.8354V29.7914H92.3811V20.017H94.4221L94.8189 21.669H94.9606C95.2724 21.1183 95.6693 20.6778 96.2079 20.3474C96.6898 20.017 97.2567 19.8518 97.8803 19.8518ZM104.003 29.9566C102.416 29.9566 101.169 29.5161 100.261 28.6626C99.3543 27.809 98.9008 26.57 98.9008 24.9731C98.9008 23.3486 99.326 22.082 100.148 21.1734C100.97 20.2923 102.132 19.8243 103.578 19.8243C104.967 19.8243 106.072 20.2097 106.838 21.0082C107.631 21.7791 108 22.8805 108 24.2572V25.5513H101.622C101.65 26.2947 101.877 26.9004 102.302 27.3134C102.728 27.7264 103.323 27.9467 104.088 27.9467C104.683 27.9467 105.25 27.8916 105.789 27.754C106.328 27.6438 106.866 27.4511 107.461 27.1757V29.2408C106.98 29.461 106.498 29.6538 105.959 29.7639C105.42 29.9016 104.769 29.9566 104.003 29.9566ZM103.606 21.7241C103.039 21.7241 102.586 21.8893 102.246 22.2472C101.934 22.6052 101.735 23.1008 101.679 23.7616H105.477C105.477 23.1008 105.279 22.6052 104.967 22.2472C104.627 21.9168 104.173 21.7241 103.606 21.7241ZM79.1433 7.87463C79.1433 9.60926 77.726 10.9309 75.9402 10.9309C74.1543 10.9309 72.737 9.55419 72.737 7.87463V0H70.8378V7.81957C70.8378 9.36145 71.5465 10.7381 72.737 11.6192C73.6158 12.3076 74.7213 12.7206 75.9402 12.7206C77.159 12.7206 78.2929 12.3351 79.1433 11.6192C80.3055 10.7381 81.0425 9.33392 81.0425 7.81957V0H79.1433V7.87463ZM62.1638 0C58.4787 0 55.5307 2.8635 55.5307 6.38781C55.5307 9.91213 58.4787 12.7756 62.1638 12.7756C62.9858 12.7756 63.7512 12.638 64.4032 12.3902L66.6425 14.0697C66.8976 14.2624 67.2661 14.2624 67.5213 14.1248C67.7764 13.932 67.8898 13.5741 67.7764 13.3263L66.9543 10.7932C68.0315 9.66432 68.6835 8.12244 68.6835 6.49795C68.7969 2.89104 65.8488 0 62.1638 0ZM62.1638 10.9584C59.5559 10.9584 57.4299 8.92091 57.4299 6.41535C57.4299 3.88225 59.5276 1.87229 62.1638 1.87229C64.7717 1.87229 66.8976 3.90978 66.8976 6.41535C66.926 8.92091 64.7717 10.9584 62.1638 10.9584ZM43.5969 0H41.6976V11.7294C41.6976 12.28 42.1512 12.7756 42.7748 12.7756H48.3307V10.9309H43.5969V0ZM52.1291 0H51.3071V12.7756H53.2063V1.04628C53.178 0.495606 52.7244 0 52.1291 0ZM92.0126 0H89.348C88.7811 0 88.2709 0.440539 88.2709 1.04628V11.7569C88.2709 12.3076 88.7244 12.8032 89.348 12.8032H92.0126C95.6976 12.8032 98.6457 9.93966 98.6457 6.44288C98.589 2.8635 95.641 0 92.0126 0ZM92.0126 10.9033H90.1701V1.84476H92.0126C94.6205 1.84476 96.7465 3.85472 96.7465 6.38781C96.7181 8.89338 94.6205 10.9033 92.0126 10.9033ZM84.5575 0H83.7354V12.7756H85.6346V1.04628C85.6346 0.495606 85.1244 0 84.5575 0ZM96.5197 47C97.0016 47 97.3417 46.8899 97.5685 46.6696C97.7953 46.4493 97.9087 46.1189 97.9087 45.7059C97.9087 44.8524 97.4268 44.4118 96.4913 44.4118C95.5559 44.4118 95.074 44.8524 95.074 45.7059C95.1307 46.5595 95.5843 47 96.5197 47Z" fill="#C5CDDB"/>
</svg>
