<svg width="86" height="41" viewBox="0 0 86 41" fill="none" xmlns="http://www.w3.org/2000/svg">
<path d="M64.5657 41C57.1828 41 50.3437 36.9786 46.7306 30.5073C46.4633 30.0266 46.6292 29.4165 47.1085 29.1484C47.5878 28.8803 48.1961 29.0467 48.4634 29.5274C51.7263 35.37 57.9017 39.0032 64.5657 39.0032C74.7414 39.0032 83.0183 30.7015 83.0183 20.4954C83.0183 10.2893 74.7414 1.99684 64.5657 1.99684C57.9017 1.99684 51.7263 5.62999 48.4634 11.4726C48.1961 11.9533 47.5878 12.1197 47.1085 11.8516C46.6292 11.5835 46.4633 10.9734 46.7306 10.4927C50.3529 4.02142 57.1828 0 64.5657 0C75.8382 0 85.0092 9.19842 85.0092 20.5046C85.0092 31.8108 75.8382 41 64.5657 41Z" fill="#223254"/>
<path d="M64.5657 35.8785C73.0311 35.8785 79.8937 28.9954 79.8937 20.5047C79.8937 12.014 73.0311 5.13086 64.5657 5.13086C56.1003 5.13086 49.2377 12.014 49.2377 20.5047C49.2377 28.9954 56.1003 35.8785 64.5657 35.8785Z" fill="#6664C9"/>
<path d="M63.8192 24.0453C63.8192 24.8218 63.8745 25.395 63.8929 25.5891H61.3675C61.349 25.4874 61.3029 25.0992 61.3029 24.7571C60.9066 25.3488 60.0402 25.7833 58.9987 25.7833C56.5746 25.7833 54.7404 23.9066 54.7404 21.2534C54.7404 18.6834 56.4732 16.7605 58.9065 16.7605C60.3812 16.7605 61.0172 17.3152 61.2292 17.648V13.0349H63.8284V24.0453H63.8192ZM59.3213 23.4259C60.3444 23.4259 61.2568 22.6956 61.2568 21.2719C61.2568 19.8297 60.3351 19.1364 59.3213 19.1364C58.3074 19.1364 57.3857 19.8297 57.3857 21.2719C57.3857 22.6956 58.3074 23.4259 59.3213 23.4259Z" fill="white"/>
<path d="M71.1468 19.5711C70.8518 19.4971 70.5753 19.4879 70.3172 19.4879C69.2573 19.4879 68.3079 20.1165 68.3079 21.8267V25.5893H65.681V16.9641H68.2157V18.1289C68.6674 17.1582 69.755 16.8809 70.4463 16.8809C70.7043 16.8809 70.9624 16.9178 71.1376 16.9641V19.5711H71.1468Z" fill="white"/>
<path d="M72.5478 22.1963C73.5156 22.1963 74.3267 22.9913 74.3267 23.962C74.3267 24.9142 73.5156 25.7462 72.5478 25.7462C71.58 25.7462 70.7873 24.9142 70.7873 23.962C70.7781 22.9913 71.58 22.1963 72.5478 22.1963Z" fill="white"/>
<path d="M6.87595 17.7497C6.79299 17.1765 6.32292 16.2058 4.82975 16.2058C3.80666 16.2058 3.15224 16.8437 3.15224 17.5278C3.15224 18.1195 3.51171 18.554 4.35968 18.7111L6.00032 19.0254C8.33225 19.4599 9.5489 20.9668 9.5489 22.7233C9.5489 24.6462 7.93591 26.6153 5.0141 26.6153C1.62221 26.6153 0.165908 24.4151 0 22.6771L2.50705 22.0669C2.60844 23.1948 3.37345 24.1839 5.05096 24.1839C6.12015 24.1839 6.78378 23.6662 6.78378 22.8989C6.78378 22.2703 6.28605 21.8266 5.46573 21.6694L3.78822 21.3551C1.71438 20.9576 0.451637 19.5709 0.451637 17.7497C0.451637 15.42 2.49783 13.793 4.84819 13.793C7.90826 13.793 9.06962 15.6327 9.32769 17.0748L6.87595 17.7497Z" fill="#223254"/>
<path d="M10.8301 26.3472V17.722H13.3371V18.7112C13.7703 17.9439 14.8764 17.4631 15.8073 17.4631C17.0332 17.4631 17.918 17.9623 18.3512 18.8129C19.0241 17.8422 19.8536 17.4631 21.015 17.4631C22.6372 17.4631 24.1949 18.4153 24.1949 20.7635V26.3472H21.6694V21.3459C21.6694 20.5324 21.2362 19.8852 20.3052 19.8852C19.3743 19.8852 18.8674 20.5971 18.8674 21.3644V26.3472H16.2682V21.3459C16.2682 20.5324 15.835 19.8852 14.8856 19.8852C13.9731 19.8852 13.4662 20.5971 13.4662 21.3736V26.3472H10.8301Z" fill="#223254"/>
<path d="M27.7711 21.3643L29.7988 21.05C30.2689 20.9761 30.4256 20.7542 30.4256 20.4584C30.4256 19.9592 29.9924 19.5247 29.1629 19.5247C28.2504 19.5247 27.7434 20.1533 27.6881 20.7912L25.4023 20.3197C25.5037 19.0902 26.6466 17.4539 29.1721 17.4539C31.9556 17.4539 32.9787 19.0162 32.9787 20.7819V24.9975C32.9787 25.6723 33.0617 26.2455 33.0801 26.338H30.7113C30.6929 26.264 30.6284 25.9589 30.6284 25.3673C30.1767 26.0976 29.3472 26.5783 28.2043 26.5783C26.3148 26.5783 25.2272 25.3303 25.2272 23.9621C25.2272 22.4367 26.3609 21.5677 27.7711 21.3643ZM30.4256 22.9637V22.5846L28.8034 22.8435C28.2504 22.9267 27.8356 23.1948 27.8356 23.7957C27.8356 24.2487 28.1306 24.6832 28.8587 24.6832C29.6237 24.6739 30.4256 24.2949 30.4256 22.9637Z" fill="#223254"/>
<path d="M39.993 20.3196C39.698 20.2457 39.4215 20.2364 39.1634 20.2364C38.1035 20.2364 37.1541 20.865 37.1541 22.5753V26.3471H34.5272V17.7219H37.0711V18.8867C37.5228 17.916 38.6104 17.6387 39.3017 17.6387C39.5598 17.6387 39.8178 17.6756 39.993 17.7219V20.3196Z" fill="#223254"/>
<path d="M45.1269 17.722H46.8044V20.0332H45.1269V23.2596C45.1269 23.9714 45.5048 24.1655 46.0762 24.1655C46.3527 24.1655 46.6108 24.1101 46.7675 24.0823V26.2548C46.6661 26.3103 46.2329 26.4952 45.4034 26.4952C43.6245 26.4952 42.5277 25.4321 42.5277 23.7218V20.0239H41.0068V17.7128H41.44C42.3433 17.7128 42.7765 17.1026 42.7765 16.3076V15.1982H45.1269V17.722Z" fill="#223254"/>
</svg>
