<svg width="53" height="59" viewBox="0 0 53 59" fill="none" xmlns="http://www.w3.org/2000/svg">
<path d="M42.728 25.4452C42.728 25.4602 42.728 25.4751 42.728 25.4751C42.728 25.4602 42.728 25.4153 42.728 25.3554C42.728 25.3853 42.728 25.4153 42.728 25.4452ZM17.178 44.8733C11.9765 42.6431 7.87324 38.4073 5.85974 33.1835C5.75297 32.7944 5.63094 31.4622 9.33759 31.3575H14.234C14.7222 33.2434 16.4153 34.6653 18.4898 34.6653C20.5643 34.6653 22.2575 33.2584 22.7456 31.3575H31.2725H32.5233C33.0114 33.2284 34.7046 34.6354 36.7638 34.6354C38.8383 34.6354 40.5315 33.2135 41.0196 31.3275C41.9196 31.2976 42.9416 31.1779 43.567 30.5791C44.2839 29.8906 44.1009 28.8878 44.1009 28.0047V25.8344C44.1009 25.4003 44.0704 25.101 43.8873 24.6819C43.567 23.9933 43.0026 23.4395 42.3467 23.0504C41.3552 22.4517 40.2417 22.3619 39.1281 22.287C38.7621 21.5985 38.396 20.91 38.0299 20.2215C37.5875 19.3982 37.2062 18.4253 36.596 17.6919C35.574 16.4496 34.0334 16.3598 32.5385 16.3598H29.7318C28.9692 16.3598 28.1302 16.3748 27.7336 17.1531C27.4743 17.6321 27.5963 18.3505 27.5963 18.8744C27.5963 18.9642 27.5811 19.069 27.5963 19.1588V19.1737C27.5963 19.1887 27.5963 19.2037 27.5963 19.2186C27.5811 19.3384 27.5963 19.4431 27.5963 19.5629V21.1944V23.0504V23.6341C27.5963 23.694 27.5963 23.7539 27.5963 23.8137C27.4895 23.8736 27.4133 23.8287 27.276 23.8287C27.2607 23.8287 27.2607 23.8287 27.2455 23.8287C27.2455 23.7539 27.2607 23.664 27.2607 23.6042V22.3469C27.2607 20.3412 27.337 18.3355 27.2607 16.3299C27.2302 15.4168 26.6201 14.6086 25.6896 14.4589C25.4913 14.429 25.293 14.429 25.0795 14.429H22.6846H15.073H12.3121C11.4121 14.429 10.5426 14.5188 10.0393 15.4019C9.70368 16.0006 9.79521 16.7789 9.79521 17.4524V20.7453V27.3311V27.7502C9.79521 28.6184 11.168 28.6184 11.168 27.7502V21.4638V17.5123C11.168 17.0184 10.9545 15.8509 11.6867 15.791C12.3426 15.7311 13.0137 15.791 13.6697 15.791H17.8492H25.1405C25.4455 15.791 25.7201 15.791 25.8574 16.1353C25.9489 16.3897 25.9032 16.749 25.9032 17.0034V21.0597C25.9032 22.0026 25.8421 22.9606 25.9032 23.9035C25.9794 25.1159 27.5506 25.5949 28.4658 24.8764C28.9997 24.4573 28.9844 23.9035 28.9844 23.3048V19.4132C28.9844 19.3683 28.9997 19.3084 28.9844 19.2486C28.9844 19.4132 28.9692 19.3384 28.9844 19.1737C28.9997 18.8893 28.9844 18.59 28.9844 18.3056C28.9844 18.1559 28.9997 18.0062 28.9844 17.8566C28.9844 17.8117 28.9844 17.7817 28.9844 17.7368C29.2132 17.647 29.4878 17.6919 29.7471 17.6919H32.7216C33.5758 17.6919 34.4147 17.662 35.1469 18.1709C35.574 18.4702 35.7876 18.8744 36.0164 19.3234C36.6418 20.4909 37.2672 21.6733 37.8926 22.8408C37.9689 22.9755 38.0299 23.1102 38.1061 23.245C38.3044 23.5443 38.579 23.5892 38.9146 23.6042C39.662 23.664 40.4247 23.664 41.1264 23.9335C41.5993 24.1131 42.0569 24.4124 42.3772 24.8016C42.4992 24.9513 42.606 25.1159 42.6823 25.2955C42.7128 25.3704 42.728 25.4302 42.728 25.4602C42.6823 26.0888 42.728 26.7324 42.728 27.3611V28.6932V29.1871C42.728 29.2171 42.728 29.2919 42.728 29.3518C42.7128 29.3967 42.6975 29.4865 42.6823 29.5164C42.5907 29.6511 42.4687 29.711 42.3467 29.7559C41.7518 29.9505 41.0654 29.9655 40.4552 29.9804C40.0586 29.9804 39.7993 30.2798 39.7688 30.654C39.6163 32.1508 38.2892 33.2733 36.7791 33.2733C35.269 33.2733 33.9266 32.1358 33.7893 30.654C33.7588 30.2948 33.4995 29.9804 33.1029 29.9804H32.5843C32.5233 29.9804 32.4623 29.9954 32.4012 30.0104H23.4931H22.1965C21.7999 30.0104 21.5406 30.3247 21.5101 30.6839C21.3575 32.1807 20.0152 33.3182 18.5051 33.3182C16.995 33.3182 15.6526 32.1807 15.5001 30.6839C15.4696 30.3247 15.2103 30.0104 14.8137 30.0104H9.24607C9.21556 30.0104 9.18506 30.0104 9.15455 30.0104H2.04631C2.04631 30.0104 -0.30277 29.9804 0.0328125 31.9113C0.06332 32.046 0.0938275 32.1807 0.139589 32.3453C1.17684 36.2968 3.15983 39.8741 5.81398 42.8677L5.79873 42.8826L5.84449 42.9275C7.9495 45.2775 10.4816 47.2532 13.3341 48.735L25.293 58C25.2167 53.1505 22.9897 49.8277 21.1287 47.8968C19.4661 46.1606 17.7729 45.1877 17.178 44.8733Z" fill="#A6C952"/>
<path d="M25.6591 0C13.2273 0 2.82427 8.44181 0.0328369 19.7874C0.0328369 19.7874 0.0328369 21.5536 2.748 21.5685C4.83777 21.5835 5.43266 19.7874 5.43266 19.7874C8.07156 11.2857 16.1408 5.104 25.6591 5.104C37.3435 5.104 46.8161 14.399 46.8161 25.8643C46.8161 37.3296 37.3435 46.6245 25.6591 46.6245C23.6151 46.6245 21.6321 46.3401 19.7559 45.8013C20.3356 46.2503 20.961 46.7892 21.6016 47.4477C23.5541 49.4684 25.8879 52.9409 25.9642 58.015L37.8774 48.7799C46.2822 44.4542 52.0176 35.8178 52.0176 25.8643C52.0023 11.585 40.2112 0 25.6591 0Z" fill="#4694D0"/>
<path d="M21.5863 39.5597C21.0982 42.2689 19.5881 43.0771 17.2848 43.0771C15.2103 43.0771 13.8222 42.4485 14.3256 39.904H17.2238C17.0712 40.6673 17.5136 40.6973 17.7729 40.6973C17.8644 40.6973 18.4593 40.7422 18.6576 39.7094L19.3898 35.6531H22.288L21.5863 39.5597ZM25.0642 42.8377H22.1507L23.4625 35.6531H26.376L25.0642 42.8377ZM35.1927 37.9731H32.5843L31.6996 42.8227H28.8014L29.6861 37.9731H27.0777L27.5048 35.6382H35.6198L35.1927 37.9731Z" fill="#275CA4"/>
</svg>
