<svg width="82" height="30" viewBox="0 0 82 30" fill="none" xmlns="http://www.w3.org/2000/svg">
<path d="M30.2171 16.1354C29.3552 15.8281 28.6893 15.442 28.1957 14.9376C28.1643 14.9061 28.1408 14.8273 28.1643 14.7958L28.6109 13.929C28.6423 13.8502 28.752 13.8502 28.8068 13.8975C29.3866 14.4569 30.1936 14.8746 31.2199 15.1583C31.69 15.3001 32.215 15.3789 32.7164 15.3789C34.0718 15.4341 35.0747 15.2135 35.7093 14.7328C36.2891 14.2836 36.5947 13.732 36.5947 13.0306C36.5947 12.4948 36.4301 12.0771 36.1246 11.7462C35.7955 11.4388 35.4038 11.1867 34.9337 11.0212C34.4636 10.8557 33.8211 10.6587 32.9906 10.4617C31.9956 10.2095 31.2121 9.95734 30.6088 9.7367C30.029 9.51605 29.4963 9.15356 29.081 8.64923C28.6658 8.17641 28.4464 7.50659 28.4464 6.69493C28.4464 6.02511 28.6109 5.41045 28.9713 4.85884C29.3317 4.29934 29.8567 3.85017 30.6088 3.55072C31.3296 3.21187 32.2463 3.04639 33.2962 3.04639C33.9073 3.04639 34.5419 3.10155 35.1531 3.26703C36.0149 3.46404 36.7357 3.77137 37.3468 4.18902C37.4017 4.22054 37.433 4.29934 37.4017 4.3545C37.3155 4.55151 37.1274 5.02432 37.0099 5.24497C36.9786 5.30013 36.9002 5.33165 36.8454 5.30013C36.3205 4.96916 35.7642 4.71699 35.1844 4.54363C34.5498 4.34662 33.9386 4.26782 33.3275 4.26782C32.1601 4.26782 31.3061 4.48847 30.7185 4.93764C30.1387 5.38681 29.8332 5.96995 29.8332 6.67129C29.8332 7.19926 29.9977 7.61692 30.3033 7.95577C30.6323 8.28673 31.0241 8.51526 31.5255 8.71227C31.9956 8.87775 32.6616 9.07476 33.4921 9.27176C34.4636 9.52393 35.2392 9.74458 35.8504 9.99674C36.4615 10.2174 36.9629 10.5799 37.3782 11.0527C37.7934 11.5255 37.9893 12.1717 37.9893 12.9755C37.9893 13.6453 37.8248 14.2599 37.4643 14.8194C37.1039 15.3789 36.5477 15.7966 35.8034 16.1276C35.0512 16.4585 34.1424 16.6004 33.0611 16.6004C32.0739 16.6083 31.1338 16.4664 30.2171 16.1354Z" fill="#684162"/>
<path d="M55.3437 7.50647C56.0645 8.23145 56.3936 9.29528 56.3936 10.6822V16.3875C56.3936 16.4426 56.3387 16.4978 56.2839 16.4978H55.1713C55.1165 16.4978 55.0617 16.4426 55.0617 16.3875V10.8319C55.0617 9.79962 54.8109 8.98795 54.3095 8.45998C53.8081 7.90048 53.1186 7.64832 52.2019 7.64832C51.1755 7.64832 50.345 7.95565 49.7574 8.60182C49.1776 9.24012 48.8721 10.1385 48.8721 11.2496V16.3875C48.8721 16.4426 48.8172 16.4978 48.7624 16.4978H47.6498C47.595 16.4978 47.5401 16.4426 47.5401 16.3875V10.8319C47.5401 9.79962 47.2894 8.98795 46.788 8.45998C46.2866 7.90048 45.5658 7.64832 44.6491 7.64832C43.6227 7.64832 42.8157 7.95565 42.2046 8.60182C41.5935 9.24012 41.3192 10.1385 41.3192 11.2496V16.3875C41.3192 16.4426 41.2644 16.4978 41.2095 16.4978H40.097C40.0421 16.4978 39.9873 16.4426 39.9873 16.3875V6.61601C39.9873 6.56085 40.0422 6.47416 40.1283 6.47416H41.1547C41.2095 6.47416 41.2957 6.52933 41.2957 6.61601V8.31814C41.6561 7.70348 42.1262 7.23067 42.7687 6.92334C43.4033 6.59237 44.1241 6.42688 44.9311 6.42688C45.7616 6.42688 46.4824 6.59237 47.0936 6.95486C47.7047 7.31735 48.1434 7.8532 48.449 8.54666C48.8094 7.87684 49.3343 7.37251 50.0316 6.98638C50.7211 6.62389 51.5046 6.42688 52.39 6.42688C53.6514 6.419 54.6542 6.78149 55.3437 7.50647Z" fill="#684162"/>
<path d="M65.7485 7.39609C65.059 6.74991 64.0562 6.41895 62.7556 6.41895C61.9799 6.41895 61.2278 6.52927 60.5383 6.78144C59.8723 7.00208 59.2925 7.30941 58.8146 7.70342C58.7598 7.73494 58.7598 7.81374 58.7833 7.86891L59.2534 8.64905C59.2847 8.70421 59.3631 8.72785 59.4492 8.68057C59.841 8.3496 60.3111 8.09743 60.836 7.90043C61.4158 7.70342 62.0269 7.5931 62.638 7.5931C63.5547 7.5931 64.2442 7.81374 64.7456 8.26292C65.2157 8.71209 65.4664 9.38191 65.4664 10.2487V13.4875C65.4664 13.519 65.4664 13.519 65.4664 13.5427C65.1922 14.1888 64.8005 14.6853 64.2755 15.0241C63.7193 15.3866 63.0846 15.5521 62.3325 15.5521C61.5255 15.5521 60.9144 15.3866 60.4756 15.0478C60.029 14.7168 59.8097 14.2361 59.8097 13.6766C59.8097 12.4788 60.6715 11.8878 62.3638 11.8878H66.438C66.4928 11.8878 66.5477 11.8327 66.5477 11.7775V11.021C66.5477 10.9658 66.4928 10.9107 66.438 10.9107H62.3325C61.0006 10.9107 60.029 11.1628 59.4179 11.6908C58.8068 12.2188 58.5012 12.8886 58.5012 13.7554C58.5012 14.6223 58.8303 15.3472 59.4727 15.8752C60.1387 16.4032 61.0006 16.6869 62.1053 16.6869C62.9123 16.6869 63.6017 16.545 64.1894 16.2377C64.7691 15.954 65.2157 15.5442 65.5213 15.0084V16.4347C65.5213 16.4899 65.5761 16.545 65.631 16.545H66.6887C66.7435 16.545 66.7984 16.4899 66.7984 16.4347V10.3512C66.7749 9.01154 66.438 8.06591 65.7485 7.39609Z" fill="#684162"/>
<path d="M71.5151 6.9472C72.0949 6.61624 72.847 6.44287 73.7088 6.44287C73.7872 6.44287 73.8499 6.49803 73.8499 6.58471V7.59338C73.8499 7.59338 73.8499 7.67219 73.795 7.73523C73.7402 7.79039 73.654 7.79039 73.654 7.79039H73.5208C72.4631 7.79039 71.6639 8.12136 71.0528 8.76754C70.473 9.41371 70.1675 10.3278 70.1675 11.4783V16.4429C70.1675 16.498 70.1126 16.5847 70.0264 16.5847H68.9452C68.8904 16.5847 68.8042 16.5296 68.8042 16.4429V6.69504C68.8042 6.63988 68.859 6.55319 68.9452 6.55319H69.9638C70.0186 6.55319 70.1048 6.60836 70.1048 6.69504V8.03468C70.1048 8.17652 70.2693 8.20016 70.3242 8.08984C70.6297 7.56186 71.0136 7.19937 71.5151 6.9472Z" fill="#684162"/>
<path d="M75.9809 7.64864H77.5088C77.5636 7.64864 77.6184 7.7038 77.6184 7.75896V16.3878C77.6184 16.443 77.6733 16.5218 77.7595 16.5218H78.8407C78.8955 16.5218 78.9817 16.4666 78.9817 16.3878V7.75896C78.9817 7.7038 79.0366 7.64864 79.0914 7.64864H81.865C81.9198 7.64864 81.9747 7.59348 81.9747 7.53832V6.64785C81.9747 6.59269 81.9198 6.53753 81.865 6.53753H79.0914C79.0366 6.53753 78.9817 6.48237 78.9817 6.42721V4.49655C78.9817 4.44139 78.9269 4.38623 78.872 4.38623H77.7908C77.736 4.38623 77.6811 4.44139 77.6811 4.49655V6.41933C77.6811 6.47449 77.6263 6.52965 77.5714 6.52965H76.0436C75.9888 6.52965 75.9339 6.58481 75.9339 6.63997V7.53044C75.8399 7.59348 75.8948 7.64864 75.9809 7.64864Z" fill="#684162"/>
<path d="M46.6627 23.4955C47.0231 23.8895 47.1876 24.3938 47.1876 25.0321C47.1876 25.8123 46.9134 26.3954 46.3571 26.7894C45.8008 27.2071 45.0017 27.4041 43.8891 27.4041H40.0892C40.0343 27.4041 39.9795 27.3489 39.9795 27.2938V18.4758C39.9795 18.4206 40.0343 18.3655 40.0892 18.3655H43.6149C44.5551 18.3655 45.3072 18.5625 45.8635 18.9486C46.3884 19.3426 46.6705 19.9258 46.6705 20.6507C46.6705 21.1866 46.5295 21.6594 46.2239 21.9904C46.0045 22.2425 45.7225 22.4632 45.3934 22.605C45.2837 22.6602 45.3072 22.802 45.4247 22.8257C45.9732 22.9675 46.3571 23.1882 46.6627 23.4955ZM40.4496 18.8698V22.5262C40.4496 22.5814 40.5044 22.6444 40.5593 22.6444H43.6619C44.4924 22.6444 45.1348 22.479 45.6049 22.1401C46.0515 21.8091 46.2944 21.3284 46.2944 20.6901C46.2944 20.044 46.075 19.5712 45.6049 19.2402C45.1584 18.9092 44.4924 18.7358 43.6619 18.7358H40.5593C40.5044 18.7516 40.4496 18.8068 40.4496 18.8698ZM46.0515 26.5373C46.5216 26.2063 46.741 25.702 46.741 25.0321C46.741 24.3308 46.5216 23.8344 46.0515 23.4955C45.5814 23.1645 44.8841 22.999 43.9439 22.999H40.5593C40.5044 22.999 40.4496 23.0542 40.4496 23.1094V26.8998C40.4496 26.9549 40.5044 27.0101 40.5593 27.0101H43.9439C44.892 27.018 45.5814 26.8761 46.0515 26.5373Z" fill="#684162"/>
<path d="M54.239 22.2741C53.9647 21.7698 53.6043 21.3758 53.1029 21.0763C52.6328 20.7927 52.1079 20.6587 51.5203 20.6587C50.9405 20.6587 50.3842 20.8005 49.9141 21.1079C49.444 21.3916 49.0523 21.8013 48.778 22.3057C48.5038 22.8415 48.3628 23.4246 48.3628 24.0629C48.3628 24.7012 48.5038 25.2844 48.8094 25.8202C49.0836 26.3561 49.4989 26.7422 50.0003 27.018C50.5017 27.3017 51.0815 27.4672 51.7475 27.4672C52.2489 27.4672 52.719 27.3884 53.1343 27.1914C53.526 27.0259 53.8864 26.7737 54.1606 26.4664C54.192 26.4113 54.192 26.3561 54.1606 26.3009C54.1606 26.3009 54.0744 26.2221 54.0509 26.1591C53.9961 26.1039 53.9099 26.1276 53.9099 26.1906C53.6592 26.4743 53.385 26.6949 53.0246 26.8368C52.6328 27.0023 52.2176 27.0889 51.7788 27.0889C51.2225 27.0889 50.7211 26.9707 50.2823 26.7265C49.8358 26.4743 49.4753 26.1354 49.2246 25.6626C48.9739 25.245 48.8642 24.7722 48.8329 24.2678C48.8329 24.2127 48.8329 23.7399 48.8642 23.6847C48.8956 23.2119 49.0288 22.7863 49.256 22.4002C49.5067 21.9826 49.8122 21.6437 50.2275 21.4231C50.6427 21.2024 51.0893 21.0606 51.5829 21.0606C52.0844 21.0606 52.5231 21.1709 52.9149 21.4231C53.3066 21.6437 53.6357 21.9826 53.8864 22.4002C54.1058 22.7863 54.2468 23.2119 54.3016 23.6847C54.3016 23.7399 54.2468 23.8265 54.192 23.8265C54.192 23.8265 48.9191 23.8265 48.8642 23.8265C48.8094 23.8265 48.6997 23.8265 48.6997 23.992C48.6997 24.1575 48.7545 24.1575 48.8642 24.1575C48.9504 24.1575 54.4662 24.1575 54.4662 24.1575C54.6621 24.1575 54.7169 24.0472 54.7169 23.992C54.6542 23.3064 54.5132 22.7469 54.239 22.2741Z" fill="#684162"/>
<path d="M60.507 21.2655C60.0918 20.8479 59.4807 20.6509 58.6737 20.6509C58.1722 20.6509 57.6786 20.7297 57.2321 20.903C56.8168 21.0685 56.4564 21.2971 56.1195 21.5492C56.0647 21.5729 56.0647 21.6595 56.0882 21.6832C56.0882 21.6832 56.143 21.7384 56.1743 21.7935C56.2292 21.8802 56.3389 21.825 56.3937 21.7699C56.6444 21.5492 56.95 21.3759 57.3104 21.234C57.7257 21.0685 58.1722 20.9818 58.6423 20.9818C59.3083 20.9818 59.8332 21.1473 60.1701 21.5098C60.5305 21.8408 60.6951 22.3451 60.6951 23.0149V23.5744C60.6951 23.6296 60.6402 23.6848 60.5854 23.6848H58.2584C57.3966 23.6848 56.7855 23.8503 56.4016 24.1812C56.0098 24.5201 55.8218 24.9614 55.8218 25.4972C55.8218 26.0567 56.0412 26.5295 56.4564 26.8605C56.8716 27.1915 57.4514 27.3885 58.2036 27.3885C58.7834 27.3885 59.3161 27.2781 59.7314 27.026C60.0369 26.8605 60.2877 26.632 60.4835 26.3562C60.5384 26.2774 60.6794 26.301 60.6794 26.4113V27.2624C60.6794 27.3176 60.7342 27.3727 60.7891 27.3727H60.985C61.0398 27.3727 61.0946 27.3176 61.0946 27.2624V23.0228C61.1417 22.2742 60.9223 21.6832 60.507 21.2655ZM60.7029 25.4815C60.2877 26.5689 59.4572 27.0969 58.2584 27.0969C57.6473 27.0969 57.1459 26.9551 56.7855 26.6793C56.4251 26.3956 56.2605 26.0331 56.2605 25.5366C56.2605 25.0874 56.4251 24.725 56.7306 24.4807C57.0597 24.2285 57.5611 24.0867 58.2584 24.0867H60.5854C60.6402 24.0867 60.6951 24.1418 60.6951 24.197V25.4815H60.7029Z" fill="#684162"/>
<path d="M68.9607 20.8241V27.3017C68.9607 27.3568 68.9059 27.412 68.851 27.412H68.6552C68.6003 27.412 68.5455 27.3568 68.5455 27.3017V26.2693C68.5455 26.159 68.4045 26.1275 68.3496 26.2142C68.1537 26.5452 67.8795 26.7973 67.574 27.0258C67.1274 27.3332 66.5789 27.475 65.9678 27.475C65.106 27.475 64.4165 27.2228 63.9464 26.75C63.445 26.2772 63.2256 25.5759 63.2256 24.6618V20.8399C63.2256 20.7847 63.2804 20.7295 63.3353 20.7295H63.5311C63.586 20.7295 63.6408 20.7847 63.6408 20.8399V24.6303C63.6408 25.4104 63.8367 26.0251 64.252 26.4427C64.6672 26.8604 65.247 27.0574 65.9991 27.0574C66.8061 27.0574 67.4173 26.8052 67.8874 26.3009C68.3574 25.7965 68.5768 25.1267 68.5768 24.2914V20.7768C68.5768 20.7217 68.6317 20.6665 68.6865 20.6665H68.8824C68.9059 20.7059 68.9607 20.7611 68.9607 20.8241Z" fill="#684162"/>
<path d="M74.6802 26.8999C74.7037 26.955 74.7037 27.0102 74.6489 27.0417C74.5078 27.152 74.3433 27.2387 74.1161 27.3175C73.8654 27.4042 73.6225 27.4357 73.3718 27.4357C72.8468 27.4357 72.4002 27.2939 72.126 26.9866C71.8205 26.6792 71.6794 26.2616 71.6794 25.7336V21.1867C71.6794 21.1316 71.6246 21.0764 71.5697 21.0764H70.5434C70.5434 21.0764 70.4023 21.0764 70.4023 20.9346C70.4023 20.7927 70.4023 20.9345 70.4023 20.8242C70.4023 20.7139 70.5434 20.7139 70.5434 20.7139H71.5697C71.6246 20.7139 71.6794 20.6587 71.6794 20.6036V19.3427C71.6794 19.2876 71.7343 19.2324 71.7891 19.2324H71.985C72.0398 19.2324 72.0947 19.2876 72.0947 19.3427V20.6036C72.0947 20.6587 72.1495 20.7139 72.2044 20.7139H74.1709C74.1709 20.7139 74.2806 20.7375 74.2806 20.9109C74.2806 21.0764 74.1709 21.0764 74.1709 21.0764H72.2044C72.1495 21.0764 72.0947 21.1316 72.0947 21.1867V25.6469C72.0947 26.0961 72.2044 26.4586 72.4238 26.7108C72.6431 26.955 72.98 27.0732 73.3953 27.0732C73.787 27.0732 74.0926 26.955 74.3668 26.7659C74.3982 26.7344 74.5078 26.7108 74.5627 26.7974C74.6254 26.8762 74.6802 26.8999 74.6802 26.8999Z" fill="#684162"/>
<path d="M81.9745 20.8243C81.9431 20.8795 78.535 28.4366 78.535 28.4366C78.2843 28.9961 78.0022 29.3822 77.6731 29.6344C77.3676 29.8551 76.9837 29.9969 76.5684 29.9969C76.2629 29.9969 75.9886 29.9417 75.7379 29.8551C75.5185 29.7763 75.3227 29.6344 75.1581 29.4926C75.1268 29.4689 75.1033 29.3822 75.1581 29.3507C75.1581 29.3507 75.1816 29.2956 75.2678 29.2168C75.3227 29.1301 75.4324 29.1852 75.4872 29.2168C75.6282 29.3507 75.7693 29.4374 75.9338 29.5241C76.1297 29.6029 76.349 29.6659 76.6233 29.6659C76.9523 29.6659 77.2344 29.5871 77.4851 29.3822C77.7358 29.1852 77.9552 28.8543 78.1746 28.4051L78.5898 27.5462C78.6133 27.5146 78.6133 27.491 78.5898 27.4595C78.5898 27.4595 75.7066 21.1238 75.6439 20.9583C75.5891 20.8243 75.6439 20.7928 75.6988 20.7928C75.7536 20.7928 75.9808 20.7928 75.9808 20.7928C76.0356 20.7928 76.0592 20.8243 76.0905 20.848L78.7543 26.766C78.7857 26.8448 78.9189 26.8448 78.9502 26.766L81.6141 20.848C81.6454 20.8243 81.6689 20.7928 81.7238 20.7928C81.7238 20.7928 81.8648 20.7928 81.9745 20.7928C81.998 20.7061 81.998 20.7613 81.9745 20.8243Z" fill="#684162"/>
<path d="M23.3069 16.5216C21.7008 9.43726 14.9862 11.1079 10.8808 7.70361C6.58724 4.13387 12.3851 -0.160846 11.5467 0.00463857C7.19053 0.839942 5.52953 4.49636 5.3885 7.26232C5.05944 15.0795 13.9834 12.2269 17.2035 17.1993C19.4208 20.6035 18.2847 23.5901 16.9293 25.2371C15.9343 26.4664 14.43 27.0811 13.764 27.3254C13.6778 27.3569 13.7092 27.4672 13.7953 27.4672C14.6572 27.5224 16.9841 27.4357 19.5932 25.5681C21.2542 24.3624 24.2001 20.375 23.3069 16.5216Z" fill="url(#paint0_linear)"/>
<path d="M3.39838 10.9107C2.67757 13.3378 1.09493 14.2047 0.1234 14.512C-0.0411332 14.5672 -0.0411332 14.7957 0.1234 14.843C1.06359 15.1503 2.67757 16.0408 3.39838 18.4442C3.45323 18.6097 3.6491 18.6097 3.70395 18.4442C4.42476 16.0171 6.0074 15.1503 6.97893 14.843C7.14346 14.7878 7.14346 14.5672 6.97893 14.512C6.03874 14.2047 4.42476 13.3142 3.70395 10.9107C3.64127 10.7452 3.45323 10.7452 3.39838 10.9107Z" fill="url(#paint1_linear)"/>
<defs>
<linearGradient id="paint0_linear" x1="-0.382322" y1="4.19091" x2="24.3699" y2="22.0418" gradientUnits="userSpaceOnUse">
<stop stop-color="#FF91C1"/>
<stop offset="1" stop-color="#FF6457"/>
</linearGradient>
<linearGradient id="paint1_linear" x1="-3.98234" y1="9.1873" x2="20.7699" y2="27.0341" gradientUnits="userSpaceOnUse">
<stop stop-color="#FF91C1"/>
<stop offset="1" stop-color="#FF6457"/>
</linearGradient>
</defs>
</svg>
