<svg width="76" height="15" viewBox="0 0 76 15" fill="none" xmlns="http://www.w3.org/2000/svg">
<path d="M66.045 4.43543C64.2185 3.47389 61.7249 3.81209 60.2093 5.23118C58.752 6.5906 58.0849 8.26169 58.3763 10.2511C58.6872 12.4062 59.8984 13.8718 61.8803 14.6742C62.8195 15.0521 63.7975 15.0057 64.7561 14.893C65.8636 14.767 66.8028 14.2232 67.5476 13.3678C67.865 13.0031 67.8909 12.3399 67.6189 11.9487C67.3209 11.5243 66.8676 11.385 66.3883 11.5972C66.2263 11.6702 66.0774 11.7962 65.9414 11.9155C64.7431 12.9765 63.3571 13.1224 61.9969 12.2935C61.2845 11.8625 60.8052 11.2325 60.6109 10.3439C60.7663 10.3439 60.8959 10.3439 61.0189 10.3439C63.37 10.3439 65.7276 10.3439 68.0787 10.3439C68.6681 10.3439 69.0373 10.0521 69.0956 9.45532C69.1345 9.07734 69.1021 8.67946 69.0309 8.30811C68.6681 6.52429 67.6254 5.26434 66.045 4.43543ZM60.6692 8.53357C60.8117 7.43941 62.0164 6.11978 63.655 6.06673C65.0799 6.02031 66.5372 7.141 66.7704 8.53357C64.7172 8.53357 62.6964 8.53357 60.6692 8.53357ZM51.7505 4.16354C51.2388 4.26964 50.9991 4.62773 50.9085 5.11182C50.8761 5.11182 50.8631 5.11845 50.8567 5.11182C50.8243 5.08529 50.7854 5.05877 50.7595 5.03224C49.6196 3.95134 48.2529 3.68609 46.7827 3.97787C43.7256 4.59458 41.8667 7.44604 42.5144 10.7086C42.8771 12.519 43.9393 13.8386 45.6039 14.5681C46.7827 15.0853 48.0262 15.145 49.2374 14.7139C49.8204 14.5017 50.345 14.1171 50.9149 13.7922C50.9085 13.7723 50.9214 13.8121 50.9279 13.8519C51.0639 14.5283 51.459 14.8267 52.1326 14.767C52.7155 14.7139 53.0329 14.3293 53.0329 13.6529C53.0329 10.8479 53.0329 8.04285 53.0329 5.23781C53.0394 4.45532 52.4824 4.00439 51.7505 4.16354ZM47.8643 12.824C45.999 12.8439 44.5287 11.3983 44.5028 9.50837C44.4769 7.61845 45.9213 6.09325 47.7542 6.06673C49.5159 6.04683 50.8826 7.49909 50.9085 9.42879C50.9279 11.2988 49.5807 12.8041 47.8643 12.824ZM29.3209 3.8784C26.3545 3.87177 23.9257 6.39829 23.8998 9.46858C23.8803 12.5521 26.4841 15.1317 29.2821 14.946C32.1643 15.145 34.7227 12.519 34.7097 9.48848C34.7033 6.41819 32.2874 3.88503 29.3209 3.8784ZM29.3145 12.824C27.475 12.824 26.0307 11.3452 26.0307 9.46858C26.0307 7.5654 27.4815 6.06673 29.3145 6.06673C31.141 6.06673 32.5983 7.58529 32.5983 9.48185C32.5918 11.332 31.128 12.824 29.3145 12.824ZM22.9153 8.44073C22.9347 10.198 22.9282 11.9553 22.9218 13.7126C22.9218 14.4023 22.5267 14.7736 21.866 14.767C21.2119 14.7604 20.8297 14.3757 20.8297 13.6861C20.8232 11.9951 20.8427 10.3041 20.8232 8.61314C20.8103 7.71792 20.5059 6.93543 19.7481 6.43145C18.9773 5.92084 18.1483 5.92084 17.3387 6.31208C16.4513 6.74975 16.0109 7.53224 15.998 8.52694C15.972 10.2511 15.9915 11.9752 15.985 13.6994C15.985 14.2299 15.7454 14.5813 15.3179 14.7206C14.8321 14.8797 14.2881 14.7338 14.0484 14.336C13.9383 14.1503 13.8671 13.9049 13.8671 13.6861C13.8541 10.8346 13.8606 7.98317 13.8606 5.13171C13.8606 4.58132 14.1326 4.24312 14.6313 4.15028C15.1171 4.05744 15.5705 4.31606 15.7454 4.78689C15.7713 4.85983 15.7972 4.92614 15.849 5.05214C16.3607 4.515 16.9371 4.19007 17.5913 4.00439C19.2817 3.52694 21.3349 4.37575 22.2158 5.92084C22.6627 6.70333 22.9023 7.54551 22.9153 8.44073ZM12.5134 9.11049C12.5263 10.6556 12.5199 12.2073 12.5134 13.7524C12.5134 14.2564 12.2802 14.5813 11.8722 14.7139C11.3864 14.8731 10.8488 14.7537 10.6221 14.3625C10.4991 14.1503 10.4343 13.8651 10.4343 13.6131C10.4149 11.9752 10.4278 10.3439 10.4213 8.70598C10.4149 7.81076 10.1428 7.0349 9.41094 6.4845C8.01193 5.43675 5.88103 6.34524 5.63491 8.10254C5.58957 8.42747 5.57661 8.75904 5.57661 9.0906C5.57014 10.6291 5.57661 12.1609 5.57014 13.6994C5.56366 14.4222 5.17505 14.7869 4.46259 14.767C3.89262 14.7471 3.53639 14.4155 3.47162 13.8386C3.45867 13.7391 3.45867 13.6397 3.45867 13.5402C3.45867 10.7683 3.45867 7.99643 3.45867 5.21792C3.45867 4.37575 4.02863 3.94471 4.78643 4.20333C5.09085 4.30943 5.20095 4.44206 5.46003 5.01898C6.69712 3.82535 8.12204 3.59988 9.65059 4.13702C11.2569 4.70068 12.1312 5.94073 12.4162 7.62508C12.5004 8.10917 12.5134 8.61314 12.5134 9.11049ZM42.5856 5.41023C42.4172 6.04683 42.1906 6.66354 41.9703 7.28689C41.2579 9.29617 40.5325 11.2988 39.8135 13.3081C39.7164 13.5866 39.6192 13.8718 39.4962 14.1436C39.3148 14.5482 38.9974 14.7803 38.5505 14.767C38.0907 14.7537 37.7668 14.5216 37.6049 14.0906C37.2292 13.0826 36.8665 12.0681 36.4974 11.0535C35.8561 9.27628 35.2149 7.49909 34.5737 5.7219C34.4247 5.30413 34.4053 4.89299 34.7227 4.54153C35.0401 4.18344 35.4351 4.06407 35.895 4.19007C36.2383 4.28291 36.4132 4.52827 36.5233 4.83994C37.0608 6.36514 37.6049 7.89033 38.1425 9.41553C38.272 9.78689 38.4016 10.1582 38.5311 10.5296C38.557 10.5296 38.5829 10.523 38.6088 10.523C38.9003 9.68742 39.1917 8.84524 39.4832 8.0097C39.8524 6.94869 40.2151 5.88768 40.5843 4.83331C40.7851 4.26964 41.2449 4.03092 41.8214 4.19007C42.3654 4.32933 42.7281 4.85983 42.5856 5.41023ZM58.6354 13.3015C58.7779 13.7458 58.7714 14.1967 58.3699 14.5084C58.195 14.6476 57.9424 14.7272 57.7157 14.7471C55.7661 14.9261 54.4772 13.7325 54.4513 11.6901C54.4254 10.0654 54.4384 8.44073 54.4513 6.8227C54.4513 6.57071 54.4254 6.41155 54.1469 6.31208C53.7065 6.15293 53.5122 5.69537 53.5705 5.13835C53.6158 4.70068 53.8814 4.39564 54.3348 4.26964C54.3671 4.26301 54.393 4.24312 54.4513 4.21659C54.4513 3.68609 54.4513 3.14896 54.4513 2.60519C54.4513 2.06142 54.4513 1.52429 54.4513 0.98052C54.4513 0.496436 54.7946 -0.00754313 55.4099 -0.000911826C56.226 0.00571947 56.5628 0.324022 56.5628 1.17283C56.5628 2.05479 56.5628 2.93675 56.5628 3.82535C56.5628 3.94471 56.5628 4.06407 56.5628 4.22986C56.796 4.22986 56.9968 4.22323 57.1975 4.22986C57.8711 4.24975 58.2792 4.66752 58.2727 5.32402C58.2662 5.954 57.8452 6.38503 57.204 6.40492C57.0032 6.41155 56.8025 6.40492 56.5628 6.40492C56.5628 6.56407 56.5628 6.68344 56.5628 6.8028C56.5628 8.28158 56.5628 9.76036 56.5628 11.2458C56.5628 12.2405 56.8478 12.572 57.8193 12.6649C58.2274 12.7113 58.5059 12.9102 58.6354 13.3015ZM2.1309 13.6529C2.13738 14.7007 1.23061 14.9527 0.582921 14.6675C0.155446 14.4818 0 14.1039 0 13.6529C0 12.141 0 10.6291 0 9.11049C0 6.70996 0 4.31606 0 1.91553C0 1.41819 0.27203 1.02694 0.705983 0.867788C1.1205 0.715269 1.63866 0.821369 1.8783 1.18609C2.02727 1.40492 2.11795 1.70996 2.11795 1.98185C2.13738 3.92482 2.1309 5.86779 2.1309 7.81739C2.1309 9.76036 2.12442 11.71 2.1309 13.6529ZM72.075 3.95134C71.0516 4.14365 70.2809 5.15824 70.3457 6.22588C70.378 6.76301 70.54 7.24047 70.9286 7.61845C71.1164 7.7975 71.3366 7.83728 71.5439 7.6715C71.7641 7.49246 71.7188 7.26699 71.5633 7.05479C71.505 6.97521 71.4403 6.89564 71.3884 6.81606C70.9156 6.09988 71.3237 5.01235 72.1398 4.91288C72.1398 5.02561 72.1398 5.13171 72.1398 5.23781C72.1398 6.07336 72.1398 6.91553 72.1398 7.75108C72.1398 8.20864 72.2823 8.34126 72.7292 8.30147C74.0505 8.18211 74.9378 6.70996 74.4909 5.39033C74.1476 4.38238 73.0984 3.75903 72.075 3.95134ZM72.8522 7.3333C72.8522 6.53092 72.8522 5.73516 72.8522 4.91288C73.4092 5.05214 73.7719 5.54285 73.7655 6.12641C73.7655 6.6967 73.3898 7.20068 72.8522 7.3333ZM70.9545 1.41155C71.3625 1.41819 71.7706 1.41155 72.1981 1.41155C72.224 1.8028 72.224 2.14763 72.2758 2.48583C72.3988 3.33463 73.1696 3.95797 74.0245 3.93145C74.9119 3.90492 75.6179 3.27495 75.7021 2.40625C75.7409 1.96858 75.7344 1.52429 75.7344 1.07999C75.7344 0.662218 75.6179 0.549486 75.2098 0.549486C73.7978 0.549486 72.3794 0.549486 70.9674 0.549486C70.6306 0.549486 70.4234 0.7219 70.4169 0.98052C70.4169 1.24577 70.6112 1.41155 70.9545 1.41155ZM73.0724 1.59723C73.0724 1.53755 73.1761 1.42482 73.2344 1.42482C73.7784 1.41155 74.3289 1.41819 74.9507 1.41819C74.9119 1.79617 74.9184 2.1211 74.8406 2.42614C74.737 2.84392 74.3484 3.0959 73.9339 3.06938C73.5323 3.04949 73.189 2.77097 73.1113 2.3532C73.0595 2.10784 73.066 1.84922 73.0724 1.59723ZM27.1253 2.65161C26.9957 2.18742 27.2224 1.71659 27.6693 1.56407C28.5178 1.27893 29.3728 1.01368 30.2277 0.741794C30.5645 0.635693 30.9013 0.516329 31.2446 0.410229C31.3547 0.377072 31.4713 0.357178 31.5101 0.350547C31.9959 0.350547 32.2874 0.576011 32.3651 0.953995C32.4687 1.44471 32.3068 1.86248 31.9052 1.99511C30.6293 2.41951 29.3469 2.83065 28.058 3.22853C27.6175 3.36779 27.2548 3.12243 27.1253 2.65161ZM74.5233 14.3094C74.5233 14.5879 74.3484 14.7405 73.9857 14.7405C73.0077 14.7471 72.0232 14.7405 71.0452 14.7405C70.812 14.7405 70.5141 14.7869 70.4622 14.4752C70.4299 14.2962 70.5659 14.084 70.6501 13.8253C70.242 13.4009 70.242 12.8108 70.4687 12.2139C70.7019 11.6039 71.1812 11.2657 71.8094 11.2259C72.5737 11.1795 73.338 11.1927 74.1023 11.1927C74.3613 11.1927 74.5297 11.3585 74.5233 11.637C74.5168 11.9222 74.3354 12.0415 74.0699 12.0415C73.4092 12.0415 72.7551 12.0349 72.0944 12.0482C71.4726 12.0614 71.1488 12.4195 71.1682 13.023C71.1877 13.5468 71.4986 13.8585 72.0491 13.8651C72.6968 13.8784 73.3445 13.8651 73.9922 13.8718C74.3549 13.885 74.5233 14.0243 74.5233 14.3094ZM74.5233 10.576C74.5686 10.828 74.3937 10.9739 74.1606 10.9938C73.9209 11.0137 73.7396 10.9142 73.7201 10.6224C73.7136 10.523 73.6942 10.4235 73.6748 10.3307C73.5776 9.80678 73.338 9.58795 72.8134 9.57468C72.1981 9.56142 71.5827 9.56805 70.9674 9.56805C70.6242 9.56805 70.4234 9.4089 70.4169 9.15028C70.4104 8.87177 70.6112 8.70598 70.9804 8.70598C71.9714 8.70598 72.9688 8.70598 73.9598 8.70598C74.2059 8.70598 74.4909 8.73251 74.5038 9.03755C74.5103 9.21659 74.3419 9.4089 74.2707 9.56805C74.3484 9.87309 74.4585 10.2179 74.5233 10.576ZM76 13.9314C75.9093 14.0309 75.8186 14.2033 75.7215 14.21C75.5919 14.2232 75.3782 14.1304 75.3393 14.0309C75.1515 13.5269 75.0026 13.0163 74.873 12.4925C74.8471 12.3864 74.9572 12.1609 75.0414 12.1344C75.158 12.1012 75.4106 12.1675 75.443 12.2604C75.6502 12.7842 75.8057 13.328 76 13.9314Z" fill="#C5CDDB"/>
</svg>
