<svg width="65" height="48" viewBox="0 0 65 48" fill="none" xmlns="http://www.w3.org/2000/svg">
<path d="M45.6955 45.3179C45.6879 45.2944 45.6726 45.2788 45.6649 45.2554C45.619 45.1852 45.5425 45.1462 45.4507 45.1462C45.4507 45.1462 45.4507 45.1462 45.443 45.1462C45.4277 45.1462 45.4124 45.1462 45.3895 45.154C45.3818 45.154 45.3818 45.154 45.3742 45.154L40.8987 45.5832L40.9982 42.6099L44.6933 42.5631C44.6933 42.5631 44.6933 42.5631 44.701 42.5631C44.7086 42.5631 44.701 42.5631 44.7086 42.5631C44.8234 42.5631 44.9152 42.4928 44.9534 42.3914C44.9534 42.3914 44.9534 42.3914 44.9611 42.3836C45.0529 42.1573 45.0988 41.8529 45.0988 41.4783C45.0988 41.1038 45.0529 40.8072 44.9611 40.5809V40.5731C44.9228 40.4716 44.8234 40.4092 44.7086 40.4092L41.0288 40.6433L41.1359 38.2475L45.3818 38.2787C45.5501 38.068 45.642 37.7325 45.6573 37.2798C45.6649 36.9599 45.642 36.7024 45.5807 36.5073C45.5731 36.4838 45.5654 36.4682 45.5578 36.4526C45.5578 36.4526 45.5578 36.4526 45.5578 36.4448C45.5119 36.3512 45.4201 36.2887 45.3053 36.2887L39.0014 36.3668C38.9861 36.3668 38.9708 36.3668 38.9479 36.3746C38.9402 36.3746 38.9402 36.3746 38.9326 36.3746C38.8331 36.398 38.749 36.4838 38.726 36.5853V36.6009L38.7184 36.6711L38.2288 47.3469C38.2288 47.3547 38.2288 47.3625 38.2288 47.3703V47.3859C38.2364 47.5342 38.3512 47.6434 38.4965 47.6512H38.5271L45.4354 47.503C45.5425 47.503 45.6343 47.4405 45.6802 47.3547C45.6879 47.3391 45.6955 47.3235 45.7032 47.3079C45.8179 47.0425 45.8715 46.6992 45.8715 46.2855C45.8715 45.8641 45.8179 45.552 45.6955 45.3179Z" fill="#515050"/>
<path d="M56.2912 46.8396C56.2759 46.8318 56.2453 46.8006 56.2377 46.7928C55.9011 46.4884 55.4497 45.9734 54.8912 45.2632C54.195 44.3658 53.7513 43.7103 53.5754 43.281C55.1437 42.6333 55.924 41.4549 55.924 39.7459C55.924 38.4972 55.4956 37.5842 54.6464 36.9989C53.7896 36.4136 52.6191 36.1171 51.112 36.1171C49.9185 36.1171 48.8398 36.2419 47.8759 36.4838C47.8453 36.4916 47.8146 36.4994 47.784 36.5073C47.7458 36.5229 47.7152 36.5463 47.6846 36.5775C47.6387 36.6243 47.6081 36.6789 47.6004 36.7414V36.8272L47.195 47.4405C47.195 47.4795 47.2026 47.5264 47.2179 47.5654C47.2332 47.5966 47.2485 47.6356 47.2868 47.6668C47.3174 47.6981 47.348 47.7215 47.3786 47.7293C47.3862 47.7371 47.4015 47.7371 47.4092 47.7449C47.6999 47.8541 48.0748 47.901 48.5414 47.8853C49.0158 47.8697 49.3906 47.7917 49.666 47.6434C49.689 47.6356 49.7119 47.62 49.7349 47.6044C49.7502 47.5966 49.7655 47.581 49.7808 47.5732C49.842 47.5108 49.8726 47.4249 49.8726 47.3469V43.5074C50.4693 43.6478 50.9972 43.7025 51.4715 43.6634C51.6245 44.2955 51.9611 45.0681 52.4584 45.989C52.9633 46.9099 53.3918 47.542 53.759 47.8853C54.1644 48.0258 54.6847 48.0024 55.3196 47.8151C55.7634 47.6824 56.0847 47.5108 56.2912 47.2922C56.2912 47.2922 56.2912 47.2922 56.2989 47.2844C56.3065 47.2766 56.3065 47.2766 56.3065 47.2688C56.406 47.1518 56.406 46.9567 56.2912 46.8396ZM52.8027 41.3067C52.4125 41.6422 51.9152 41.8061 51.3262 41.8061C50.8365 41.8061 50.3775 41.7515 49.9644 41.6344V38.2553C50.3622 38.1383 50.783 38.0836 51.2344 38.0836C51.8923 38.0836 52.4202 38.2475 52.8103 38.5675C53.2005 38.8952 53.3994 39.3557 53.3994 39.9488C53.3918 40.5185 53.1929 40.9711 52.8027 41.3067Z" fill="#515050"/>
<path d="M64.2323 42.3602C63.7503 41.8295 62.9777 41.2598 61.9143 40.6433C61.3099 40.2921 60.8815 40.0034 60.629 39.7771C60.3765 39.5586 60.2541 39.2854 60.2541 38.9811C60.2541 38.6377 60.3689 38.3802 60.5984 38.2007C60.8279 38.0212 61.1416 37.9276 61.5394 37.9276C62.2662 37.9276 63.0159 38.2475 63.7962 38.8874C63.8115 38.9031 63.8268 38.9187 63.8421 38.9265C63.888 38.9577 63.9492 38.9811 64.0181 38.9811C64.087 38.9811 64.1405 38.9577 64.1864 38.9265C64.1864 38.9265 64.1864 38.9265 64.1941 38.9187C64.217 38.9031 64.2323 38.8796 64.2553 38.864C64.4159 38.6923 64.5536 38.4348 64.676 38.0836C64.8214 37.6544 64.8826 37.2798 64.8596 36.9677C64.8596 36.9443 64.8596 36.9287 64.8596 36.9053C64.8596 36.8974 64.8596 36.8818 64.852 36.874C64.8367 36.796 64.7908 36.7258 64.7296 36.6867C64.7066 36.6711 64.6913 36.6633 64.6684 36.6555C63.8039 36.2185 62.664 36 61.2563 36C60.0782 36 59.1754 36.2653 58.5634 36.8038C57.9437 37.3345 57.6377 38.068 57.6377 39.0123C57.6377 39.7615 57.8366 40.3858 58.2268 40.893C58.6169 41.4003 59.206 41.8919 59.9864 42.3602C60.0705 42.4148 60.2312 42.5085 60.476 42.6333C60.7131 42.7582 60.8968 42.8596 61.0268 42.9377C61.1492 43.0157 61.3099 43.1172 61.5088 43.2576C61.7 43.3981 61.8454 43.5308 61.9448 43.6478C62.0443 43.7727 62.1361 43.921 62.2126 44.0848C62.2891 44.2565 62.3274 44.4282 62.3274 44.6155C62.3274 44.9589 62.205 45.2476 61.9602 45.4817C61.7153 45.7159 61.3634 45.8329 60.9044 45.8329C60.1088 45.8329 59.3667 45.4349 58.6629 44.6389C58.6322 44.6077 58.6093 44.5765 58.5787 44.5453C58.5251 44.5063 58.4639 44.4828 58.3951 44.4828C58.3186 44.4828 58.2497 44.5141 58.1885 44.5609C58.1732 44.5687 58.1656 44.5843 58.1579 44.5921C58.1426 44.5999 58.135 44.6155 58.1273 44.6233C57.9514 44.834 57.806 45.1462 57.6836 45.552C57.5306 46.067 57.477 46.4806 57.5306 46.8084C57.5306 46.824 57.5306 46.8396 57.5382 46.8552C57.5382 46.863 57.5382 46.8786 57.5459 46.8864C57.5612 46.9567 57.6071 47.0191 57.6607 47.0659C57.676 47.0737 57.6913 47.0893 57.7066 47.0972C57.7142 47.105 57.7219 47.105 57.7295 47.1128C58.5328 47.5888 59.6344 47.8229 61.0268 47.8229C62.2585 47.8229 63.2301 47.503 63.9263 46.8552C64.6225 46.2075 64.9744 45.4115 64.9744 44.4672C64.9514 43.5776 64.7143 42.883 64.2323 42.3602Z" fill="#515050"/>
<path fill-rule="evenodd" clip-rule="evenodd" d="M32.3534 36.1172C33.8605 36.1172 35.0386 36.445 35.8878 37.1005C36.737 37.756 37.1654 38.7081 37.1654 39.9645C37.1654 41.1741 36.7294 42.1418 35.8572 42.8676C34.9774 43.5933 33.9676 43.9601 32.8047 43.9601C32.1927 43.9601 31.6189 43.8509 31.0834 43.6402L31.114 47.3626C31.114 47.4485 31.0834 47.5265 31.0222 47.5889C31.0069 47.6045 30.9916 47.6201 30.9763 47.6279C30.9725 47.6279 30.9686 47.6299 30.9648 47.6318C30.961 47.6338 30.9572 47.6357 30.9533 47.6357L30.9074 47.6592C30.6244 47.7996 30.2495 47.8699 29.7828 47.8777C29.3085 47.8855 28.926 47.823 28.62 47.706C28.5052 47.6592 28.4287 47.5499 28.4287 47.4172L28.8189 36.7961V36.7181C28.8418 36.6166 28.9183 36.5386 29.0101 36.5074C29.0145 36.5029 29.0164 36.501 29.0187 36.5002C29.0203 36.4996 29.0222 36.4996 29.0254 36.4996H29.0407C30.0429 36.242 31.1446 36.1172 32.3534 36.1172ZM32.3839 41.9545C33.0419 41.9545 33.5851 41.775 33.9982 41.416C34.4189 41.0571 34.6255 40.5654 34.6255 39.9255C34.6255 39.3714 34.4342 38.9344 34.0594 38.5988C33.6845 38.2633 33.1643 38.0994 32.4911 38.0994C32.0397 38.0994 31.596 38.1618 31.1446 38.2789L31.1599 41.7594C31.6113 41.8921 32.0167 41.9545 32.3839 41.9545Z" fill="#3EBDDE"/>
<path d="M9.67005 36.3123C9.77715 36.3357 9.86131 36.4215 9.88426 36.5308C9.88426 36.5464 9.88426 36.5698 9.91486 36.562L9.34108 47.347V47.3548C9.34108 47.3618 9.33954 47.3688 9.33784 47.3766C9.33575 47.386 9.33343 47.3965 9.33343 47.4094C9.31048 47.5109 9.23398 47.5889 9.13452 47.6201C9.12687 47.6201 9.11922 47.6201 9.10392 47.6279H9.09627C8.79026 47.6904 8.40774 47.7216 7.94107 47.706C7.48205 47.6904 7.09953 47.6592 6.79351 47.5967C6.78969 47.5967 6.78586 47.5948 6.78204 47.5928C6.77821 47.5909 6.77439 47.5889 6.77056 47.5889C6.67111 47.5655 6.59461 47.4875 6.57165 47.386L6.59461 47.1909L6.77821 42.6647L5.17164 42.6334L3.77162 42.6022H3.06779L2.70057 47.0973L2.69293 47.2612C2.6891 47.269 2.68719 47.2748 2.68527 47.2807C2.68336 47.2865 2.68145 47.2924 2.67762 47.3002C2.64702 47.3548 2.60112 47.4016 2.54757 47.4328C2.53898 47.4372 2.53038 47.4391 2.52044 47.4414C2.51267 47.4431 2.50408 47.445 2.49402 47.4485C2.48637 47.4563 2.47107 47.4563 2.46342 47.4563C2.19565 47.5421 1.82843 47.5967 1.36941 47.6123C0.933343 47.6279 0.566126 47.6123 0.283063 47.5811H0.275413C0.263947 47.5811 0.250572 47.5792 0.237195 47.5772C0.223807 47.5753 0.210385 47.5733 0.19891 47.5733H0.191259C0.107105 47.5421 0.0459019 47.4797 0.0153005 47.4016C0.00765012 47.3782 0 47.3548 0 47.3236V47.3002L0.642629 36.5308L0.65028 36.4606C0.673231 36.3591 0.757386 36.2733 0.856841 36.2499H0.87214C1.1705 36.1718 1.56067 36.1328 2.05029 36.125C2.54757 36.1172 2.95304 36.1406 3.282 36.2108C3.38911 36.2342 3.47326 36.3201 3.49621 36.4293L3.47326 36.6088L3.2514 40.3625H3.54211L6.93122 40.3157L7.07658 36.7181L7.06893 36.5386C7.09188 36.4528 7.15308 36.3903 7.22959 36.3591C7.23965 36.3557 7.24824 36.3538 7.25601 36.352C7.26595 36.3498 7.27455 36.3479 7.28314 36.3435H7.29079C7.58915 36.2655 7.97932 36.2264 8.47659 36.2186C8.96622 36.2186 9.36403 36.242 9.67005 36.3123Z" fill="#3EBDDE"/>
<path d="M19.057 45.2868C19.0628 45.2965 19.0685 45.3063 19.0723 45.318C19.1947 45.5521 19.2559 45.8643 19.2483 46.2857C19.2483 46.6993 19.1947 47.0427 19.08 47.308L19.057 47.3548C19.0111 47.4407 18.9193 47.5031 18.8122 47.5031L11.904 47.6514H11.8734C11.728 47.6436 11.6132 47.5343 11.6056 47.386V47.347L12.0952 36.6713L12.1029 36.601V36.5854C12.1258 36.484 12.21 36.3981 12.3094 36.3747H12.3247C12.3477 36.3669 12.363 36.3669 12.3783 36.3669L18.6822 36.2889C18.7969 36.2889 18.8887 36.3513 18.9346 36.445V36.4528C18.9423 36.4684 18.9499 36.484 18.9576 36.5074C19.0188 36.7025 19.0417 36.96 19.0341 37.28C19.0188 37.7326 18.927 38.0682 18.7587 38.2789L14.5127 38.2477L14.4056 40.6435L18.0854 40.4093C18.2002 40.4093 18.2996 40.4718 18.3379 40.5732V40.581C18.4297 40.8073 18.4756 41.1039 18.4756 41.4785C18.4756 41.8531 18.4297 42.1574 18.3379 42.3837L18.3302 42.3915C18.292 42.493 18.2002 42.5632 18.0854 42.5632H18.0701L14.375 42.61L14.2756 45.5833L18.751 45.1541H18.7663C18.7893 45.1463 18.8046 45.1463 18.8199 45.1463H18.8275C18.9193 45.1463 18.9958 45.1853 19.0417 45.2556C19.0456 45.2673 19.0513 45.277 19.057 45.2868Z" fill="#3EBDDE"/>
<path d="M27.2506 45.0292C27.2123 44.9278 27.1129 44.8576 26.9981 44.8576H26.9904C26.9751 44.8576 26.9598 44.8576 26.9369 44.8654H26.9216L23.2265 45.1853L23.9227 36.6166C23.9227 36.6038 23.925 36.5932 23.9271 36.5838C23.9288 36.5761 23.9303 36.569 23.9303 36.562C23.9303 36.4293 23.8385 36.3201 23.7237 36.2889C23.7206 36.2889 23.7174 36.2875 23.7137 36.286C23.7084 36.2837 23.7021 36.2811 23.6931 36.2811C23.3489 36.203 22.8975 36.1796 22.3543 36.1874C21.8188 36.1952 21.4057 36.2342 21.1226 36.3201H21.1073C21.0961 36.3201 21.089 36.3243 21.08 36.3296C21.0767 36.3315 21.0732 36.3336 21.0691 36.3357C20.9849 36.3669 20.9237 36.4449 20.9008 36.5386V36.6088L20.5565 47.3392V47.3548C20.5642 47.4953 20.6713 47.6123 20.809 47.6201H20.8549L26.891 47.5733C26.9675 47.5733 27.0364 47.5421 27.0823 47.4953C27.0899 47.4875 27.0976 47.4797 27.1052 47.4641C27.1098 47.4571 27.1143 47.4508 27.1187 47.4448C27.129 47.4306 27.1381 47.4181 27.1435 47.4016V47.3938C27.3118 47.1285 27.3959 46.7383 27.4036 46.2232C27.4265 45.7082 27.373 45.3102 27.2506 45.0292Z" fill="#3EBDDE"/>
<path d="M38.9502 0H23.7459C19.7742 0 16.5454 3.27189 16.5454 7.29647V22.7035C16.5454 26.6513 19.6378 29.8618 23.4882 30C23.5791 30 23.6701 30 23.7459 30H28.7786V20.0461C28.7786 19.9846 28.7028 19.831 28.6422 19.7542L23.7156 15.361C23.1092 14.8694 22.7302 14.1014 22.7302 13.2565C22.7302 12.8879 22.806 12.5499 22.9273 12.2273L23.0486 11.9508C23.0486 11.9508 23.0486 11.9508 23.0486 11.9355L25.1708 7.38863C25.186 7.35791 25.2011 7.32719 25.2163 7.29647C25.2314 7.26574 25.2618 7.25038 25.2769 7.21966C25.383 7.11213 25.5195 7.06605 25.6407 7.06605H28.2177C28.5057 7.06605 28.7483 7.31183 28.7483 7.60369V12.5653H33.872V7.60369C33.872 7.31183 34.0994 7.06605 34.4025 7.06605H36.9796C37.1615 7.06605 37.3282 7.15822 37.4192 7.29647C37.4343 7.31183 37.4343 7.31183 37.4343 7.32719L37.4646 7.41935L39.5414 11.874L39.7536 12.3502C39.8597 12.6421 39.9204 12.9493 39.9204 13.2719C39.9204 14.0092 39.6324 14.6851 39.1473 15.1767L39.1321 15.192L38.8744 15.4071L33.9933 19.7542C33.9478 19.8157 33.8568 19.9846 33.8568 20.0614V29.9846H38.9047C39.0715 29.9846 39.2382 29.9846 39.405 29.9693C39.7081 29.9539 39.9962 29.9078 40.2842 29.8464C43.5888 29.1859 46.09 26.2366 46.09 22.6882V7.29647C46.1507 3.27189 42.9218 0 38.9502 0Z" fill="#3EBDDE"/>
</svg>
