<svg width="170" height="170" viewBox="0 0 170 170" fill="none" xmlns="http://www.w3.org/2000/svg">
<path d="M150.319 77.2844H143.78C143.78 61.8162 137.636 46.9814 126.698 36.0437C115.76 25.106 100.925 18.9613 85.4572 18.9613C69.989 18.9613 55.1543 25.106 44.2166 36.0437C33.2789 46.9814 27.1342 61.8162 27.1342 77.2844H20.5957C20.5957 60.082 27.4293 43.5843 39.5932 31.4204C51.7571 19.2565 68.2549 12.4229 85.4572 12.4229C102.66 12.4229 119.157 19.2565 131.321 31.4204C143.485 43.5843 150.319 60.082 150.319 77.2844Z" fill="#2E3849"/>
<path d="M137.897 77.2839H131.358C131.358 71.2734 130.175 65.3217 127.874 59.7688C125.574 54.2158 122.203 49.1702 117.953 44.9202C113.703 40.6701 108.657 37.2987 103.104 34.9986C97.5514 32.6985 91.5997 31.5146 85.5892 31.5146C79.5787 31.5146 73.6271 32.6985 68.0741 34.9986C62.5211 37.2987 57.4756 40.6701 53.2255 44.9202C48.9754 49.1702 45.6041 54.2158 43.304 59.7688C41.0039 65.3217 39.82 71.2734 39.82 77.2839H33.2815C33.2815 63.411 38.7925 50.1063 48.6021 40.2968C58.4117 30.4872 71.7164 24.9762 85.5892 24.9762C99.4621 24.9762 112.767 30.4872 122.576 40.2968C132.386 50.1063 137.897 63.411 137.897 77.2839Z" fill="#2E3849"/>
<path d="M111.612 131.162H105.074V105.008C105.049 103.316 104.37 101.699 103.177 100.497C101.976 99.3047 100.359 98.625 98.6659 98.6008H72.5121C70.8195 98.625 69.2022 99.3047 68.0005 100.497C66.8083 101.699 66.1286 103.316 66.1044 105.008V131.162H59.5659V105.008C59.5659 101.54 60.9437 98.2141 63.3961 95.7617C65.8485 93.3093 69.1746 91.9316 72.6428 91.9316H98.7967C102.265 91.9316 105.591 93.3093 108.043 95.7617C110.496 98.2141 111.874 101.54 111.874 105.008L111.612 131.162Z" fill="#0081EB"/>
<path d="M77.676 110.173H71.1375V153.654H77.676V110.173Z" fill="#0081EB"/>
<path d="M100.3 110.173H93.7619V153.654H100.3V110.173Z" fill="#0081EB"/>
<path d="M85.4575 84.1503C82.7806 84.1503 80.1639 83.3565 77.9381 81.8693C75.7123 80.3821 73.9776 78.2683 72.9532 75.7951C71.9288 73.322 71.6607 70.6007 72.183 67.9752C72.7052 65.3497 73.9943 62.9381 75.8871 61.0453C77.78 59.1524 80.1916 57.8634 82.8171 57.3411C85.4425 56.8189 88.1639 57.0869 90.637 58.1113C93.1101 59.1357 95.224 60.8705 96.7112 63.0962C98.1984 65.322 98.9921 67.9388 98.9921 70.6157C98.9921 72.3931 98.6421 74.1531 97.9619 75.7951C97.2817 77.4372 96.2848 78.9293 95.028 80.1861C93.7711 81.4429 92.2791 82.4399 90.637 83.12C88.9949 83.8002 87.2349 84.1503 85.4575 84.1503ZM85.4575 63.6849C84.0738 63.6849 82.7212 64.0952 81.5707 64.864C80.4202 65.6327 79.5234 66.7254 78.9939 68.0037C78.4644 69.2821 78.3259 70.6888 78.5958 72.0459C78.8658 73.4031 79.5321 74.6497 80.5105 75.6281C81.4889 76.6065 82.7355 77.2728 84.0927 77.5428C85.4498 77.8127 86.8565 77.6742 88.1348 77.1447C89.4132 76.6151 90.5059 75.7184 91.2746 74.5679C92.0434 73.4174 92.4537 72.0648 92.4537 70.6811C92.4623 69.7568 92.2877 68.84 91.94 67.9837C91.5923 67.1273 91.0783 66.3483 90.4278 65.6917C89.7773 65.0351 89.0031 64.5139 88.15 64.1583C87.2969 63.8026 86.3818 63.6195 85.4575 63.6195V63.6849Z" fill="#0081EB"/>
<path d="M153.001 143.78H146.462V124.95C146.438 123.257 145.758 121.64 144.566 120.438C143.364 119.246 141.747 118.566 140.055 118.542H116.647V112.003H140.055C143.523 112.003 146.849 113.381 149.301 115.834C151.754 118.286 153.132 121.612 153.132 125.08L153.001 143.78Z" fill="#2E3849"/>
<path d="M141.688 130.115H135.15V153.654H141.688V130.115Z" fill="#2E3849"/>
<path d="M24.5194 143.78H17.981V124.949C17.981 121.481 19.3587 118.155 21.8111 115.703C24.2635 113.25 27.5897 111.873 31.0579 111.873H54.2694V118.411H31.0579C29.3238 118.411 27.6607 119.1 26.4345 120.326C25.2083 121.552 24.5194 123.215 24.5194 124.949V143.78Z" fill="#2E3849"/>
<path d="M35.7654 130.115H29.2269V153.654H35.7654V130.115Z" fill="#2E3849"/>
<path d="M126.911 106.707C124.648 106.707 122.436 106.036 120.554 104.779C118.672 103.521 117.206 101.734 116.34 99.6434C115.474 97.5526 115.247 95.2519 115.689 93.0323C116.13 90.8127 117.22 88.7739 118.82 87.1736C120.42 85.5734 122.459 84.4836 124.679 84.0421C126.898 83.6006 129.199 83.8272 131.29 84.6933C133.381 85.5593 135.168 87.0259 136.425 88.9076C137.682 90.7892 138.353 93.0015 138.353 95.2646C138.353 98.2993 137.148 101.21 135.002 103.356C132.856 105.501 129.946 106.707 126.911 106.707ZM126.911 90.3607C125.941 90.3607 124.993 90.6483 124.187 91.1872C123.38 91.726 122.752 92.4919 122.381 93.388C122.009 94.284 121.912 95.27 122.102 96.2213C122.291 97.1725 122.758 98.0463 123.444 98.7321C124.129 99.4179 125.003 99.885 125.954 100.074C126.906 100.263 127.892 100.166 128.788 99.7951C129.684 99.424 130.45 98.7954 130.989 97.989C131.527 97.1826 131.815 96.2345 131.815 95.2646C131.815 93.964 131.298 92.7167 130.379 91.797C129.459 90.8774 128.212 90.3607 126.911 90.3607Z" fill="#2E3849"/>
<path d="M44.1348 106.707C41.8717 106.707 39.6595 106.036 37.7778 104.779C35.8961 103.521 34.4295 101.734 33.5635 99.6434C32.6975 97.5526 32.4709 95.2519 32.9124 93.0323C33.3539 90.8127 34.4436 88.7739 36.0439 87.1736C37.6441 85.5734 39.6829 84.4836 41.9025 84.0421C44.1221 83.6006 46.4228 83.8272 48.5136 84.6933C50.6044 85.5593 52.3914 87.0259 53.6487 88.9076C54.906 90.7892 55.5771 93.0015 55.5771 95.2646C55.5771 98.2993 54.3716 101.21 52.2257 103.356C50.0799 105.501 47.1695 106.707 44.1348 106.707ZM44.1348 90.3607C43.1649 90.3607 42.2168 90.6483 41.4104 91.1872C40.6039 91.726 39.9754 92.4919 39.6042 93.388C39.2331 94.284 39.136 95.27 39.3252 96.2213C39.5144 97.1725 39.9814 98.0463 40.6673 98.7321C41.3531 99.4179 42.2269 99.885 43.1781 100.074C44.1294 100.263 45.1154 100.166 46.0114 99.7951C46.9075 99.424 47.6734 98.7954 48.2122 97.989C48.751 97.1826 49.0387 96.2345 49.0387 95.2646C49.0387 93.964 48.522 92.7167 47.6024 91.797C46.6827 90.8774 45.4354 90.3607 44.1348 90.3607Z" fill="#2E3849"/>
</svg>
