<svg width="80" height="80" viewBox="0 0 80 80" fill="none" xmlns="http://www.w3.org/2000/svg">
<circle cx="40" cy="40" r="40" fill="white"/>
<path fill-rule="evenodd" clip-rule="evenodd" d="M29.1523 41.3777H20.9948L19.8805 43.4994C19.3056 44.5981 19.0037 45.8191 19.0006 47.0591V57.418C19.0006 58.0179 20.0805 58.0179 20.0805 57.418V51.9986H22.0803V55.7996H22.0804V57.3806C22.0819 57.4322 22.0819 57.4839 22.0804 57.5354V59.9992C22.0804 60.1792 22.3403 60.3791 22.7003 60.3791C23.0542 60.3791 23.4082 60.1085 23.4199 60.0044V57.2195H23.4202V52H25.42V59.9992L25.4197 60.0027V61.739C25.4556 61.8815 25.5381 62.008 25.654 62.0983C25.7699 62.1886 25.9127 62.2377 26.0597 62.2377C26.2066 62.2377 26.3494 62.1886 26.4653 62.0983C26.5812 62.008 26.6637 61.8815 26.6996 61.739V52H28.6994V54.9567H28.7005V59.9161C28.7005 60.4961 29.9404 60.4961 29.9404 59.9161V54.6666C29.94 54.65 29.9399 54.6332 29.9399 54.6165V50.6169H31.9397V51.437H31.9401V54.6192C31.968 54.776 32.05 54.918 32.1718 55.0206C32.2944 55.1237 32.4494 55.1803 32.6096 55.1803C32.7698 55.1803 32.9248 55.1237 33.0474 55.0206C33.17 54.9174 33.2522 54.7744 33.2795 54.6165V47.3173C33.2787 47.1626 33.2219 47.0134 33.1196 46.8973L29.1523 41.3777ZM19.5405 39.8379V34.3584H21.5403V39.3779H28.7796V37.5981H30.7794V40.2339L34.5994 45.6774C34.9914 46.1412 35.2042 46.7301 35.1993 47.3373V54.6365C35.1947 55.3268 34.9238 55.9886 34.4432 56.4841C33.9626 56.9796 33.3094 57.2705 32.6196 57.2962C32.3883 57.2962 32.1601 57.2663 31.9401 57.2087V59.9161C31.9192 60.5933 31.6327 61.2351 31.1425 61.7029C30.6524 62.1706 29.9979 62.4267 29.3204 62.4159C29.0811 62.4197 28.8446 62.3902 28.6173 62.3299C28.583 62.4624 28.5381 62.5924 28.4829 62.7184C28.3422 63.0399 28.1373 63.3294 27.8809 63.569C27.6244 63.8086 27.3217 63.9934 26.9914 64.112C26.661 64.2306 26.31 64.2805 25.9597 64.2587C25.2927 64.2486 24.6556 63.9805 24.182 63.5107C23.8295 63.1609 23.5881 62.7196 23.4813 62.2418C23.2278 62.3009 22.9645 62.3209 22.7003 62.2989C22.0514 62.3271 21.4167 62.1037 20.9286 61.6752C20.4405 61.2467 20.1367 60.6463 20.0806 59.9992V59.9399C19.9036 59.9783 19.7226 59.9978 19.5405 59.9977C19.2036 59.9978 18.8701 59.9308 18.5593 59.8007C18.2485 59.6705 17.9668 59.4799 17.7304 59.2398C17.494 58.9997 17.3078 58.715 17.1825 58.4022C17.0573 58.0894 16.9955 57.7549 17.0008 57.418V47.0591C17.0027 45.4993 17.3799 43.9628 18.1007 42.5795L19.5405 39.8379Z" fill="#0081EB"/>
<path fill-rule="evenodd" clip-rule="evenodd" d="M40.6199 50.0469L40.6199 58.2044L42.7416 59.3187C43.8403 59.8937 45.0613 60.1955 46.3012 60.1986L56.6602 60.1986C57.2601 60.1986 57.2601 59.1187 56.6602 59.1187L51.2407 59.1187L51.2407 57.1189L55.0418 57.1189L55.0418 57.1189L56.6228 57.1189C56.6744 57.1173 56.7261 57.1173 56.7776 57.1189L59.2414 57.1189C59.4213 57.1189 59.6213 56.8589 59.6213 56.4989C59.6213 56.145 59.3507 55.7911 59.2465 55.7793L56.4617 55.7793L56.4617 55.779L51.2422 55.779L51.2422 53.7792L59.2414 53.7792L59.2449 53.7795L60.9812 53.7795C61.1237 53.7436 61.2502 53.6611 61.3405 53.5452C61.4308 53.4293 61.4799 53.2865 61.4799 53.1396C61.4799 52.9926 61.4308 52.8498 61.3405 52.7339C61.2502 52.618 61.1237 52.5355 60.9812 52.4996L51.2422 52.4996L51.2422 50.4998L54.1988 50.4998L54.1988 50.4987L59.1583 50.4987C59.7383 50.4987 59.7383 49.2589 59.1583 49.2589L53.9088 49.2589C53.8921 49.2592 53.8754 49.2593 53.8587 49.2593L49.8591 49.2593L49.8591 47.2595L50.6792 47.2595L50.6792 47.2591L53.8614 47.2591C54.0182 47.2312 54.1602 47.1493 54.2628 47.0274C54.3659 46.9048 54.4225 46.7498 54.4225 46.5896C54.4225 46.4294 54.3659 46.2744 54.2628 46.1518C54.1596 46.0293 54.0165 45.947 53.8587 45.9197L46.5595 45.9197C46.4047 45.9205 46.2555 45.9773 46.1395 46.0797L40.6199 50.0469ZM39.0801 59.6587L33.6006 59.6587L33.6006 57.6589L38.6201 57.6589L38.6201 50.4196L36.8403 50.4196L36.8403 48.4198L39.4761 48.4198L44.9196 44.5998C45.3834 44.2078 45.9723 43.995 46.5795 43.9999L53.8787 43.9999C54.569 44.0045 55.2308 44.2754 55.7263 44.756C56.2218 45.2366 56.5127 45.8898 56.5384 46.5796C56.5384 46.8109 56.5085 47.0391 56.4509 47.2591L59.1583 47.2591C59.8355 47.28 60.4773 47.5665 60.9451 48.0567C61.4128 48.5469 61.6689 49.2014 61.6581 49.8788C61.6619 50.1181 61.6324 50.3546 61.572 50.582C61.7046 50.6162 61.8345 50.6611 61.9606 50.7163C62.2821 50.857 62.5716 51.0619 62.8112 51.3183C63.0508 51.5748 63.2356 51.8775 63.3542 52.2078C63.4728 52.5382 63.5227 52.8892 63.5009 53.2396C63.4908 53.9065 63.2226 54.5436 62.7528 55.0172C62.4031 55.3697 61.9618 55.6112 61.484 55.7179C61.5431 55.9714 61.5631 56.2347 61.5411 56.4989C61.5693 57.1478 61.3459 57.7825 60.9174 58.2707C60.4889 58.7588 59.8884 59.0626 59.2414 59.1187L59.1821 59.1187C59.2205 59.2956 59.24 59.4767 59.2399 59.6587C59.24 59.9956 59.173 60.3291 59.0428 60.6399C58.9127 60.9507 58.7221 61.2325 58.482 61.4688C58.2419 61.7052 57.9572 61.8914 57.6444 62.0167C57.3316 62.1419 56.9971 62.2037 56.6602 62.1984L46.3012 62.1984C44.7414 62.1966 43.205 61.8193 41.8217 61.0985L39.0801 59.6587Z" fill="#2E3849"/>
<path fill-rule="evenodd" clip-rule="evenodd" d="M51.3535 38.886L59.5111 38.886L60.6254 36.7642C61.2003 35.6656 61.5021 34.4446 61.5053 33.2046L61.5053 22.8457C61.5053 22.2457 60.4254 22.2457 60.4254 22.8457L60.4254 28.2651L58.4256 28.2651L58.4256 24.4641L58.4255 24.4641L58.4255 22.8831C58.4239 22.8314 58.4239 22.7798 58.4255 22.7282L58.4255 20.2645C58.4255 20.0845 58.1655 19.8845 57.8056 19.8845C57.4516 19.8845 57.0977 20.1552 57.0859 20.2593L57.0859 23.0442L57.0856 23.0442L57.0856 28.2637L55.0858 28.2637L55.0858 20.2645L55.0861 20.2609L55.0861 18.5247C55.0502 18.3822 54.9678 18.2557 54.8519 18.1654C54.7359 18.075 54.5932 18.026 54.4462 18.026C54.2992 18.026 54.1565 18.075 54.0406 18.1654C53.9246 18.2557 53.8422 18.3822 53.8063 18.5247L53.8063 28.2637L51.8065 28.2637L51.8065 25.307L51.8054 25.307L51.8054 20.3475C51.8054 19.7676 50.5655 19.7676 50.5655 20.3475L50.5655 25.597C50.5658 25.6137 50.566 25.6304 50.566 25.6471L50.566 29.6467L48.5662 29.6467L48.5662 28.8267L48.5657 28.8267L48.5657 25.6445C48.5379 25.4877 48.4559 25.3456 48.334 25.2431C48.2115 25.14 48.0564 25.0834 47.8962 25.0834C47.7361 25.0834 47.581 25.14 47.4585 25.2431C47.3359 25.3462 47.2537 25.4893 47.2263 25.6471L47.2263 32.9464C47.2271 33.1011 47.284 33.2503 47.3863 33.3664L51.3535 38.886ZM60.9653 40.4258L60.9653 45.9053L58.9655 45.9053L58.9655 40.8858L51.7263 40.8858L51.7263 42.6656L49.7265 42.6656L49.7265 40.0298L45.9065 34.5862C45.5145 34.1225 45.3016 33.5336 45.3065 32.9264L45.3065 25.6272C45.3112 24.9369 45.582 24.2751 46.0626 23.7796C46.5432 23.2841 47.1965 22.9932 47.8863 22.9674C48.1175 22.9674 48.3458 22.9973 48.5657 23.055L48.5657 20.3475C48.5866 19.6703 48.8731 19.0285 49.3633 18.5608C49.8535 18.0931 50.508 17.837 51.1854 17.8478C51.4248 17.844 51.6612 17.8735 51.8886 17.9338C51.9229 17.8013 51.9677 17.6713 52.0229 17.5453C52.1636 17.2237 52.3685 16.9343 52.625 16.6947C52.8815 16.4551 53.1841 16.2703 53.5145 16.1517C53.8448 16.0331 54.1959 15.9832 54.5462 16.0049C55.2132 16.0151 55.8503 16.2832 56.3238 16.753C56.6763 17.1028 56.9178 17.544 57.0246 18.0219C57.278 17.9628 57.5414 17.9428 57.8056 17.9647C58.4545 17.9365 59.0892 18.16 59.5773 18.5885C60.0654 19.017 60.3692 19.6174 60.4253 20.2645L60.4253 20.3237C60.6023 20.2853 60.7833 20.2658 60.9653 20.2659C61.3022 20.2659 61.6358 20.3329 61.9466 20.463C62.2573 20.5931 62.5391 20.7838 62.7755 21.0239C63.0118 21.264 63.1981 21.5487 63.3233 21.8615C63.4486 22.1742 63.5104 22.5088 63.5051 22.8457L63.5051 33.2046C63.5032 34.7644 63.1259 36.3009 62.4052 37.6842L60.9653 40.4258Z" fill="#0081EB"/>
<path fill-rule="evenodd" clip-rule="evenodd" d="M39.886 30.2168L39.886 22.0593L37.7642 20.945C36.6656 20.37 35.4446 20.0682 34.2046 20.0651L23.8457 20.0651C23.2457 20.0651 23.2457 21.1449 23.8457 21.1449L29.2651 21.1449L29.2651 23.1447L25.4641 23.1447L25.4641 23.1448L23.8831 23.1448C23.8314 23.1464 23.7798 23.1464 23.7282 23.1448L21.2645 23.1448C21.0845 23.1448 20.8845 23.4048 20.8845 23.7648C20.8845 24.1187 21.1552 24.4726 21.2593 24.4844L24.0442 24.4844L24.0442 24.4847L29.2637 24.4847L29.2637 26.4845L21.2645 26.4845L21.2609 26.4842L19.5247 26.4842C19.3822 26.5201 19.2557 26.6025 19.1654 26.7185C19.075 26.8344 19.026 26.9771 19.026 27.1241C19.026 27.2711 19.075 27.4138 19.1654 27.5298C19.2557 27.6457 19.3822 27.7281 19.5247 27.764L29.2637 27.764L29.2637 29.7638L26.307 29.7638L26.307 29.7649L21.3475 29.7649C20.7676 29.7649 20.7676 31.0048 21.3475 31.0048L26.597 31.0048C26.6137 31.0045 26.6304 31.0043 26.6471 31.0043L30.6467 31.0043L30.6467 33.0041L29.8267 33.0041L29.8267 33.0046L26.6445 33.0046C26.4877 33.0324 26.3456 33.1144 26.2431 33.2363C26.14 33.3588 26.0834 33.5139 26.0834 33.6741C26.0834 33.8342 26.14 33.9893 26.2431 34.1118C26.3462 34.2344 26.4893 34.3166 26.6472 34.344L33.9464 34.344C34.1011 34.3432 34.2503 34.2864 34.3664 34.184L39.886 30.2168ZM41.4258 20.605L46.9053 20.605L46.9053 22.6048L41.8858 22.6048L41.8858 29.844L43.6656 29.844L43.6656 31.8438L41.0298 31.8438L35.5862 35.6639C35.1225 36.0558 34.5336 36.2687 33.9264 36.2638L26.6272 36.2638C25.9369 36.2591 25.2751 35.9883 24.7796 35.5077C24.2841 35.0271 23.9932 34.3739 23.9674 33.6841C23.9674 33.4528 23.9973 33.2246 24.055 33.0046L21.3475 33.0046C20.6703 32.9837 20.0285 32.6972 19.5608 32.207C19.0931 31.7168 18.837 31.0623 18.8478 30.3849C18.844 30.1455 18.8735 29.9091 18.9338 29.6817C18.8013 29.6474 18.6713 29.6026 18.5453 29.5474C18.2237 29.4067 17.9343 29.2018 17.6947 28.9453C17.4551 28.6889 17.2703 28.3862 17.1517 28.0558C17.0331 27.7255 16.9832 27.3744 17.0049 27.0241C17.0151 26.3571 17.2832 25.72 17.753 25.2465C18.1028 24.894 18.544 24.6525 19.0219 24.5457C18.9628 24.2923 18.9428 24.0289 18.9647 23.7648C18.9365 23.1159 19.16 22.4811 19.5885 21.993C20.017 21.5049 20.6174 21.2011 21.2645 21.145L21.3237 21.145C21.2853 20.968 21.2658 20.787 21.2659 20.605C21.2659 20.2681 21.3329 19.9345 21.463 19.6238C21.5931 19.313 21.7838 19.0312 22.0239 18.7948C22.264 18.5585 22.5487 18.3722 22.8615 18.247C23.1742 18.1217 23.5088 18.06 23.8457 18.0653L34.2046 18.0653C35.7644 18.0671 37.3009 18.4444 38.6842 19.1651L41.4258 20.605Z" fill="#2E3849"/>
</svg>
