<svg width="80" height="80" viewBox="0 0 80 80" fill="none" xmlns="http://www.w3.org/2000/svg">
<circle cx="40" cy="40" r="40" fill="white"/>
<path fill-rule="evenodd" clip-rule="evenodd" d="M21.212 36.7373C21.922 37.2169 22.7564 37.4729 23.61 37.4729C24.7576 37.4676 25.8563 37.0023 26.6659 36.1789C27.4755 35.3555 27.93 34.241 27.93 33.0793C27.926 32.2152 27.6693 31.3716 27.1922 30.6551C26.7152 29.9385 26.0391 29.3811 25.2494 29.0532C24.4597 28.7253 23.5917 28.6416 22.755 28.8126C21.9183 28.9836 21.1505 29.4017 20.5483 30.0142C19.9461 30.6266 19.5367 31.4059 19.3716 32.2537C19.2065 33.1015 19.2932 33.9798 19.6208 34.7778C19.9483 35.5758 20.502 36.2576 21.212 36.7373ZM22.3211 31.1264C22.7026 30.8683 23.1511 30.7306 23.61 30.7306C23.9147 30.7306 24.2163 30.7913 24.4978 30.9094C24.7793 31.0274 25.0351 31.2004 25.2505 31.4185C25.4659 31.6366 25.6368 31.8955 25.7534 32.1805C25.87 32.4654 25.93 32.7708 25.93 33.0793C25.93 33.5438 25.7939 33.9979 25.539 34.3841C25.2841 34.7704 24.9217 35.0714 24.4978 35.2492C24.0739 35.4269 23.6074 35.4735 23.1574 35.3828C22.7073 35.2922 22.294 35.0685 21.9695 34.74C21.645 34.4116 21.4241 33.9931 21.3346 33.5375C21.2451 33.0819 21.291 32.6096 21.4666 32.1805C21.6422 31.7513 21.9395 31.3845 22.3211 31.1264Z" fill="#0081EB"/>
<path d="M29.6105 60.8994L31.9105 68.7554L33.8305 68.1682L31.5105 60.2515C31.2754 59.6219 30.8568 59.0796 30.3104 58.6963C29.7639 58.313 29.1153 58.1069 28.4505 58.1053H25.8505C24.3616 58.0999 22.9352 57.4988 21.8824 56.4329C20.8295 55.3671 20.2357 53.9231 20.2305 52.4157V42.697C20.2305 42.2781 20.3948 41.8764 20.6874 41.5803C20.9799 41.2841 21.3767 41.1177 21.7905 41.1177H22.5105C23.3304 41.1186 24.1237 41.4126 24.7505 41.9479C26.4678 43.5906 28.6636 44.6274 31.0105 44.904H35.0105C35.2916 44.904 35.5612 45.017 35.76 45.2183C35.9588 45.4195 36.0705 45.6925 36.0705 45.9771C36.0705 46.2617 35.9588 46.5346 35.76 46.7359C35.5612 46.9371 35.2916 47.0502 35.0105 47.0502H29.9905C29.4235 47.0508 28.8657 46.9044 28.3705 46.625L25.6105 45.0457H23.4105V52.1525C23.4105 52.9151 23.7097 53.6464 24.2423 54.1856C24.7749 54.7247 25.4973 55.0277 26.2505 55.0277H30.7505C31.2094 55.0296 31.6586 55.1615 32.0474 55.4083C32.4362 55.6552 32.749 56.0073 32.9505 56.4247L36.0905 68.5732L38.0905 68.067L34.9305 55.9185C34.61 55.0578 34.0386 54.316 33.292 53.7917C32.5455 53.2673 31.6591 52.9852 30.7505 52.9827H26.1505C25.9277 52.9827 25.714 52.8931 25.5565 52.7336C25.399 52.5741 25.3105 52.3578 25.3105 52.1323V47.2729L27.3105 48.3865C28.1043 48.8383 28.9998 49.0754 29.9105 49.0749H34.9905C35.3923 49.0749 35.7902 48.9948 36.1615 48.8391C36.5327 48.6834 36.8701 48.4553 37.1542 48.1676C37.4384 47.8799 37.6638 47.5384 37.8175 47.1626C37.9713 46.7867 38.0505 46.3839 38.0505 45.9771C38.0505 45.5703 37.9713 45.1674 37.8175 44.7916C37.6638 44.4157 37.4384 44.0742 37.1542 43.7866C36.8701 43.4989 36.5327 43.2707 36.1615 43.115C35.7902 42.9594 35.3923 42.8792 34.9905 42.8792H30.9905C29.1414 42.5839 27.429 41.7136 26.0905 40.3888C25.1039 39.5517 23.8577 39.093 22.5705 39.093H21.7905C20.8445 39.0983 19.939 39.4825 19.2719 40.1616C18.6049 40.8407 18.2305 41.7595 18.2305 42.7173V52.4157C18.2357 54.46 19.0403 56.4191 20.4681 57.8646C21.896 59.3102 23.8311 60.1247 25.8505 60.13H28.4505C28.697 60.1293 28.9382 60.2018 29.1444 60.3386C29.3506 60.4754 29.5127 60.6703 29.6105 60.8994Z" fill="#0081EB"/>
<path d="M55.79 63.1664H53.79V68.4509H55.79V63.1664Z" fill="#2E3849"/>
<path d="M54.11 64.179H51.75V62.1542H54.11C56.1658 62.1639 58.1702 61.5038 59.827 60.2714C61.4837 59.039 62.7048 57.2997 63.31 55.3106L65.31 55.9181C64.5726 58.3335 63.0837 60.443 61.0653 61.9317C59.0469 63.4205 56.6071 64.2087 54.11 64.179Z" fill="#2E3849"/>
<path d="M48.0505 68.7553L46.0505 68.1681L48.3505 60.3121C48.5819 59.6712 49.0005 59.1168 49.5506 58.7226C50.1008 58.3284 50.7565 58.113 51.4305 58.1052H54.0305C55.5194 58.0998 56.9458 57.4987 57.9986 56.4329C59.0514 55.367 59.6452 53.923 59.6505 52.4157V42.7172C59.6505 42.2983 59.4861 41.8966 59.1936 41.6004C58.901 41.3043 58.5042 41.1379 58.0905 41.1379H57.3105C56.4902 41.137 55.6963 41.4312 55.0705 41.968C53.3977 43.5674 51.2709 44.5943 48.9905 44.9039H44.9905C44.7093 44.9039 44.4397 45.0169 44.2409 45.2182C44.0421 45.4194 43.9305 45.6924 43.9305 45.977C43.9305 46.2616 44.0421 46.5345 44.2409 46.7358C44.4397 46.937 44.7093 47.0501 44.9905 47.0501H50.0105C50.5776 47.0517 51.1355 46.9052 51.6305 46.6249L54.3905 45.0456H56.5905V52.1524C56.5905 52.5334 56.5157 52.9106 56.3705 53.2621C56.2253 53.6136 56.0125 53.9324 55.7446 54.1999C55.4766 54.4674 55.1588 54.6784 54.8096 54.8204C54.4604 54.9625 54.0868 55.0329 53.7105 55.0276H49.1305C48.6298 55.0286 48.1414 55.1842 47.7304 55.4736C47.3195 55.763 47.0055 56.1725 46.8305 56.6474L43.7305 68.6541L41.7305 68.1479L44.8705 55.9994C45.1782 55.1181 45.7463 54.354 46.4976 53.8107C47.2489 53.2674 48.1472 52.9712 49.0705 52.9623H53.6505C53.8732 52.9623 54.0869 52.8727 54.2444 52.7133C54.402 52.5538 54.4905 52.3375 54.4905 52.1119V47.2323L52.4905 48.3459C51.6966 48.7977 50.8012 49.0348 49.8905 49.0343H45.0305C44.2189 49.0343 43.4406 48.708 42.8667 48.127C42.2929 47.546 41.9705 46.7581 41.9705 45.9365C41.9705 45.1149 42.2929 44.3269 42.8667 43.746C43.4406 43.165 44.2189 42.8386 45.0305 42.8386H49.0305C50.8838 42.5308 52.5965 41.6462 53.9305 40.3077C54.9162 39.4691 56.1629 39.0102 57.4505 39.0119H58.2305C59.173 39.0172 60.0755 39.3986 60.742 40.0734C61.4085 40.7481 61.7852 41.6617 61.7905 42.6159V52.3347C61.7852 54.379 60.9807 56.338 59.5528 57.7836C58.1249 59.2291 56.1898 60.0436 54.1705 60.0489H51.5705C51.3143 60.0519 51.0649 60.1326 50.8545 60.2805C50.6442 60.4285 50.4825 60.637 50.3905 60.8791L48.0505 68.7553Z" fill="#2E3849"/>
<path d="M56.3503 37.4732C55.5003 37.4572 54.6739 37.1877 53.9745 36.6985C53.2751 36.2092 52.7338 35.5219 52.4185 34.7227C52.1032 33.9234 52.0278 33.0478 52.2018 32.2054C52.3758 31.3629 52.7914 30.5912 53.3967 29.9868C54.0019 29.3825 54.7699 28.9723 55.6043 28.8078C56.4387 28.6432 57.3026 28.7315 58.0877 29.0617C58.8727 29.3919 59.5441 29.9492 60.0178 30.6639C60.4914 31.3786 60.7462 32.2189 60.7503 33.0795C60.7504 33.6616 60.6361 34.238 60.4143 34.775C60.1924 35.3121 59.8674 35.7992 59.458 36.208C59.0486 36.6168 58.5631 36.9391 58.0296 37.1563C57.4961 37.3735 56.9253 37.4812 56.3503 37.4732ZM56.3503 30.7308C55.8952 30.7467 55.4548 30.8978 55.0839 31.1654C54.713 31.4329 54.4282 31.8051 54.2648 32.2354C54.1014 32.6657 54.0667 33.1352 54.1651 33.5853C54.2634 34.0355 54.4904 34.4464 54.8178 34.7668C55.1453 35.0872 55.5586 35.303 56.0063 35.3872C56.454 35.4715 56.9163 35.4205 57.3356 35.2406C57.7549 35.0607 58.1126 34.7598 58.3642 34.3755C58.6157 33.9913 58.75 33.5405 58.7503 33.0795C58.7505 32.7641 58.6879 32.4519 58.5664 32.1616C58.4448 31.8712 58.2667 31.6086 58.0427 31.3894C57.8188 31.1702 57.5535 30.9989 57.2627 30.8858C56.9719 30.7726 56.6616 30.7199 56.3503 30.7308Z" fill="#2E3849"/>
<path d="M26.1904 63.1664H24.1904V68.4509H26.1904V63.1664Z" fill="#2E3849"/>
<path d="M28.23 64.179H25.85C23.3699 64.1869 20.9528 63.3885 18.9546 61.9014C16.9563 60.4142 15.4825 58.3168 14.75 55.9181L16.75 55.3106C17.3552 57.2997 18.5763 59.039 20.233 60.2714C21.8898 61.5038 23.8941 62.1639 25.95 62.1542H28.23V64.179Z" fill="#2E3849"/>
<path d="M48.0097 49.9453H30.4297V51.97H48.0097V49.9453Z" fill="#2E3849"/>
<path d="M40.9102 50.9576H38.9102V68.4514H40.9102V50.9576Z" fill="#2E3849"/>
<path d="M64.27 67.4591H15.71V69.4838H64.27V67.4591Z" fill="#2E3849"/>
</svg>
