<svg width="80" height="80" viewBox="0 0 80 80" fill="none" xmlns="http://www.w3.org/2000/svg">
<circle cx="40" cy="40" r="40" fill="white"/>
<path d="M44.2842 61.6603H20.0002V59.66H44.2842C44.9091 59.6606 45.528 59.5372 46.1049 59.2968C46.6817 59.0565 47.2052 58.7039 47.6447 58.2597L59.1866 46.7178C59.4095 46.5268 59.5473 46.2551 59.5698 45.9625C59.5923 45.6699 59.4977 45.3804 59.3067 45.1576C59.1157 44.9347 58.844 44.7969 58.5514 44.7744C58.2588 44.7519 57.9692 44.8466 57.7464 45.0375L48.7449 51.6586C48.023 52.3466 47.0617 52.7268 46.0645 52.7188H44.3642V50.7185H46.0645C46.5823 50.7111 47.0771 50.5031 47.4447 50.1384L56.5662 43.4173C57.1984 42.9758 57.9725 42.7858 58.7372 42.8843C59.502 42.9828 60.2026 43.3627 60.7024 43.9499C61.2022 44.5371 61.4652 45.2895 61.4401 46.0602C61.4151 46.8308 61.1037 47.5645 60.5669 48.118L49.005 59.68C47.7555 60.9388 46.0578 61.651 44.2842 61.6603Z" fill="#2E3849"/>
<path d="M21.0003 47.7972H19V63.4798H21.0003V47.7972Z" fill="#2E3849"/>
<path d="M42.0238 53.9989H32.6223V51.9986H42.0238C42.4694 51.9986 42.8968 51.8215 43.2119 51.5064C43.5271 51.1913 43.7041 50.7639 43.7041 50.3183C43.7041 49.8727 43.5271 49.4453 43.2119 49.1302C42.8968 48.815 42.4694 48.638 42.0238 48.638C38.801 48.8772 35.565 48.8772 32.3422 48.638C31.843 48.5602 31.3487 48.4533 30.862 48.318C30.2497 48.1302 29.6013 48.0921 28.9712 48.207C28.3412 48.3218 27.748 48.5863 27.2414 48.9781L25.161 51.0584C24.672 51.5686 24.0852 51.975 23.4356 52.2533C22.7861 52.5317 22.0871 52.6764 21.3804 52.6787H20.0002V50.6784H21.3804C21.8176 50.6771 22.2501 50.5879 22.6522 50.4161C23.0543 50.2442 23.4177 49.9933 23.7208 49.6782L25.7211 47.5378C26.4679 46.8787 27.3713 46.4223 28.345 46.2121C29.3186 46.002 30.3299 46.0452 31.282 46.3376C31.6831 46.454 32.0905 46.5475 32.5022 46.6177C35.6188 46.8396 38.7472 46.8396 41.8638 46.6177C42.8399 46.6177 43.7761 47.0055 44.4664 47.6957C45.1566 48.386 45.5444 49.3221 45.5444 50.2983C45.5444 51.2744 45.1566 52.2106 44.4664 52.9009C43.7761 53.5911 42.8399 53.9789 41.8638 53.9789L42.0238 53.9989Z" fill="#2E3849"/>
<path d="M28.8016 44.4764H26.8013V43.0561C27.6014 31.0542 32.4822 25.7533 35.3027 23.6529C35.91 23.2119 36.6025 22.9024 37.3361 22.7439C38.0697 22.5855 38.8282 22.5817 39.5634 22.7328C40.0123 22.8228 40.4747 22.8228 40.9236 22.7328C41.6632 22.5804 42.4265 22.5853 43.164 22.7473C43.9015 22.9093 44.5967 23.2246 45.2043 23.6729C47.8247 25.6733 52.3855 30.5341 53.4857 41.3759L51.4853 41.5759C50.4452 31.5742 46.3445 27.0335 43.9841 25.2732C43.6002 24.9919 43.1612 24.7947 42.6958 24.6948C42.2305 24.5948 41.7493 24.5942 41.2837 24.6931C40.5836 24.8311 39.8634 24.8311 39.1633 24.6931C38.6991 24.5914 38.2187 24.5887 37.7534 24.6852C37.2881 24.7818 36.8483 24.9753 36.4629 25.2532C33.9424 27.0535 29.5417 31.9943 28.8016 43.0561V44.4764Z" fill="#0081EB"/>
<path d="M43.6644 23.8735L41.9241 22.8733L43.9245 19.2927C42.6891 19.5068 41.4376 19.6139 40.1839 19.6128C38.9301 19.6139 37.6786 19.5068 36.4432 19.2927L38.4436 22.8733L36.7033 23.8735L34.1629 19.2127C34.0067 18.967 33.9287 18.6797 33.9391 18.3888C33.9495 18.0979 34.0478 17.8169 34.2211 17.583C34.3944 17.349 34.6345 17.1731 34.9098 17.0784C35.1851 16.9837 35.4826 16.9746 35.7631 17.0523C37.2302 17.406 38.7348 17.5807 40.2439 17.5724C41.7597 17.5823 43.271 17.4076 44.7446 17.0523C45.0196 16.9822 45.3092 16.995 45.577 17.0889C45.8448 17.1829 46.0789 17.3538 46.2498 17.5804C46.4208 17.8069 46.521 18.0789 46.5379 18.3622C46.5548 18.6455 46.4877 18.9274 46.3449 19.1727L43.6644 23.8735Z" fill="#0081EB"/>
<path d="M51.6659 27.3741C48.9021 25.5277 45.6481 24.5522 42.3243 24.5737V22.5733C46.1023 22.5315 49.8024 23.6485 52.9261 25.7739L51.6659 27.3741Z" fill="#0081EB"/>
<path d="M40.2639 41.3359C39.5106 41.3359 38.7881 41.0366 38.2554 40.5039C37.7227 39.9713 37.4235 39.2488 37.4235 38.4954H39.4238C39.4238 38.6616 39.4731 38.824 39.5654 38.9622C39.6577 39.1003 39.7889 39.208 39.9424 39.2716C40.096 39.3352 40.2649 39.3518 40.4278 39.3194C40.5908 39.287 40.7405 39.207 40.858 39.0895C40.9755 38.972 41.0555 38.8223 41.0879 38.6593C41.1204 38.4964 41.1037 38.3274 41.0401 38.1739C40.9765 38.0204 40.8689 37.8892 40.7307 37.7969C40.5925 37.7046 40.4301 37.6553 40.2639 37.6553C39.6975 37.6752 39.138 37.5252 38.6574 37.2246C38.1769 36.924 37.7973 36.4864 37.5675 35.9683C37.3377 35.4502 37.2681 34.8751 37.3678 34.3171C37.4674 33.7591 37.7318 33.2437 38.1268 32.8372C38.5218 32.4306 39.0294 32.1516 39.5843 32.0359C40.1392 31.9202 40.716 31.9732 41.2405 32.188C41.7651 32.4028 42.2133 32.7697 42.5277 33.2414C42.842 33.7131 43.008 34.268 43.0044 34.8348H41.0041C41.0041 34.6687 40.9548 34.5062 40.8625 34.3681C40.7702 34.2299 40.639 34.1222 40.4854 34.0586C40.3319 33.995 40.163 33.9784 40 34.0108C39.8371 34.0432 39.6874 34.1233 39.5699 34.2408C39.4524 34.3582 39.3724 34.5079 39.3399 34.6709C39.3075 34.8339 39.3242 35.0028 39.3877 35.1563C39.4513 35.3098 39.559 35.4411 39.6972 35.5334C39.8353 35.6257 39.9978 35.675 40.1639 35.675C40.9173 35.675 41.6398 35.9742 42.1724 36.5069C42.7051 37.0396 43.0044 37.7621 43.0044 38.5154C43.0044 39.2688 42.7051 39.9913 42.1724 40.5239C41.6398 41.0566 40.9173 41.3559 40.1639 41.3559L40.2639 41.3359Z" fill="#0081EB"/>
<path d="M41.2636 31.1947H39.2633V32.995H41.2636V31.1947Z" fill="#0081EB"/>
<path d="M41.2636 40.5361H39.2633V42.3364H41.2636V40.5361Z" fill="#0081EB"/>
</svg>
