<svg width="80" height="80" viewBox="0 0 80 80" fill="none" xmlns="http://www.w3.org/2000/svg">
<circle cx="40" cy="40" r="40" fill="white"/>
<path d="M60.2 42.1996H32V33.3996H34V40.1996H58.2V25.5996H34V28.5996H32V23.5996H60.2V42.1996Z" fill="#2E3849"/>
<path d="M62.2 25.5996H30V19.5996H62.2V25.5996ZM32 23.5996H60.2V21.5996H32V23.5996Z" fill="#2E3849"/>
<path d="M60.2 61.1996H58.2V56.9996C58.2 56.5996 58 56.1996 57.8 55.9996C57.6 55.7996 57.2 55.5996 56.8 55.5996H50.4C50 55.5996 49.8 55.7996 49.4 55.9996C49.2 56.1996 49 56.5996 49 56.9996V61.1996H47V56.9996C47 56.1996 47.4 55.1996 48 54.5996C48.6 53.9996 49.4 53.5996 50.4 53.5996H56.8C57.6 53.5996 58.6 53.9996 59.2 54.5996C59.8 55.1996 60.2 55.9996 60.2 56.9996V61.1996Z" fill="#2E3849"/>
<path d="M53.6001 52.7998C51.2001 52.7998 49.2001 50.7998 49.2001 48.3998C49.2001 45.9998 51.2001 43.9998 53.6001 43.9998C56.0001 43.9998 58.0001 45.9998 58.0001 48.3998C58.0001 50.7998 56.0001 52.7998 53.6001 52.7998ZM53.6001 46.1998C52.4001 46.1998 51.2001 47.1998 51.2001 48.5998C51.2001 49.7998 52.2001 50.9998 53.6001 50.9998C54.8001 50.9998 56.0001 49.9998 56.0001 48.5998C56.0001 47.3998 55.0001 46.1998 53.6001 46.1998Z" fill="#2E3849"/>
<path d="M45.2 61.1996H43.2V56.9996C43.2 56.5996 43 56.1996 42.8 55.9996C42.6 55.7996 42.2 55.5996 41.8 55.5996H35.4C35 55.5996 34.8 55.7996 34.4 55.9996C34.2 56.1996 34 56.5996 34 56.9996V61.1996H32V56.9996C32 56.1996 32.4 55.1996 33 54.5996C33.6 53.9996 34.4 53.5996 35.4 53.5996H41.8C42.6 53.5996 43.6 53.9996 44.2 54.5996C44.8 55.1996 45.2 55.9996 45.2 56.9996V61.1996Z" fill="#2E3849"/>
<path d="M38.6002 52.8C36.2002 52.8 34.4002 50.8 34.4002 48.6C34.4002 46.4 36.4002 44.4 38.6002 44.4C40.8002 44.4 42.8002 46.4 42.8002 48.6C42.8002 50.8 41.0002 52.8 38.6002 52.8ZM38.6002 46.2C37.4002 46.2 36.4002 47.2 36.4002 48.4C36.4002 49.6 37.4002 50.6 38.6002 50.6C39.8002 50.6 40.8002 49.6 40.8002 48.4C40.8002 47.2 39.8002 46.2 38.6002 46.2Z" fill="#2E3849"/>
<path d="M30.2 61.1996H28.2V56.9996C28.2 56.5996 28 56.3996 27.8 55.9996C27.6 55.7996 27.2 55.5996 26.8 55.5996H20.4C20 55.5996 19.6 55.7996 19.4 55.9996C19.2 56.1996 19 56.5996 19 56.9996V61.1996H17V56.9996C17 56.1996 17.4 55.1996 18 54.5996C18.6 53.9996 19.4 53.5996 20.4 53.5996H26.8C27.6 53.5996 28.6 53.9996 29.2 54.5996C29.8 55.1996 30.2 55.9996 30.2 56.9996V61.1996Z" fill="#2E3849"/>
<path d="M23.6001 52.9999C21.2001 52.9999 19.2001 50.9999 19.2001 48.5999C19.2001 46.1999 21.2001 44.1999 23.6001 44.1999C26.0001 44.1999 28.0001 46.1999 28.0001 48.5999C27.8001 50.9999 26.0001 52.9999 23.6001 52.9999ZM23.6001 46.1999C22.4001 46.1999 21.2001 47.1999 21.2001 48.5999C21.2001 49.7999 22.2001 50.9999 23.6001 50.9999C24.8001 50.9999 26.0001 49.9999 26.0001 48.5999C25.8001 47.1999 24.8001 46.1999 23.6001 46.1999Z" fill="#2E3849"/>
<path d="M23.6001 27.8C21.2001 27.8 19.2001 25.8 19.2001 23.4C19.2001 21 21.2001 19 23.6001 19C26.0001 19 28.0001 21 28.0001 23.4C27.8001 25.8 26.0001 27.8 23.6001 27.8ZM23.6001 21C22.2001 21 21.2001 22 21.2001 23.4C21.2001 24.6 22.2001 25.8 23.6001 25.8C24.8001 25.8 26.0001 24.8 26.0001 23.4C25.8001 22 24.8001 21 23.6001 21Z" fill="#0081EB"/>
<path d="M29.4 41.2002H27.4V34.4002C27.4 33.2002 28.4 32.4002 29.4 32.4002H37.6C37.8 32.4002 37.8 32.4002 38 32.2002L38.4 30.8002C38.4 30.6002 38.4 30.6002 38.4 30.6002L38.2 30.4002H20.4C20 30.4002 19.6 30.6002 19.4 30.8002C19.2 31.0002 19 31.4002 19 31.8002V41.2002H17V31.8002C17 31.0002 17.4 30.0002 18 29.4002C18.6 28.8002 19.4 28.4002 20.4 28.4002H38C38.8 28.4002 39.4 28.8002 39.8 29.4002C40.2 30.0002 40.4 30.8002 40.2 31.4002L39.8 32.8002C39.6 33.8002 38.6 34.4002 37.6 34.4002H29.4V41.2002Z" fill="#0081EB"/>
</svg>
