<svg width="80" height="80" viewBox="0 0 80 80" fill="none" xmlns="http://www.w3.org/2000/svg">
<circle cx="40" cy="40" r="40" fill="white"/>
<path d="M52.2595 56.5799H21.0195V34.3799H39.1395V36.3799H23.0195V54.5799H52.2595V56.5799Z" fill="#2E3849"/>
<path d="M24.0195 56V60.5799H55.2595V58.5799H26.0195V56H24.0195Z" fill="#2E3849"/>
<path d="M39.9203 26.7998H34.3203V28.7998H39.9203V26.7998Z" fill="#2E3849"/>
<path d="M26.68 36.3798H19V26.7998H24.24V28.7998H21V34.3798H26.68V36.3798Z" fill="#2E3849"/>
<path d="M53.2205 32.5798H55.2205V26.7998H49.9805V28.7998H53.2205V32.5798Z" fill="#2E3849"/>
<path d="M51.2205 51.7803H53.2205V56.5803H47.9805V54.5803H51.2205V51.7803Z" fill="#2E3849"/>
<path d="M31.0395 40.2598H29.0195V42.2598H31.0395V40.2598Z" fill="#2E3849"/>
<path d="M35.0796 40.2598H33.0596V42.2598H35.0796V40.2598Z" fill="#2E3849"/>
<path d="M39.1196 40.2598H37.0996V42.2598H39.1196V40.2598Z" fill="#2E3849"/>
<path d="M31.0395 44.2998H29.0195V46.2998H31.0395V44.2998Z" fill="#2E3849"/>
<path d="M35.0796 44.2998H33.0596V46.2998H35.0796V44.2998Z" fill="#2E3849"/>
<path d="M39.1196 44.2998H37.0996V46.2998H39.1196V44.2998Z" fill="#2E3849"/>
<path d="M31.0395 48.3398H29.0195V50.3398H31.0395V48.3398Z" fill="#2E3849"/>
<path d="M35.0796 48.3398H33.0596V50.3398H35.0796V48.3398Z" fill="#2E3849"/>
<path d="M39.1196 48.3398H37.0996V50.3398H39.1196V48.3398Z" fill="#2E3849"/>
<path d="M32.2803 32.58H26.2803V23H32.2803V32.58ZM28.2803 30.58H30.2803V25H28.2803V30.58Z" fill="#2E3849"/>
<path d="M48 32.58H42V23H48V32.58ZM44 30.58H46V25H44V30.58Z" fill="#2E3849"/>
<path d="M50.34 50.3996H42V45.6916C42.0053 44.6891 42.4136 43.7291 43.1364 43.0202C43.8591 42.3113 44.8379 41.9107 45.86 41.9056H47.12C47.6133 41.9056 48.0864 41.7134 48.4352 41.3713C48.784 41.0291 48.98 40.5651 48.98 40.0812V38.8454C48.9748 38.3631 48.7772 37.9021 48.4295 37.561C48.0818 37.22 47.6117 37.0261 47.12 37.021H45.88C45.3883 37.0261 44.9182 37.22 44.5705 37.561C44.2228 37.9021 44.0252 38.3631 44.02 38.8454H42.02C42.0253 37.8429 42.4336 36.8829 43.1564 36.174C43.8791 35.4651 44.8579 35.0645 45.88 35.0594H47.14C48.1621 35.0645 49.1409 35.4651 49.8636 36.174C50.5864 36.8829 50.9947 37.8429 51 38.8454V40.0616C50.9947 41.0641 50.5864 42.0241 49.8636 42.733C49.1409 43.442 48.1621 43.8425 47.14 43.8476H45.9C45.4083 43.8527 44.9382 44.0466 44.5905 44.3876C44.2428 44.7287 44.0452 45.1897 44.04 45.672V48.4183H50.38L50.34 50.3996Z" fill="#0081EB"/>
<path d="M59.14 50.3991H57.14V47.7116H51.5V45.7499L56.48 35H59.08V45.7499H61.08V47.7116H59.08L59.14 50.3991ZM53.78 45.7696H57.14V38.5114L53.78 45.7696Z" fill="#0081EB"/>
</svg>
