<?xml version="1.0" encoding="utf-8"?>
<!-- Generator: Adobe Illustrator 22.1.0, SVG Export Plug-In . SVG Version: 6.00 Build 0)  -->
<svg version="1.1" id="Capa_1" xmlns="http://www.w3.org/2000/svg" xmlns:xlink="http://www.w3.org/1999/xlink" x="0px" y="0px"
	 viewBox="0 0 148 74" style="enable-background:new 0 0 148 74;" xml:space="preserve">
<style type="text/css">
	.st0{fill:#00C2FF;}
	.st1{fill:#FFFFFF;}
	.st2{fill:#0081EB;}
</style>
<g>
	<g>
		
			<image style="overflow:visible;opacity:0.75;" width="82" height="82" xlink:href="EDCE42F01E29E91B.png"  transform="matrix(1 0 0 1 69 -4)">
		</image>
		<g>
			<g>
				<path class="st0" d="M87,11h46c1.7,0,3,1.3,3,3v46c0,1.7-1.3,3-3,3H87c-1.7,0-3-1.3-3-3V14C84,12.3,85.3,11,87,11z"/>
			</g>
		</g>
	</g>
	<polygon class="st1" points="111.7,43.7 110.3,42.3 115.6,37 110.3,31.7 111.7,30.3 118.4,37 	"/>
	<rect x="102" y="36" class="st1" width="14" height="2"/>
</g>
<g>
	<g>
		
			<image style="overflow:visible;opacity:0.75;" width="82" height="82" xlink:href="EDCE42F01E29E91E.png"  transform="matrix(1 0 0 1 -3 -4)">
		</image>
		<g>
			<g>
				<path class="st2" d="M15,11h46c1.7,0,3,1.3,3,3v46c0,1.7-1.3,3-3,3H15c-1.7,0-3-1.3-3-3V14C12,12.3,13.3,11,15,11z"/>
			</g>
		</g>
	</g>
	<polygon class="st1" points="39.7,43.7 38.3,42.3 43.6,37 38.3,31.7 39.7,30.3 46.4,37 	"/>
	<rect x="30" y="36" class="st1" width="14" height="2"/>
</g>
</svg>
