<?xml version="1.0" encoding="utf-8"?>
<!-- Generator: Adobe Illustrator 22.1.0, SVG Export Plug-In . SVG Version: 6.00 Build 0)  -->
<svg version="1.1" id="Capa_1" xmlns="http://www.w3.org/2000/svg" xmlns:xlink="http://www.w3.org/1999/xlink" x="0px" y="0px"
	 viewBox="0 0 120 60" style="enable-background:new 0 0 120 60;" xml:space="preserve">
<style type="text/css">
	.st0{fill:#0081EB;}
	.st1{fill:#FFFFFF;}
</style>
<g>
	<path class="st0" d="M49.4,55.9H10.6c-3.6,0-6.5-2.9-6.5-6.5V10.6C4.1,7,7,4.1,10.6,4.1h38.9c3.6,0,6.5,2.9,6.5,6.5v38.9
		C55.9,53,53,55.9,49.4,55.9z M10.6,8.4c-1.2,0-2.2,1-2.2,2.2v38.9c0,1.2,1,2.2,2.2,2.2h38.9c1.2,0,2.2-1,2.2-2.2V10.6
		c0-1.2-1-2.2-2.2-2.2H10.6z"/>
	<polygon class="st0" points="31.5,42.3 28.5,39.3 37.7,30 28.5,20.7 31.5,17.7 43.8,30 	"/>
	<rect x="17" y="27.8" class="st0" width="21.6" height="4.3"/>
</g>
<g>
	<path class="st1" d="M109.4,55.9H70.6c-3.6,0-6.5-2.9-6.5-6.5V10.6c0-3.6,2.9-6.5,6.5-6.5h38.9c3.6,0,6.5,2.9,6.5,6.5v38.9
		C115.9,53,113,55.9,109.4,55.9z M70.6,8.4c-1.2,0-2.2,1-2.2,2.2v38.9c0,1.2,1,2.2,2.2,2.2h38.9c1.2,0,2.2-1,2.2-2.2V10.6
		c0-1.2-1-2.2-2.2-2.2H70.6z"/>
	<polygon class="st1" points="91.5,42.3 88.5,39.3 97.7,30 88.5,20.7 91.5,17.7 103.8,30 	"/>
	<rect x="77" y="27.8" class="st1" width="21.6" height="4.3"/>
</g>
</svg>
