<?xml version="1.0" encoding="utf-8"?>
<!-- Generator: Adobe Illustrator 22.1.0, SVG Export Plug-In . SVG Version: 6.00 Build 0)  -->
<svg version="1.1" id="Capa_1" xmlns="http://www.w3.org/2000/svg" xmlns:xlink="http://www.w3.org/1999/xlink" x="0px" y="0px"
	 viewBox="0 0 120 60" style="enable-background:new 0 0 120 60;" xml:space="preserve">
<style type="text/css">
	.st0{fill:#0081EB;}
	.st1{fill:#00C2FF;}
</style>
<g>
	<path class="st0" d="M53,4H7C5.3,4,4,5.3,4,7v46c0,1.7,1.3,3,3,3h46c1.7,0,3-1.3,3-3V7C56,5.3,54.7,4,53,4z M54,53c0,0.6-0.4,1-1,1
		H7c-0.6,0-1-0.4-1-1V7c0-0.6,0.4-1,1-1h46c0.6,0,1,0.4,1,1V53z"/>
	<polygon class="st0" points="30.3,24.7 34.6,29 22,29 22,31 34.6,31 30.3,35.3 31.7,36.7 38.4,30 31.7,23.3 	"/>
</g>
<g>
	<path class="st1" d="M113,4H67c-1.7,0-3,1.3-3,3v46c0,1.7,1.3,3,3,3h46c1.7,0,3-1.3,3-3V7C116,5.3,114.7,4,113,4z M114,53
		c0,0.6-0.4,1-1,1H67c-0.6,0-1-0.4-1-1V7c0-0.6,0.4-1,1-1h46c0.6,0,1,0.4,1,1V53z"/>
	<polygon class="st1" points="90.3,24.7 94.6,29 82,29 82,31 94.6,31 90.3,35.3 91.7,36.7 98.4,30 91.7,23.3 	"/>
</g>
</svg>
