<?xml version="1.0" encoding="utf-8"?>
<!-- Generator: Adobe Illustrator 22.1.0, SVG Export Plug-In . SVG Version: 6.00 Build 0)  -->
<svg version="1.1" id="Capa_1" xmlns="http://www.w3.org/2000/svg" xmlns:xlink="http://www.w3.org/1999/xlink" x="0px" y="0px"
	 viewBox="0 0 446.6 175.5" style="enable-background:new 0 0 446.6 175.5;" xml:space="preserve">
<style type="text/css">
	.st0{fill:#2E3849;}
	.st1{fill:#0081EB;}
</style>
<g>
	<path class="st0" d="M80.4,162.7c-2.4,3-6.7,5.9-12.7,8.6c-6,2.7-13.6,4.1-22.7,4.1c-13.3,0-24.1-4.8-32.5-14.4
		C4.2,151.5,0,138.9,0,123.5v-2.2c0-15.2,4.2-27.5,12.5-37c8.3-9.5,19.3-14.2,32.8-14.2c7.7,0,14.5,1.3,20.4,3.9
		c5.9,2.5,10.7,6,14.4,10.5v17.8h-6.5l-1.5-15c-2.8-3-6.4-5.5-10.8-7.2c-4.4-1.8-9.5-2.7-15.4-2.7c-11.6,0-20.8,4.1-27.5,12.2
		c-6.7,8.2-10.1,18.7-10.1,31.6v2.3c0,13.3,3.3,24.1,9.8,32.4c6.6,8.3,15.5,12.4,26.7,12.4c6.7,0,12.4-0.9,17.1-2.6
		c4.7-1.7,8.1-3.6,10-5.6v-24.8L52.4,135v-6.8h28.1V162.7z M110.2,97.9l1.1,12.7v0.9c2.2-4.7,5.1-8.3,8.8-11c3.8-2.7,8.2-4,13.3-4
		c1.1,0,2.1,0.1,3.1,0.3c1,0.1,1.9,0.3,2.5,0.5l-1.1,7.9l-6.3-0.4c-5.3,0-9.7,1.5-13.1,4.5c-3.4,3-5.8,7-7.2,12.2v45.4l11.5,0.9v6.2
		H91.4v-6.2l11.5-0.9v-61.8l-11.5-0.9v-6.3h11.5H110.2z M140.5,134.8c0-11.2,3.1-20.4,9.2-27.6c6.1-7.2,14.3-10.8,24.4-10.8
		c10.2,0,18.3,3.6,24.5,10.8c6.1,7.2,9.2,16.4,9.2,27.6v2.3c0,11.2-3.1,20.5-9.2,27.6c-6.1,7.1-14.2,10.7-24.3,10.7
		c-10.2,0-18.4-3.6-24.5-10.7c-6.1-7.2-9.2-16.4-9.2-27.6V134.8z M149,137.2c0,8.8,2.2,16.2,6.7,22.2c4.5,6,10.7,9,18.6,9
		c7.8,0,14-3,18.4-9s6.7-13.4,6.7-22.2v-2.3c0-8.7-2.2-16-6.8-22.1c-4.5-6-10.6-9.1-18.5-9.1s-14,3-18.5,9.1
		c-4.5,6-6.7,13.4-6.7,22.1V137.2z M236.2,104.2l-9.6,0.8l12.3,44.4l2.9,13.6h0.4l3.6-13.6L262,97.9h7.2l16.2,51.4l3.7,13.9h0.4
		l3.2-13.9l12-44.4l-9.6-0.8v-6.3h25.6v6.3l-7.4,0.6L293.1,174h-7.2L269,122l-3.3-13.1h-0.4L262,122l-16.7,52h-7.2L218,104.7
		l-7.4-0.6v-6.3h25.5V104.2z M343.7,78.4v19.5h16.7v6.9h-16.7v49.6c0,5,0.9,8.5,2.7,10.6c1.8,2.1,4.2,3.1,7.2,3.1
		c1.4,0,2.7,0,3.9-0.1c1.3-0.1,2.8-0.4,4.5-0.6l1.3,6.3c-1.4,0.6-3.1,1.1-5.1,1.4c-2,0.3-4,0.5-6,0.5c-5.3,0-9.5-1.7-12.5-5.1
		c-3-3.4-4.4-8.7-4.4-16v-49.6h-13.1v-6.9h13.1V78.4H343.7z M365.5,70.6v-6.3h19.8v46.6c2.5-4.5,5.9-8.1,10.1-10.6
		c4.2-2.5,9.1-3.8,14.8-3.8c8,0,14.2,2.5,18.4,7.5c4.3,5,6.5,12.7,6.5,23.1v39.8l11.5,0.9v6.2h-31.4v-6.2l11.5-0.9V127
		c0-8.2-1.6-14.2-4.9-17.7c-3.2-3.6-7.7-5.4-13.4-5.4c-5.8,0-10.6,1.5-14.5,4.6c-3.8,3-6.7,7-8.5,12v46.5l11.5,0.9v6.2h-31.3v-6.2
		l11.5-0.9V71.5L365.5,70.6z"/>
	<path class="st1" d="M222.9,54l-31-54l62,0L222.9,54z"/>
</g>
</svg>
